<?xml version="1.0" encoding="utf-8"?>
<!-- Generator: Adobe Illustrator 19.0.0, SVG Export Plug-In . SVG Version: 6.00 Build 0)  -->
<svg version="1.1" id="Layer_1" xmlns="http://www.w3.org/2000/svg" xmlns:xlink="http://www.w3.org/1999/xlink" x="0px" y="0px"
	 viewBox="0 0 2000 2000" style="enable-background:new 0 0 2000 2000;" xml:space="preserve">
<style type="text/css">
	.st0{fill:#00B4D8;}
	.st1{fill:#001B2E;}
</style>
<circle id="XMLID_1793_" class="st0" cx="998.5" cy="999.9" r="968.5"/>
<g id="XMLID_1780_">
	<g id="XMLID_1791_">
		<path id="XMLID_1792_" class="st1" d="M1564,593.1h-493.5V440.8h244.4C1423.4,440.8,1517.5,502.7,1564,593.1z"/>
	</g>
	<g id="XMLID_1789_">
		<path id="XMLID_1790_" class="st1" d="M1562.2,852.9c-42.5,79.8-122.4,136.7-216.4,147h-275.3v-147H1562.2z"/>
	</g>
	<g id="XMLID_1787_">
		<path id="XMLID_1788_" class="st1" d="M1595.4,721.1c0,22.9-2.9,45.1-8.2,66.4h-516.8v-129h517.7
			C1592.7,678.6,1595.4,699.7,1595.4,721.1z"/>
	</g>
	<g id="XMLID_1785_">
		<path id="XMLID_1786_" class="st1" d="M1005,440.8v559.1H744.9c-140.1-15.4-249.6-134.5-249.6-278.7
			c0-154.7,125.9-280.4,280.5-280.4L1005,440.8L1005,440.8z"/>
	</g>
	<g id="XMLID_1783_">
		<path id="XMLID_1784_" class="st1" d="M1206.8,1070.8v405.1c0,45.9-37.3,83.2-83,83.2h-53.3v-488.3H1206.8z"/>
	</g>
	<g id="XMLID_1781_">
		<path id="XMLID_1782_" class="st1" d="M1005,1070.8v488.3H530.9c-2.6,0-5.1-0.2-7.7-0.5c-0.8,0-1.6-0.2-2.5-0.2
			c-1.6-0.3-3.3-0.5-5.1-0.8c-0.8-0.2-1.6-0.3-2.6-0.5c-2-0.5-3.9-1-5.9-1.5c-0.8-0.3-1.8-0.7-2.8-1c-1.6-0.5-3.3-1.1-4.9-1.8
			c-0.8-0.3-1.8-0.8-2.8-1.1c-1.3-0.7-2.6-1.3-3.9-2c-0.8-0.5-1.6-0.8-2.5-1.3c-1.8-1-3.4-2-5.1-3.1c-0.5-0.3-1-0.5-1.5-0.8
			c-1.8-1.3-3.4-2.6-5.2-3.9c-0.5-0.5-1.1-1-1.6-1.5c-1.3-1.1-2.6-2.3-3.9-3.6c-0.5-0.5-1.1-1-1.6-1.5c-1.3-1.5-2.8-2.9-3.9-4.6
			c-0.3-0.3-0.7-0.5-1-0.8c-1.5-2-2.8-3.8-4.3-5.7c-0.3-0.7-0.8-1.3-1.1-2.1c-1-1.3-1.8-2.6-2.6-4.1c-0.5-0.8-1-1.8-1.5-2.6
			c-0.5-1.3-1.1-2.5-1.8-3.8c-0.3-1-0.8-2-1.3-2.9c0-0.2-0.2-0.3-0.2-0.5c-0.7-1.8-1.3-3.6-2-5.2c-0.3-1-0.5-2-0.8-3.1
			c-0.5-1.5-0.8-3.1-1.3-4.7c-0.2-1-0.3-1.8-0.5-2.8c-0.3-1.6-0.5-3.4-0.8-5.2c0-0.7-0.2-1.3-0.2-2.1c-0.3-2.5-0.5-5.1-0.5-7.5
			c0-0.2,0-0.2,0-0.3c0-0.3,0.2-0.5,0.2-0.8c0-2.1,0-4.2,0.3-6.4c0-0.8,0-1.6,0.2-2.5c0.2-1.8,0.5-3.6,0.8-5.4
			c0.2-0.7,0.2-1.5,0.3-2.1c0.5-2.3,1.1-4.4,1.8-6.5c0.3-1,0.7-2,1-2.9c0.3-1.3,0.8-2.6,1.5-4.1c0.3-0.8,0.7-1.8,1.1-2.8
			c0.7-1.5,1.3-2.9,2-4.2c0.5-0.8,0.8-1.5,1.1-2.1c1.1-2.1,2.3-4.1,3.6-6c0.5-0.7,1-1.1,1.3-1.8c1-1.3,2-2.8,3.1-4.1
			c0.5-0.7,1-1.3,1.6-2c1-1.3,2.1-2.5,3.3-3.8c0.7-0.5,1.1-1.1,1.8-1.6c0.2-0.3,0.3-0.5,0.5-0.7l359.5-345.3H1005V1070.8z"/>
	</g>
</g>
</svg>
