<?xml version="1.0" encoding="utf-8"?>
<!-- Generator: Adobe Illustrator 19.0.0, SVG Export Plug-In . SVG Version: 6.00 Build 0)  -->
<svg version="1.1" id="Logo" xmlns="http://www.w3.org/2000/svg" xmlns:xlink="http://www.w3.org/1999/xlink" x="0px" y="0px"
	 viewBox="-415 266 127.5 30" style="enable-background:new -415 266 127.5 30;" xml:space="preserve">
<style type="text/css">
	.st0{fill:#8A98A6;}
</style>
<path id="Path_12275" class="st0" d="M-347.4,288.5v-9c0-2.6,1.7-4.9,4.2-5.6c1.4-0.3,2.8-0.4,4.2-0.3v3.5c-0.2,0-1.6,0-1.8,0
	c-1.8,0.1-2.9,1.1-2.9,2.7v8.6L-347.4,288.5L-347.4,288.5z"/>
<path id="Path_12276" class="st0" d="M-308.9,274.1c-3.8-1.6-8.2,0.1-9.8,3.9c-0.4,0.9-0.6,1.9-0.6,2.9s0.2,2,0.5,2.9
	c1.6,3.8,5.9,5.7,9.8,4.1c3.8-1.6,5.7-5.9,4.1-9.8C-305.6,276.3-307,274.9-308.9,274.1z M-311.8,285.2c-1.1,0-2.2-0.5-2.9-1.4l0,0
	c-1.5-1.7-1.4-4.4,0.3-6c1.5-1.5,4-1.4,5.5,0.1c0.4,0.4,0.7,0.8,0.8,1.3c0.7,1.5,0.4,3.3-0.7,4.5
	C-309.6,284.7-310.6,285.3-311.8,285.2L-311.8,285.2z"/>
<path id="Path_12277" class="st0" d="M-301.5,288.5v-8.3c-0.1-2.8,1.7-5.3,4.3-6.2c5.2-1.8,9.8,1.4,9.8,6.2v8.3h-3.5v-8.3
	c0.1-1.8-1.3-3.3-3.1-3.4c-0.1,0-0.2,0-0.3,0c-1.8-0.1-3.4,1.3-3.5,3.1c0,0.1,0,0.2,0,0.3v8.2L-301.5,288.5L-301.5,288.5z"/>
<path id="Path_12278" class="st0" d="M-321.2,280.6v-0.1c-0.1-0.9-0.2-1.7-0.5-2.6c-1-2.8-3.8-4.7-6.8-4.6h-3.2v3.8h3.1
	c2-0.1,3.6,1.4,3.8,3.3l0,0l0,0c0,0.1,0,0.2,0,0.2c0,1.1-0.5,2.2-1.3,3s-1.9,1.2-3.1,1.2c-2.4-0.1-4.4-2.1-4.3-4.5v-0.1V266h-3.6
	v14.5c0,4.9,3.2,8.1,8,8c4.2,0.2,7.7-3,8-7.2l0,0C-321.1,281.1-321.2,280.9-321.2,280.6z"/>
<path id="Path_12279" class="st0" d="M-366.2,281.3v0.1c0.1,0.9,0.2,1.7,0.5,2.6c1.1,2.8,3.8,4.6,6.8,4.5h3.2v-3.7h-3.1
	c-2,0.1-3.6-1.4-3.8-3.3l0,0l0,0c0-0.1,0-0.2,0-0.2c0-1.1,0.5-2.2,1.3-3s1.9-1.2,3.1-1.2c2.4,0,4.4,2.1,4.3,4.5v0.1v6.9h3.6v-7
	c0-4.8-3.2-8-8-8c-4.2-0.2-7.7,3-8,7.1L-366.2,281.3z"/>
<path id="Path_12280" class="st0" d="M-368,284.7h-4.8c-2,0.1-3.6-1.4-3.7-3.4c0-0.1,0-0.3,0-0.4c-0.1-2,1.4-3.6,3.4-3.7
	c0.1,0,0.3,0,0.4,0h4.8v-3.8h-4.9c-5.2,0-8.7,4.9-6.7,10.4c1,2.8,3.7,4.7,6.7,4.6h4.9L-368,284.7z"/>
<path id="Path_12281" class="st0" d="M-388.7,273.5h-8.4l8.4,15V273.5L-388.7,273.5z"/>
<path id="Path_12282" class="st0" d="M-388.7,273.5l-13.1-7.5l4.4,7.5H-388.7z"/>
<path id="Path_12283" class="st0" d="M-397.1,273.5l-4.5-7.5l-13.4,7.5H-397.1z"/>
<path id="Path_12284" class="st0" d="M-414.9,288.5h8.4l-8.4-15V288.5z"/>
<path id="Path_12285" class="st0" d="M-414.9,288.5l13.1,7.5l-4.4-7.5H-414.9z"/>
<path id="Path_12286" class="st0" d="M-406.5,288.5l4.5,7.5l13.4-7.5H-406.5z"/>
</svg>
