<?xml version="1.0" encoding="utf-8"?>
<!-- Generator: Adobe Illustrator 19.0.0, SVG Export Plug-In . SVG Version: 6.00 Build 0)  -->
<svg version="1.1" id="Layer_1" xmlns="http://www.w3.org/2000/svg" xmlns:xlink="http://www.w3.org/1999/xlink" x="0px" y="0px"
	 viewBox="0 0 645.1 583.5" style="enable-background:new 0 0 645.1 583.5;" xml:space="preserve">
<style type="text/css">
	.st0{fill:#F8FBFF;}
	.st1{fill:#E9F1FF;}
	.st2{fill:#95AEE5;}
	.st3{fill:#87BCE8;}
	.st4{fill:#B3E0C6;}
	.st5{fill:#8CAF9A;}
	.st6{fill:#4E7FC6;}
	.st7{fill:#80AEFF;}
	.st8{fill:#FFFFFF;}
	.st9{fill:#5A8DAF;}
	.st10{fill:#ABC1DD;}
	.st11{fill:#25313C;}
	.st12{fill:none;stroke:#25313C;stroke-width:4;stroke-miterlimit:10;stroke-dasharray: 1600;stroke-dashoffset: 0;}
	.st13{fill:#FF00FF;}
    
    g#XMLID_64_{transform: translate(0, 50px);animation:float 3s ease-out infinite;}
    ellipse#XMLID_3_{animation:ninja 3s ease-out infinite;fill:#25313C;}
    
    @keyframes dash {0%{stroke-dashoffset: 1600;}50%{stroke-dashoffset: 0;}100%{stroke-dashoffset: 1600;}}
    @keyframes float{0%{transform: translate(0, 50px);}50%{transform: translate(0, -25px);}100%{transform: translate(0, 50px);}}
    @keyframes ninja{0%{opacity:1;}50%{opacity:.1;}100%{opacity:1;}}
    
</style>
<g id="XMLID_64_">
	<path id="XMLID_15_" class="st0" d="M420.7,323.6l26-26.6l71.5-60.8c0,0,5.1-34.7,18.3-34.9c0,0,18,0.6,6.3,25c0,0-1.3,6.6,1.3,7.2
		c0,0,9.9-0.7,17.2,5.8c0,0,6.4-7.7,5.6-13s-5.8-10.4-8.8-11.3s-13-2.9-12.1-11s8.4-12.8,16.1-9.8c0,0,24.9,6.2,26,31.6
		c0,0,8-10,6.6-26.9c0,0,2.4-6.6,9-7c0,0,14.1,0.5,12.8,17.4c0,0,5-8.4,13.8-4.7c0,0,20,6.3-15.8,61.4c0,0-18.8,22.1-35.7,25.1
		l-54.6,49.8c0,0-11.8-29.3-47.1-30.8c0,0-12-2.8-34.3,6.4C420.5,325.4,420.7,323.6,420.7,323.6z"/>
	<path id="XMLID_14_" class="st1" d="M520.7,334.3l53.3-52.8c0,0,30.2,4.6,60.3-68.9c0,0,5.1,51.2-55.5,78.4l-54.6,49.8L520.7,334.3
		z"/>
	<path id="XMLID_13_" class="st2" d="M498.5,253.4L440.3,317l-19.6,6.6C420.7,323.6,488.5,252.9,498.5,253.4z"/>
	<path id="XMLID_1_" class="st3" d="M498.5,253.4l-64.5,58H211l-65.5-58l62.4-42c0,0,8.3-13.1,38.9-16.1s126.2,1.3,126.2,1.3
		s39.3-4.7,57.4,10.4L498.5,253.4z"/>
	<path id="XMLID_5_" class="st0" d="M335.6,171.5v24c0,0-2.7,12.3-13.3,11.3c0,0-14.7,0.2-14.9-15.6c-0.2-15.8,0.1-14,0.1-14
		s-22.5-21.5-3.1-33.3l16.8,7.2l1.3,9c0,0,4.3-3.3,6.6-0.4c0,0,2.4,3.3-0.2,6.8L335.6,171.5z"/>
	<path id="XMLID_6_" class="st2" d="M324.4,180.2c0,0-12.7,15.6-15.9,16.3l-1-18.1C307.5,178.4,323,181.2,324.4,180.2z"/>
	<path id="XMLID_10_" class="st0" d="M223.3,323.6l-26-26.6l-71.5-60.8c0,0-5.1-34.7-18.3-34.9c0,0-18,0.6-6.3,25
		c0,0,1.3,6.6-1.3,7.2c0,0-9.9-0.7-17.2,5.8c0,0-6.4-7.7-5.6-13s5.8-10.4,8.8-11.3s13-2.9,12.1-11s-8.4-12.8-16.1-9.8
		c0,0-24.9,6.2-26,31.6c0,0-8-10-6.6-26.9c0,0-2.4-6.6-9-7c0,0-14.1,0.5-12.8,17.4c0,0-5-8.4-13.8-4.7c0,0-20,6.3,15.8,61.4
		c0,0,18.8,22.1,35.7,25.1l54.6,49.8c0,0,11.8-29.3,47.1-30.8c0,0,12-2.8,34.3,6.4S223.3,323.6,223.3,323.6z"/>
	<path id="XMLID_11_" class="st1" d="M123.3,334.3L70,281.5c0,0-30.2,4.6-60.3-68.9c0,0-5.1,51.2,55.5,78.4l54.6,49.8L123.3,334.3z"
		/>
	<path id="XMLID_12_" class="st2" d="M145.5,253.4l58.3,63.6l19.6,6.6C223.3,323.6,155.5,252.9,145.5,253.4z"/>
	<path id="XMLID_9_" class="st4" d="M330.8,359.7l-129.7-43.4c0,0-67.3-29.2-84.9,33.5c0,0-21.9,53.1,64.1,78.4l89.6,31.6
		c0,0,0.4-10,6.3-14.7l2.9-4.2l-2.4-6.4c0,0-0.1-17.1,9.8-20.8c0,0-9.2-15.1,2.1-20.9c0,0,6.8-5.9,2.4-17c0,0,1.6-20.8,17.4-14.8
		c0.5,0.2,1.1,0.4,1.6,0.7c17.3,8.1,3.5,5.7,3.5,5.7L330.8,359.7z"/>
	<path id="XMLID_78_" class="st5" d="M264.1,457.7c0,0-1.2-8.7,8.8-19.7c0,0-9.3-18.2,6.9-27c0,0-8.7-17.8,8.7-26.3
		c0,0-15.8-34.1,28.3-29.6l14,4.7l-14,5.8l-3.9,108.4L264.1,457.7z"/>
	<g id="XMLID_27_">
		
			<rect id="XMLID_47_" x="290.8" y="359.9" transform="matrix(0.9673 0.2536 -0.2536 0.9673 118.8235 -60.4268)" class="st6" width="6" height="141.5"/>
	</g>
	<path id="XMLID_19_" class="st7" d="M316.8,365.5l-3.9,109.9c0,0,0.8,27.5-33.1,23.3l34.6-134.8L316.8,365.5z"/>
	<path id="XMLID_48_" class="st8" d="M308,361.6l-6.7-1.2l-8.7,7.7l-1,5.9v6.5l0.5,4.8l-0.9,4.8l-4.9,4.4l-2.8,3.4l-0.8,3.9v3.9
		l2,4.5l1.9,3.8l-4.1,3.1l-3.8,6.5c0,0-4,9.3,0.7,17.5l-3.9,4.8l-4.7,7v6.8l2.2,9.1l-1.9,3.4l-5.4,4.5l-3.1,8l0.7,5.2l3.8,3.8
		l6.1,3.3L308,361.6z"/>
	<path id="XMLID_49_" class="st4" d="M316.8,365.5l-3.9,109.2l26.8-9.1l75.5-24.5l74-23.5c0,0,27-9.7,35.7-31.7
		c8.7-22,2-35.3,2-35.3s-10.5-43.2-59-41.5L316.8,365.5z"/>
	<polygon id="XMLID_50_" class="st4" points="336.5,465.5 333,482.2 312.9,475.4 	"/>
	<polygon id="XMLID_46_" class="st5" points="314.9,476.7 335.6,470.9 335.6,466.5 312.6,473.9 	"/>
	<polygon id="XMLID_77_" class="st4" points="209.9,308.7 434,311.5 421.6,325.1 330.8,359.7 223.3,323.6 	"/>
	<polygon id="XMLID_79_" class="st5" points="221.4,310 330.8,348.2 434,311.5 421.8,323.7 330.8,359.7 222.3,323.7 209.9,308.7 	
		"/>
	<path id="XMLID_17_" class="st7" d="M337.2,466.5l-4.2,15.8c0,0,12.5,26.6,35.8,15.8c0,0,11.3-1.7,13.5-10c0,0,1.6-10.6-9.4-18.5
		l2.6-15.7L337.2,466.5z"/>
	<polygon id="XMLID_16_" class="st8" points="375.5,453.8 372.9,465.5 373.3,470.1 376.5,473.9 379.5,478.5 381.5,482.2 
		382.4,488.7 379.9,493.2 372.3,495.5 362.4,458.6 	"/>
	<polygon id="XMLID_28_" class="st6" points="362.4,458.2 372.4,495.9 365.8,497.9 356.1,460.6 	"/>
	<path id="XMLID_31_" class="st9" d="M230.7,216.2c0,0-17.5,75.2-0.7,92.2h-20C210,308.4,211.4,229.5,230.7,216.2z"/>
	<path id="XMLID_33_" class="st9" d="M413.3,216.2c0,0,17.5,75.2,0.7,92.2h20C434,308.4,432.6,229.5,413.3,216.2z"/>
	<path id="XMLID_32_" class="st10" d="M337,171.1c0,0,8.1-26.1-14.5-33.9c0,0-8.1-18.5-20.3-8.1c0,0-7.8,15.9,18.1,21.5l1,1.5l1.8,7
		c0,0,7.6-3.3,7.1,4.5l-1.1,2.7L337,171.1z"/>
	<g id="XMLID_7_">
		<path id="XMLID_8_" class="st11" d="M324.9,162.2c0.3-0.1,0.5-0.1,0.8,0c0.3,0.1,0.4,0.3,0.5,0.6c0.1,0.4,0.1,0.8-0.2,1.1
			c-0.2,0.2-0.2,0.5,0,0.7c0.1,0.1,0.2,0.1,0.3,0.1c0.1,0,0.3-0.1,0.4-0.2c0.5-0.6,0.7-1.4,0.4-2.1c-0.2-0.5-0.6-0.9-1.1-1.1
			c-0.5-0.2-1-0.3-1.6-0.1c-0.3,0.1-0.4,0.4-0.3,0.6C324.4,162.2,324.6,162.3,324.9,162.2z"/>
		<polygon id="XMLID_20_" class="st11" points="305.2,160.1 303.1,158.8 308.5,150.2 306.8,149.1 300.3,159.5 304.1,161.8 		"/>
		<path id="XMLID_21_" class="st11" d="M310,161.4h-2c0,1-0.1,1.9-0.7,2.2c-0.7,0.4-2.1-0.2-2.7-0.5l-0.5,0.9l-0.5,0.9
			c0.2,0.1,1.6,1,3.1,1c0.5,0,1.1-0.2,1.6-0.4C309.4,164.7,310,163.4,310,161.4z"/>
		<circle id="XMLID_22_" class="st11" cx="310" cy="156.6" r="1.3"/>
		<circle id="XMLID_24_" class="st11" cx="301" cy="153.6" r="1.3"/>
		<path id="XMLID_25_" class="st11" d="M311.8,151.8c0.9,0.3,1.5,1,1.7,1.9c0.3,1.2,2.3,0.7,1.9-0.5c-0.4-1.6-1.6-2.8-3.1-3.3
			C311.1,149.5,310.5,151.4,311.8,151.8z"/>
		<path id="XMLID_26_" class="st11" d="M301.3,150.1c0.4,0.2,1.2,0.1,1.4-0.4c0.4-1,1.2-1.5,2.2-1.7c0.5-0.1,0.8-0.7,0.7-1.2
			c-0.2-0.6-0.7-0.8-1.2-0.7c-1.5,0.3-2.8,1.3-3.4,2.6C300.8,149.2,300.8,149.8,301.3,150.1z"/>
		<path id="XMLID_30_" class="st11" d="M637.2,208.8c-1.5-4-5-6.7-9.2-7.2c-3.4-0.4-6.7,0.8-9.1,3.2c-1.4-9.3-5.9-14.5-12.9-14.8
			c-6.6-0.2-11,3.5-11.9,9.8c-0.3,2.5-0.3,4.8-0.3,7c0,4,0,7.9-2,11.9l-0.3,0.5c-0.4,0.8-0.8,1.6-1.3,2.5c-2-8.6-6.5-20.2-17-24.9
			c-4.2-2.2-14.8-7-21.8-3.8c-3,1.4-5,4-5.8,7.9c-0.1,0.6-0.2,1.2-0.3,1.8c-4.4-3.1-8.5-3.8-12.2-2.1c-11.2,5-14.4,30.5-14.9,35
			c-6.7,5.3-13,10.4-18.8,15.2L481,239.3l5-4.7l-2.1-2.2l-5.5,5.2l-54.4-34.8c-9.6-6.1-20.7-9.4-32-9.4h-53.6c0,0-0.9-0.7-0.9-1.1
			v-21.4c1-2.6,7.3-26.7-13.9-34.2c-0.3-0.1-0.4-0.3-0.5-0.6c-1-2.3-4.7-9.8-11.3-11.2c-1.9-0.4-3.7-0.2-5.6,0.5
			c1.7-1.4,4-2.3,6.8-2.4c1.3,0,2,0.2,2.1,0.2l0.4-1.5l0.4-1.5c-0.1,0-1.1-0.3-2.8-0.3c-6.3,0.1-11.6,4.1-13.3,10.2
			c-1.3,4.7-0.3,9.4,2.5,12.9c-2.8,1.4-5,4-5.9,7l-0.1,0.2c-1.1,3.7-1.6,7.7-0.7,11.7c1.8,7.8,5,13.3,10,16.4v15H249
			c-11.7,0-22.9,3.4-32.7,9.8l-50.7,33.6l-6.6-6.4l-2.1,2.1l6.1,6l-17.9,11.9c-5.7-4.7-11.8-9.6-18.2-14.7c-0.5-4.5-3.8-30-15-35
			c-3.7-1.7-7.8-0.9-12.2,2.1c-0.1-0.6-0.2-1.2-0.3-1.8c-0.9-3.8-2.8-6.5-5.8-7.8c-7-3.2-17.6,1.6-21.7,3.7
			c-10.6,4.7-15.1,16.4-17.1,25c-0.5-0.9-0.9-1.7-1.3-2.5l-0.3-0.5c-2-4-2-7.9-2-11.9c0-2.2,0-4.5-0.3-7c-0.8-6.4-5.2-10.1-11.9-9.8
			c-6.9,0.2-11.4,5.5-12.9,14.8c-2.4-2.3-5.7-3.5-9.1-3.2c-4.3,0.5-7.7,3.1-9.2,7.2c-5.7,15.1,11,41.8,12.3,43.9
			c0.5,1.1,1,2.1,1.5,3.2c14.8,29.7,38.5,35.2,42.5,36c18.9,21.8,43.3,41.5,53.9,49.7c-0.7,1.6-1.3,3.2-1.9,4.9
			c-4.8,14.4-3.7,29.8,3.1,43.4c6.8,13.6,18.5,23.7,32.9,28.5l117.9,43c0,0.2,0.1,0.3,0.1,0.5c0.9,3.6,1.7,6.9,0.2,8.7
			c-0.3,0.4-0.8,0.7-1.3,1l-0.4,0.3c-4.5,3.1-7.8,9.8-7.5,15.2c0.2,3.7,1.9,6.4,4.8,8.1c1.7,0.9,3.5,1.7,5.3,2.4l2.4,0.9
			c1.9,0.7,3.9,1.3,5.8,1.9c1,0.3,2,0.6,3,1l0.1,0c0.2,0.1,1.9,0.4,4.5,0.4c7.3,0,14.1-3.1,19.3-8c2.2-2.1,4.3-4.4,5.8-7
			c0.8-1.3,1.4-2.8,1.7-4.3c0.1-0.5,0.6-4.7,0.3-4.8L332,484c8.1,15.4,20.3,17.6,26.7,17.6c2.6,0,4.2-0.4,4.2-0.4l0.1,0
			c1-0.3,2-0.6,3-0.9c4.6-1.4,9.4-2.9,13.6-5.2c3-1.6,4.7-4.4,4.8-8.1c0.3-5.5-3-12.1-7.5-15.3l-0.4-0.2c-0.5-0.3-1-0.7-1.3-1
			c-1.5-1.8-0.7-5.1,0.2-8.7c0.6-2.2,1.1-4.5,1.2-6.6l115-36.9c29.8-9.9,45.9-42.2,36-71.9c-0.5-1.4-1-2.8-1.6-4.2
			c10.7-8.3,35.5-28.2,54.8-50.4c4.1-0.8,27.7-6.3,42.5-36c0.5-1.1,1-2.1,1.5-3.2C626.2,250.6,642.8,224,637.2,208.8z M546.3,223.5
			c2.1-4.3,2.8-8,2.8-10.9c1,0.8,2.1,1.5,3.4,2c1.4,0.6,2.9,1,4.3,1.5c2.7,0.8,5.2,1.5,6.9,3.4c4.5,5,2.9,12.9-1.6,17.8
			c-4.2-3.7-10.1-5.8-15.2-6.3c-0.8-0.1-1.3-0.4-1.6-1C544.7,228.4,545.3,225.4,546.3,223.5L546.3,223.5z M320.7,137.2
			c0.5,1,1.3,1.8,2.5,2.3c16.8,6,14.1,23.7,12.8,29.1c-1.4-0.8-3.4-2.2-5.2-3.7c0.4-0.7,0.6-1.5,0.6-2.4c0-2.9-2.3-5.2-5.2-5.2
			c-0.7,0-1.3,0.1-2,0.4c-4.1-6.9,3.2-13,3.5-13.2l-0.9-1.2l-0.9-1.2c-1.7,1.4-3.9,3.9-5.1,6.9c-3.3-0.9-6.2-1.8-8.7-3
			c-1.1-4.7-0.2-11.5,5.3-14.3C319.2,133.9,320.3,136.4,320.7,137.2z M313,128.2c1.1,0.5,2.1,1.2,2.9,2c-5,2.9-7,9.2-6.1,14.8
			c-0.8-0.4-1.6-0.8-2.3-1.3c-0.3-0.2-0.5-0.4-0.8-0.5c-0.9-3.4-0.5-7.4,1.1-10.3C309,130.7,310.8,129.1,313,128.2z M302.6,131.1
			c2.5-2.3,5-3.5,7.3-3.5c-1.6,1.1-2.9,2.5-3.9,4.3c-1.4,2.6-2,5.8-1.7,8.9C302,137.7,301.9,133.9,302.6,131.1z M299,161.3
			c-0.8-3.5-0.8-7,0.2-10.2l0.1-0.2c0.8-2.6,2.8-4.7,5.4-5.6c0.4,0.3,0.8,0.6,1.3,0.9c3.6,2.3,8.3,4.2,14.1,5.7
			c-0.3,2.4,0.1,5,1.8,7.7c-0.6,0.8-0.9,1.9-0.9,3c0,0.6,0.5,1,1,1s1-0.4,1-1c0-1.8,1.5-3.2,3.2-3.2c1.8,0,3.2,1.5,3.2,3.2
			c0,1.8-1.5,3.2-3.2,3.2c-0.5,0-1,0.5-1,1s0.5,1,1,1c0.9,0,1.3-0.3,2.1-0.7c1.5,1.2,4.4,3.6,6.4,4.6v20.6c0,7.2-5.8,13-13,13
			s-13-5.8-13-13v-12.4c3,1,5.9,1.4,8.2,1.4c4.1,0,7.3-1,7.5-1.1l-0.9-2.8c-0.1,0-7.9,2.7-14.9-1.2
			C303.8,173.5,300.7,168.5,299,161.3z M165.3,240.7l38.7,37.9l2.1-2.1L167.8,239l50.1-33.3c9.2-6,20-9.3,31-9.3h58.1
			c1.9,7,8.1,11.8,15.4,11.8s13.5-4.8,15.4-11.8h54.2c10.8,0,21.3,3.1,30.4,8.9l53.7,34.4l-37.7,35.5l2.1,2.2l38.3-36l18,11.5
			c-31.4,25.8-50.7,44-61.8,55.2c0.8-76.1-20-91.2-20.9-91.8l-1.7,2.5c0.2,0.2,20.6,15.6,19.6,91.3l-220.6-2.4
			c1.8-72,21-88.8,21.2-88.9l-1.9-2.3c-0.8,0.7-20.1,17.2-22.3,89.5c-12.1-11.7-31.5-29.4-60.9-53.5L165.3,240.7z M423.5,322.8
			l-4.9,2.7c0,0,0.5-0.5,1.2-1.3L331,358l-106.2-35.3c-1-1.1-4.5-5.1-11.6-12.1l217.1,2.4c-4.1,4.3-8.5,9-10.5,11.2L423.5,322.8z
			 M98.7,223.6c1.1,1.8,1.6,4.8,0.9,6.3c-0.3,0.6-0.8,0.9-1.6,1c-5.1,0.5-11,2.6-15.2,6.3c-4.4-4.9-6.1-12.8-1.6-17.8
			c1.7-1.9,4.3-2.6,6.9-3.4c1.4-0.4,2.9-0.8,4.3-1.5c1.3-0.6,2.4-1.3,3.4-2C95.8,215.5,96.5,219.1,98.7,223.6L98.7,223.6z M20.9,248
			c-4.3-7.6-14.4-27-10.2-38.2c1.1-3,3.6-4.9,6.7-5.3c3.2-0.3,6.2,1.1,8,3.8c2.5,3.9,4.6,10,6.3,18.5c-4.3,1.8-7.8,6.1-9.3,10.7
			C21.3,240.7,20.8,244.2,20.9,248z M66.1,289.5l-0.4-0.4l-0.6-0.1c-0.3,0-25.5-4-40.7-34.2c-1-6.2-0.8-11.6,0.8-16.2
			c1.8-5.3,6.5-10.3,11.8-9.3c5.5,1,7.5,8.1,7.5,13.9c0,6.4,1.8,12.3,5.1,17.1c1.6,2.3,3.1,3.7,4.4,4.3l1.1-2.8
			c-0.5-0.2-1.5-0.9-3.1-3.2c-3-4.3-4.5-9.6-4.6-15.4c0-7.3-2.7-15.5-10-16.9c-1-0.2-2-0.2-3-0.1c-1.6-7.8-3.5-13.6-5.8-17.8
			c0.5-7,2.7-15.2,10.3-15.4c5.1-0.2,8.2,2.3,8.8,7.2c0.3,2.3,0.3,4.5,0.3,6.6c0,4.2,0,8.6,2.3,13.2l0.3,0.5
			c2.5,5.2,6.4,13,12.9,14.3l0.6-2.9c-2.9-0.6-5.3-3.2-7.3-6.2c1.4-7.9,5.3-21.3,16.2-26.2c3-1.6,13.3-6.4,19.2-3.7
			c2.1,1,3.5,2.9,4.2,5.8c1,4.6-0.8,8.2-5.3,10.2c-1.2,0.5-2.5,0.9-3.9,1.3c-3,0.8-6.1,1.7-8.3,4.2c-5.7,6.3-3.7,16,1.7,22
			c-0.8,1-1.5,2-2.1,3.1c-3.1,6.2-2.4,13.8,2.1,22.7l2.7-1.3c-4-8-4.7-14.7-2.1-20c3-6,10.7-9.3,17-10c1.8-0.2,3.2-1.1,4-2.6
			c1.3-2.6,0.5-6.6-0.9-9.1c-5.1-10.6-0.9-15.9-0.3-16.5c3.7-2.7,6.9-3.5,9.8-2.2c8.6,3.8,12.5,25.3,13.3,33.2l0.1,0.6l0.5,0.4
			c58.1,46.2,85.3,73.3,94.5,83.1l-30.9-10.3c-5.8-2-11.9-2.9-18-2.9c-21.7,0-41.2,12.3-50.8,31.3
			C108.5,330.4,84.6,310.9,66.1,289.5z M269.4,452.2c-0.5,1.8-0.5,3.7-0.1,5.7l-116.1-42.4c-13.7-4.5-24.7-14.1-31.2-27
			c-6.4-12.9-7.5-27.5-2.9-41.1c7.3-22,27.9-36.9,51.1-36.9c5.8,0,11.5,0.9,17,2.8l139.4,46.4l-9.7,3.7c-1-0.3-2.3-0.9-3.7-1.4
			c-4.3-1.8-9.3-3.8-12.4-3.1c-0.4,0.1-0.8,0.2-1.2,0.4c-4.6,2.1-9.4,8.8-10,13.9c-0.3,2.4,0.3,4.8,0.9,7.2c0.9,3.4,1.7,6.3-0.5,8.9
			c-0.9,1.1-2,1.9-3.1,2.8c-2.1,1.7-4.3,3.4-5.2,6.6c-1.4,5,1,10.7,2.8,14.4c-4.2,2.9-7.3,7.6-8.6,13.1c-1.2,5.2-0.5,10.5,1.7,14.8
			C274.3,443.5,269.6,451.5,269.4,452.2z M272,494.6c-1.6-0.6-3.1-1.3-4.6-2.1c-2-1.1-3.2-3-3.3-5.6c-0.2-4.5,2.6-10.1,6.2-12.6
			l0.4-0.3c0.6-0.4,1.3-0.9,1.9-1.6c2.5-3,1.4-7.2,0.4-11.4c-0.7-2.9-1.5-5.9-0.9-8c0,0,5.3-9.3,9.2-12c-2.7-3.9-3.6-9.2-2.4-14.3
			c1.2-5.2,4.2-9.5,8.3-11.9l1.2-0.7l-0.6-1.3c-1.6-3.1-4.5-9-3.3-13.4c0.7-2.3,2.3-3.6,4.2-5.1c1.2-0.9,2.5-1.9,3.6-3.3
			c3.1-3.8,2-7.9,1.1-11.6c-0.6-2.1-1.1-4.2-0.9-6c0.5-4.1,4.7-9.9,8.3-11.6c0.2-0.1,0.4-0.2,0.6-0.2c1.1-0.3,2.9,0.1,4.8,0.7
			L272,494.6z M278.7,496.9c-1.3-0.4-2.6-0.8-3.8-1.3l34.3-132.1c1,0.4,2,0.8,2.9,1.2c0.3,0.1,0.5,0.2,0.8,0.3L278.7,496.9z
			 M311.1,476.3l0.2-0.1l-0.2,6.2c-10,19.3-26.4,16.2-27.6,15.9c-0.6-0.2-1.2-0.4-1.8-0.6l33.8-130.3L311.1,476.3z M332,480.8
			l-16.5-6l19.3-6.2L332,480.8z M362.2,498.4c-1.3,0.3-17.6,3.3-27.5-15.8l3.5-15l16.9-5.4l9.2,35.6
			C363.6,497.9,362.9,498.2,362.2,498.4z M367.2,496.8l-9.2-35.6l3.6-1.2l9.2,35.6C369.6,496.1,368.4,496.5,367.2,496.8z
			 M374.9,474.1l0.3,0.2c3.7,2.5,6.5,8.2,6.2,12.6c-0.1,2.6-1.2,4.5-3.3,5.6c-1.5,0.8-3,1.5-4.6,2.1l-9.2-35.5l9.1-2.9
			c-0.2,1.5-0.6,3.2-1,4.9c-1,4.1-2.1,8.4,0.4,11.4C373.5,473.2,374.3,473.7,374.9,474.1z M490.7,415.5l-141.2,45.3l-11.5,3.7l-3,1
			l-20.6,6.6l4-106l11.2-4.3l5.3-2l3-1.2l6-2.3l112.7-43c28.2-9.4,58.7,5.9,68.1,34.1S518.8,406.2,490.7,415.5z M620.5,254.8
			C605.3,285,580,289,579.8,289l-0.6,0.1l-0.4,0.4c-18.8,21.8-43.1,41.5-54.1,50c-5.4-11.2-14.3-20.3-25.7-25.9
			c-13.6-6.8-29-7.9-43.5-3.1l-29.2,11.1c6.4-7.3,31.2-34,94-84l0.5-0.4l0.1-0.6c0.8-7.9,4.6-29.4,13.2-33.2c2.9-1.3,6-0.5,9.8,2.2
			c0.6,0.7,4.8,6-0.3,16.5c-1.4,2.5-2.2,6.5-0.9,9.1c0.8,1.5,2.1,2.4,4,2.6c6.3,0.6,14,4,17,10c2.6,5.2,1.9,11.9-2,19.8l2.7,1.3
			c4.4-8.8,5.1-16.4,2-22.5c-0.6-1.1-1.3-2.2-2.1-3.1c5.4-5.9,7.3-15.7,1.7-22c-2.3-2.5-5.4-3.4-8.3-4.2c-1.4-0.4-2.7-0.8-3.9-1.3
			c-4.5-2-6.3-5.6-5.3-10.2c0.7-2.9,2-4.8,4.2-5.8c5.9-2.8,16.2,2.1,19.3,3.7c10.8,4.8,14.7,18.3,16.1,26.2c-1.9,3-4.3,5.6-7.3,6.2
			l0.6,2.9c6.5-1.3,10.3-9.1,12.9-14.3l0.3-0.5c2.3-4.7,2.3-9,2.3-13.2c0-2.1,0-4.4,0.3-6.6c0.6-4.9,3.7-7.4,8.8-7.2
			c7.7,0.3,9.9,8.4,10.3,15.4c-2.3,4.1-4.2,10-5.8,17.8c-1-0.1-2-0.1-3,0.1c-7.3,1.3-9.9,9.6-10,16.9c0,5.8-1.6,11.1-4.6,15.4
			c-1.6,2.4-2.7,3-3.1,3.2l1.1,2.8c1.4-0.6,2.8-2,4.4-4.3c3.3-4.8,5.1-10.7,5.1-17.1c0-5.8,2-12.9,7.5-13.9c5.3-1,10.1,4.1,11.8,9.3
			C621.3,243.1,621.5,248.6,620.5,254.8z M624.1,248c0-3.8-0.5-7.3-1.5-10.4c-1.5-4.5-5-8.9-9.3-10.7c1.7-8.5,3.8-14.6,6.3-18.5
			c1.8-2.7,4.8-4.2,8-3.8c3.1,0.3,5.6,2.3,6.7,5.3C638.5,221,628.5,240.4,624.1,248z"/>
		
			<rect id="XMLID_374_" x="153.7" y="346.7" transform="matrix(0.9344 0.3562 -0.3562 0.9344 138.389 -55.1625)" class="st11" width="130.6" height="3"/>
		
			<rect id="XMLID_375_" x="427.8" y="282.3" transform="matrix(-0.3529 -0.9357 0.9357 -0.3529 254.9484 872.8071)" class="st11" width="3" height="131.9"/>
	</g>
</g>
<circle id="XMLID_36_" class="st12" cx="315.4" cy="46.8" r="35.9"/>
<polyline id="XMLID_37_" class="st12" points="323.8,26.5 315.4,46.8 323.8,56.7 "/>
<line id="XMLID_40_" class="st12" x1="308.7" y1="15.3" x2="309.7" y2="20.7"/>
<line id="XMLID_80_" class="st12" x1="347.3" y1="42.3" x2="341.9" y2="43"/>
<line id="XMLID_81_" class="st12" x1="317.6" y1="79" x2="317.4" y2="73.5"/>
<line id="XMLID_88_" class="st12" x1="283.2" y1="46.8" x2="288.6" y2="47"/>
<line id="XMLID_41_" class="st12" x1="475" y1="55" x2="455.2" y2="110"/>
<polyline id="XMLID_174_" class="st12" points="450.5,68.2 428.5,83.6 450.5,99.1 "/>
<polyline id="XMLID_98_" class="st12" points="450.5,68.2 428.5,83.6 450.5,99.1 "/>
<polyline id="XMLID_175_" class="st12" points="477.5,68.2 499.5,83.6 477.5,99.1 "/>
<path id="XMLID_176_" class="st12" d="M151.5,100.7c-2.6,22.6-19.1,12.8-21.1,4.1c-4.1-18,12.4-23,12.4-23s9.3,28.4,18.4,21.4
	s8-27.4-10.9-31.4s-40.3,12.9-33.9,35.9s39.9,24.5,50.3,6.1"/>
<ellipse id="XMLID_3_" class="st13" cx="330" cy="564" rx="189.5" ry="9.5"/>
</svg>
