<?xml version="1.0" encoding="utf-8"?>
<!-- Generator: Adobe Illustrator 19.0.0, SVG Export Plug-In . SVG Version: 6.00 Build 0)  -->
<svg version="1.1" id="layer" xmlns="http://www.w3.org/2000/svg" xmlns:xlink="http://www.w3.org/1999/xlink" x="0px" y="0px"
	 viewBox="-127 207 599.9 118.4" style="enable-background:new -127 207 599.9 118.4;" xml:space="preserve">
<style type="text/css">
	.st0{fill:#8A98A6;}
</style>
<path class="st0" d="M472.9,269.6v-0.9c0-10.5-9.1-19.3-20.3-19c-12.4,0-21.1,10-21.1,22.1v1.7h0.2c0.5,11.6,10.5,20.7,22.2,20
	c5.4,0,10.5-1.6,14.7-5.1c1.2-0.9,1.6-2.1,1.6-3.5v-0.2c0-2.6-2.1-4.6-4.7-4.6c-0.9,0-2.1,0.2-2.8,0.9c-2.6,1.9-5.6,3-8.7,2.8
	c-5.1,0.2-9.6-3.3-10.3-8.4h24.1C470.8,275.2,473.2,272.6,472.9,269.6z M443.6,268.4c0.9-5.6,4.2-9.1,9.1-9.1s8.2,3.7,8.9,9.1H443.6
	z M421.1,249.8c-2.6,0-4.9,1.6-5.6,4.2l-9.5,24.6l-9.1-24.4c-0.7-2.5-3-4.4-5.8-4.4c-3,0-5.6,2.3-5.8,5.6c0,0.9,0.2,1.9,0.7,2.8
	l13.1,30c1,3,3.5,5.1,6.8,5.3h0.7c3-0.2,5.8-2.1,7-5.1l12.6-30c0.5-0.9,0.7-1.9,0.7-2.8v-0.2C426.9,252.4,424.4,249.8,421.1,249.8z
	 M374.8,254.9c-3.5-3-8.2-4.9-14.7-4.9c-4.7-0.2-9.2,0.7-13.6,2.1c-1.9,0.7-3,2.6-2.8,4.6c0,2.7,2.3,4.8,5.1,4.6
	c0.4,0,1.1,0,1.6-0.2c2.8-1,5.6-1.2,8.4-1.2c6.1,0,9.1,2.6,9.1,7.7v0.7c-3.3-1.1-6.8-1.6-10.3-1.6c-10.1,0-17.1,4.4-17.1,13.7
	c0,8.4,6.8,13,14.5,13c4.9,0.3,9.6-1.8,12.9-5.3c0.2,3,2.8,5.1,5.8,5.1c3.2,0,5.8-2.5,5.8-5.8v-19
	C379.7,263.5,378.1,258.6,374.8,254.9z M368,277.7c0,4.6-4,7.4-9.6,7.2c-3.7,0-6.5-1.9-6.5-5.1v-0.2c0-3.5,3.3-5.8,8.4-5.8
	c2.6,0,5.4,0.7,7.7,1.6V277.7L368,277.7z M330.1,250c-2.8,0-5.1,1.9-5.8,4.6l-6.8,21.6l-6.8-21.6c-0.7-2.8-3.3-4.9-6.3-4.9h-0.7
	c-3,0-5.6,1.9-6.3,4.9l-6.8,21.4l-6.5-21.6c-0.7-2.6-3-4.6-5.8-4.6h-0.2c-3,0-5.4,2.6-5.4,5.6c0,0.9,0.2,1.9,0.5,2.8l10.5,30
	c0.7,3,3.3,5.1,6.5,5.3h0.5c3,0,5.6-2.1,6.5-5.1L304,267l6.8,21.4c0.7,3,3.5,5.1,6.5,5.1h0.5c3.3,0,6.1-2.1,6.8-5.3l10.5-30.2
	c0.2-0.7,0.5-1.6,0.5-2.3v-0.2C335.5,252.4,333.2,250,330.1,250z M266.3,252.1c-7.2,0.5-13.5,5.4-16.1,12.1v-9.8c0-1-1-1.9-1.9-1.9
	c-1.2,0-1.9,0.7-2.1,1.9v37.2c0,1,1,1.9,1.9,1.9c1.2,0,1.9-0.7,2.1-1.9v-14.9c0-13,7.4-19.3,16.1-20.2h0.2c1.2,0,1.9-1.2,1.9-2.1
	C268.4,253,267.5,252.1,266.3,252.1z M235,272.6c0-11.8-7.2-21.1-18.7-21.1c-11,0-19.2,9.3-19.2,21.1v0.3c0,12.7,9.1,21.1,19.9,21.1
	c5.9,0.2,11.7-2.1,15.7-6.5c0.5-0.5,0.7-0.9,0.7-1.4c0-1-1-1.9-1.9-1.9c-0.5,0-1,0.3-1.2,0.5c-3.3,3.5-8.2,5.6-13.1,5.6
	c-7.9,0-15.2-5.8-15.9-15.8h31.8C234.1,274.5,235,273.5,235,272.6z M201,270.7c0.7-8.8,7-15.6,15-15.6c9.1,0,14,7.4,14.5,15.6H201z
	 M188.2,289.1c-1.4,0.5-3,0.7-4.7,0.7c-4.9,0-8.2-2.1-8.2-7.9v-25.8h12.9c0.9,0,1.9-0.7,1.9-1.6s-0.9-1.9-1.9-1.9h-12.9v-11.1
	c0-0.9-0.9-1.9-1.9-1.9h-0.2c-0.9,0-1.6,0.9-1.6,1.9v11.1h-4.4c-0.9,0-1.9,0.7-1.9,1.6s0.9,1.9,1.9,1.9h4.4v26.2
	c0,7.4,5.1,10.9,11.2,10.9c1.9,0,4-0.2,5.8-0.9c0.7-0.2,1.2-0.9,1.2-1.6C189.8,289.8,189.1,289.1,188.2,289.1z M156.3,289.1
	c-1.4,0.5-3.1,0.7-4.7,0.7c-4.9,0-8.2-2.1-8.2-7.9v-25.8h12.9c1,0,1.9-0.7,1.9-1.6c0-1-0.9-1.9-1.9-1.9h-12.9v-11.1
	c0-1-1-1.9-1.9-1.9h-0.2c-0.9,0-1.6,1-1.6,1.9v11.1h-4.4c-1,0-1.9,0.7-1.9,1.6c0,1,1,1.9,1.9,1.9h4.4v26.2c0,7.4,5.1,10.9,11.2,10.9
	c1.8,0,3.9-0.2,5.8-0.9c0.7-0.2,1.2-0.9,1.2-1.6C157.9,289.8,157.2,289.1,156.3,289.1z M122.6,291.1v-36.9h0.1
	c0-1.2-0.9-1.9-1.9-1.9c-1.2,0-1.9,0.9-1.9,1.9v22.5c0,7.7-6.3,13.7-14,13.5c-8.2,0-12.9-5.3-12.9-13.7v-22.3c0-1.2-0.9-1.9-1.9-1.9
	c-0.9,0-1.9,0.9-1.9,1.9v23c0,9.5,6.1,16.5,16.1,16.5c6.1,0.2,11.9-3,14.7-8.4v5.8c0,1.2,0.9,1.9,1.9,1.9c1.2,0,1.9-0.9,1.9-1.9
	H122.6L122.6,291.1z M55.5,237.5H20.2c-1.1,0-2.1,0.9-2,2.2H18V291c0,1.2,0.9,2.1,2.1,2.1c1.1,0,2.1-0.9,2.3-2.1v-23.2h29.9
	c1.2,0,1.9-1,1.9-1.9c0-1.2-1-1.9-1.9-1.9H22.1v-22.5h33.4c1.2,0,1.9-1,1.9-1.9C57.4,238.7,56.7,237.5,55.5,237.5z M71.7,234.7h-0.2
	c-1,0-1.7,0.9-1.7,1.9v54.1c0,1.2,1,1.9,1.9,1.9c1.2,0,1.9-1,1.9-1.9v-53.9C73.6,235.6,72.9,234.7,71.7,234.7z"/>
<path class="st0" d="M-12.2,291.9c-4.9-13.7-16.4-25.8-27.6-34.4c16.3-12.6,50-57.4-2.6-49.5c-23,3.3-56.6,23.9-63.5,47.5
	c-3.5-6.3-7.4-12.4-11.7-18.3c-6.3-8.1-13.5-1.9-6.5,6.5c19.9,24,33.7,52.8,33.7,81.8c1.7-14.4-0.9-32-7-49.2
	c3.1,0.9,6.4,1.4,9.4,1.4c10.8,16.3,27.1,30.2,45.6,36.7C-25.5,320.7-3.1,317-12.2,291.9z M-37.5,213.8c29.2-3-2.1,30.6-12.4,36.9
	c-9.6-5.8-21.5-10.9-33.2-9.5C-74.7,231.2-54.3,215.7-37.5,213.8z M-83.4,248.6c8-0.7,16.6,3.5,23.2,7.7c-6.3,3-13.3,4.9-20.6,5.3
	C-91.5,261.7-93.7,249.6-83.4,248.6z M-42.9,301.2c-13.8-3.7-26.6-13.9-36-24.4c7.7-1.4,15.2-4.2,22.2-8.1c2.6-1.1,5.2-2.8,7.5-4.4
	c8.2,7,16.6,16.2,19.9,26.7C-26.1,302.4-34.9,303.3-42.9,301.2z"/>
</svg>
