<?xml version="1.0" encoding="utf-8"?>
<!-- Generator: Adobe Illustrator 19.0.0, SVG Export Plug-In . SVG Version: 6.00 Build 0)  -->
<svg version="1.1" id="Layer_1" xmlns="http://www.w3.org/2000/svg" xmlns:xlink="http://www.w3.org/1999/xlink" x="0px" y="0px"
	 viewBox="0 0 300 300" style="enable-background:new 0 0 300 300;" xml:space="preserve">
<style type="text/css">
	.st0{fill:url(#XMLID_9_);}
	.st1{fill:url(#XMLID_10_);}
</style>
<g id="XMLID_7_">
	<linearGradient id="XMLID_9_" gradientUnits="userSpaceOnUse" x1="97.6597" y1="168.4229" x2="202.3404" y2="168.4229">
		<stop  offset="0" style="stop-color:#55F1CA"/>
		<stop  offset="1" style="stop-color:#4BCBFA"/>
	</linearGradient>
	<path id="XMLID_11_" class="st0" d="M150,138.8c-28.9,0-52.3,13.3-52.3,29.6S121.1,198,150,198c28.9,0,52.3-13.3,52.3-29.6
		S178.9,138.8,150,138.8z M125.5,179.6c-4.6,0-8.3-4.2-8.3-9.4s3.7-9.4,8.3-9.4c4.6,0,8.3,4.2,8.3,9.4S130.1,179.6,125.5,179.6z
		 M174.1,179.6c-4.6,0-8.3-4.2-8.3-9.4s3.7-9.4,8.3-9.4c4.6,0,8.3,4.2,8.3,9.4S178.7,179.6,174.1,179.6z"/>
	<linearGradient id="XMLID_10_" gradientUnits="userSpaceOnUse" x1="1.447734e-008" y1="150.9837" x2="300" y2="150.9837">
		<stop  offset="0" style="stop-color:#55F1CA"/>
		<stop  offset="1" style="stop-color:#4BCBFA"/>
	</linearGradient>
	<path id="XMLID_8_" class="st1" d="M150,1C67.2,1,0,68.1,0,151s67.2,150,150,150s150-67.2,150-150S232.8,1,150,1z M150,212
		c-38.8,0-70.2-24.7-70.2-55.1c0-14.5,7.2-27.7,18.9-37.5L94,98.1c-1.2-5.4,4.2-9.8,9.2-7.6l29.8,13c5.4-1.1,11.1-1.7,16.9-1.7
		c5.8,0,11.5,0.6,16.9,1.7l29.8-13c5-2.2,10.4,2.2,9.2,7.6l-4.7,21.3c11.7,9.8,18.9,23,18.9,37.5C220.2,187.4,188.8,212,150,212z"/>
</g>
</svg>
