<?xml version="1.0" encoding="utf-8"?>
<!-- Generator: Adobe Illustrator 19.0.0, SVG Export Plug-In . SVG Version: 6.00 Build 0)  -->
<svg version="1.1" id="Layer_1" xmlns="http://www.w3.org/2000/svg" xmlns:xlink="http://www.w3.org/1999/xlink" x="0px" y="0px"
	 viewBox="0 0 496.8 851.4" style="enable-background:new 0 0 496.8 851.4;" xml:space="preserve">
<style type="text/css">
	.st0{fill:url(#XMLID_60_);}
</style>
<linearGradient id="XMLID_60_" gradientUnits="userSpaceOnUse" x1="0" y1="425.7231" x2="496.8462" y2="425.7231">
	<stop  offset="0" style="stop-color:#55F1CA"/>
	<stop  offset="1" style="stop-color:#4BCBFA"/>
</linearGradient>
<path id="XMLID_19_" class="st0" d="M471.6,786V315h-217V0h-16v403h-175c-3.6-14-16.3-24.3-31.3-24.3C14.5,378.7,0,393.2,0,411
	s14.5,32.3,32.3,32.3c15.1,0,27.7-10.3,31.3-24.3h175v166.1c-15,3.6-25.6,16.8-25.6,32.5c0,18.5,15,33.5,33.5,33.5
	s33.5-15,33.5-33.5c0-15.7-11.4-28.9-25.4-32.5V419h112v251.8c-15,3.6-25.5,16.8-25.5,32.5c0,18.5,15,33.5,33.5,33.5
	s33.5-15,33.5-33.5c0-15.7-10.5-28.9-25.5-32.5V403h-128v-72h201v455c-14.5,3.6-25.2,16.7-25.2,32.2c0,18.3,14.9,33.2,33.2,33.2
	s33.2-14.9,33.2-33.2C496.8,802.7,486.1,789.6,471.6,786z M32.3,427.3c-9,0-16.3-7.3-16.3-16.3c0-9,7.3-16.3,16.3-16.3
	S48.6,402,48.6,411C48.6,420,41.3,427.3,32.3,427.3z M264,617.6c0,9.6-7.8,17.5-17.5,17.5s-17.5-7.8-17.5-17.5s7.8-17.5,17.5-17.5
	S264,608,264,617.6z M392.1,703.3c0,9.7-7.9,17.5-17.5,17.5s-17.5-7.9-17.5-17.5s7.9-17.5,17.5-17.5S392.1,693.7,392.1,703.3z
	 M463.6,835.4c-9.5,0-17.2-7.7-17.2-17.2s7.7-17.2,17.2-17.2s17.2,7.7,17.2,17.2S473.1,835.4,463.6,835.4z"/>
</svg>
