<?xml version="1.0" encoding="utf-8"?>
<!-- Generator: Adobe Illustrator 19.0.0, SVG Export Plug-In . SVG Version: 6.00 Build 0)  -->
<svg version="1.1" id="Layer_1" xmlns="http://www.w3.org/2000/svg" xmlns:xlink="http://www.w3.org/1999/xlink" x="0px" y="0px"
	 viewBox="-116 208 726 146" style="enable-background:new -116 208 726 146;" xml:space="preserve">
<style type="text/css">
	.st0{fill:#25313C;}
</style>
<g id="XMLID_2430_">
	<path id="XMLID_2464_" class="st0" d="M60.2,242.8c-17.3,0-31.4,14.1-31.4,31.4v57h12v-32.3c5.4,4.2,12.1,6.8,19.4,6.8
		c17.3,0,31.4-14.1,31.4-31.4S77.5,242.8,60.2,242.8z M60.2,293.8c-10.7,0-19.4-8.7-19.4-19.4c0-10.7,8.7-19.4,19.4-19.4
		c10.7,0,19.4,8.7,19.4,19.4S70.9,293.8,60.2,293.8z"/>
	<path id="XMLID_2463_" class="st0" d="M507.1,274.3c0,17.3,14.1,31.4,31.4,31.4h12.6v-12h-12.6c-10.7,0-19.4-8.7-19.4-19.4
		c0-10.7,8.7-19.4,19.4-19.4h12.6v-12h-12.6C521.2,242.8,507.1,256.9,507.1,274.3z"/>
	<path id="XMLID_2442_" class="st0" d="M323,242.8c-17.3,0-31.4,14.1-31.4,31.4s14.1,31.4,31.4,31.4h25.4v-12H323
		c-8.6,0-15.9-5.6-18.5-13.4h43.9c3.3,0,6-2.7,6-6C354.4,256.9,340.3,242.8,323,242.8z M304.5,268.3c2.5-7.8,9.9-13.4,18.5-13.4
		s15.9,5.6,18.5,13.4H304.5z"/>
	<path id="XMLID_2439_" class="st0" d="M466.3,242.8c-17.3,0-31.4,14.1-31.4,31.4s14.1,31.4,31.4,31.4h25.4v-12h-25.4
		c-8.6,0-15.9-5.6-18.5-13.4h43.9c3.3,0,6-2.7,6-6C497.8,256.9,483.6,242.8,466.3,242.8z M447.9,268.3c2.5-7.8,9.9-13.4,18.5-13.4
		s15.9,5.6,18.5,13.4H447.9z"/>
	<path id="XMLID_2436_" class="st0" d="M133.2,242.8c-17.3,0-31.4,14.1-31.4,31.4s14.1,31.4,31.4,31.4c7.3,0,14.1-2.5,19.4-6.8v6.1
		h12v-30.8l0,0C164.6,256.9,150.5,242.8,133.2,242.8z M133.2,293.8c-10.7,0-19.4-8.7-19.4-19.4c0-10.7,8.7-19.4,19.4-19.4
		c10.7,0,19.4,8.7,19.4,19.4l0,0l0,0C152.6,285,143.9,293.8,133.2,293.8z"/>
	<path id="XMLID_2435_" class="st0" d="M222,261.5v15.3c0,9.3-7.6,16.9-16.9,16.9s-16.9-7.6-16.9-16.9v-34h-12v34
		c0,15.9,13,28.9,28.9,28.9c6.3,0,12.1-2.1,16.9-5.5v4.9c0,11.1-9,20.1-20.1,20.1v12c17.7,0,32.1-14.4,32.1-32.1v-28.3v-15.3v-18.7
		h-12V261.5z"/>
	<path id="XMLID_2434_" class="st0" d="M261.2,249.6v-6.8h-12v31.4l0,0l0,0V305h12v-30.8c0-10.7,8.7-19.4,19.4-19.4h9.6v-12h-9.6
		C273.3,242.8,266.6,245.4,261.2,249.6z"/>
	<path id="XMLID_2433_" class="st0" d="M366.4,259.6L366.4,259.6V305h12v-34.2h19.4v-12h-19.4c0.4-10.4,8.9-18.7,19.4-18.7v-12
		C380.5,228.1,366.4,242.3,366.4,259.6z"/>
	<rect id="XMLID_2432_" x="411.6" y="224.8" class="st0" width="12" height="80.3"/>
	<path id="XMLID_2431_" class="st0" d="M598.4,261.4v-12h-22.5v-19.5h-12V287c0,10.3,8.3,18.6,18.6,18.6h15.9v-12h-15.9
		c-3.6,0-6.6-3-6.6-6.6v-25.6H598.4z"/>
</g>
<g id="XMLID_2053_">
	<g id="XMLID_2427_">
		<path id="XMLID_2428_" class="st0" d="M11,240h-49.6v-15.3H-14C-3.1,224.8,6.4,231,11,240z"/>
	</g>
	<g id="XMLID_2425_">
		<path id="XMLID_2426_" class="st0" d="M10.9,266.3c-4.3,8-12.3,13.7-21.8,14.8h-27.7v-14.8H10.9z"/>
	</g>
	<g id="XMLID_2423_">
		<path id="XMLID_2424_" class="st0" d="M14.2,252.9c0,2.3-0.3,4.5-0.8,6.7h-52v-13h52.1C13.9,248.6,14.2,250.8,14.2,252.9z"/>
	</g>
	<g id="XMLID_2156_">
		<path id="XMLID_2157_" class="st0" d="M-45.2,224.8V281h-26.2c-14.1-1.5-25.1-13.5-25.1-28c0-15.6,12.7-28.2,28.2-28.2
			L-45.2,224.8L-45.2,224.8z"/>
	</g>
	<g id="XMLID_2154_">
		<path id="XMLID_2155_" class="st0" d="M-24.9,288.1v40.7c0,4.6-3.7,8.4-8.4,8.4h-5.4v-49.1H-24.9z"/>
	</g>
	<g id="XMLID_2054_">
		<path id="XMLID_2153_" class="st0" d="M-45.2,288.1v49.1h-47.7c-0.3,0-0.5,0-0.8,0c-0.1,0-0.2,0-0.2,0c-0.2,0-0.3,0-0.5-0.1
			c-0.1,0-0.2,0-0.3,0c-0.2,0-0.4-0.1-0.6-0.1c-0.1,0-0.2-0.1-0.3-0.1c-0.2,0-0.3-0.1-0.5-0.2c-0.1,0-0.2-0.1-0.3-0.1
			c-0.1-0.1-0.3-0.1-0.4-0.2c-0.1,0-0.2-0.1-0.2-0.1c-0.2-0.1-0.3-0.2-0.5-0.3c0,0-0.1,0-0.1-0.1c-0.2-0.1-0.3-0.3-0.5-0.4
			c0,0-0.1-0.1-0.2-0.1c-0.1-0.1-0.3-0.2-0.4-0.4c0,0-0.1-0.1-0.2-0.1c-0.1-0.1-0.3-0.3-0.4-0.5c0,0-0.1,0-0.1-0.1
			c-0.1-0.2-0.3-0.4-0.4-0.6c0-0.1-0.1-0.1-0.1-0.2c-0.1-0.1-0.2-0.3-0.3-0.4c0-0.1-0.1-0.2-0.1-0.3c0-0.1-0.1-0.2-0.2-0.4
			c0-0.1-0.1-0.2-0.1-0.3l0,0c-0.1-0.2-0.1-0.4-0.2-0.5c0-0.1,0-0.2-0.1-0.3c0-0.1-0.1-0.3-0.1-0.5c0-0.1,0-0.2,0-0.3
			c0-0.2,0-0.3-0.1-0.5c0-0.1,0-0.1,0-0.2c0-0.2,0-0.5,0-0.8l0,0c0,0,0,0,0-0.1c0-0.2,0-0.4,0-0.6c0-0.1,0-0.2,0-0.2
			c0-0.2,0-0.4,0.1-0.5c0-0.1,0-0.1,0-0.2c0-0.2,0.1-0.4,0.2-0.7c0-0.1,0.1-0.2,0.1-0.3c0-0.1,0.1-0.3,0.1-0.4s0.1-0.2,0.1-0.3
			c0.1-0.1,0.1-0.3,0.2-0.4c0-0.1,0.1-0.1,0.1-0.2c0.1-0.2,0.2-0.4,0.4-0.6c0-0.1,0.1-0.1,0.1-0.2c0.1-0.1,0.2-0.3,0.3-0.4
			c0-0.1,0.1-0.1,0.2-0.2c0.1-0.1,0.2-0.2,0.3-0.4c0.1,0,0.1-0.1,0.2-0.2c0,0,0,0,0-0.1l36.2-34.7h17.3V288.1z"/>
	</g>
</g>
</svg>
