<?xml version="1.0" encoding="utf-8"?>
<!-- Generator: Adobe Illustrator 19.0.0, SVG Export Plug-In . SVG Version: 6.00 Build 0)  -->
<svg version="1.1" id="Layer_1" xmlns="http://www.w3.org/2000/svg" xmlns:xlink="http://www.w3.org/1999/xlink" x="0px" y="0px"
	 viewBox="171 145 1301 271" style="enable-background:new 171 145 1301 271;" xml:space="preserve">
<style type="text/css">
	.st0{fill:#8A98A6;}
</style>
<path class="st0" d="M369,369.2c-0.1-0.6,0.1-1.2,0.6-1.5s1.1-0.4,1.6-0.1c9,4.6,18.5,8.2,28.2,10.8c0.5,0.1,1.1,0,1.5-0.4
	c4.2-4.1,8.2-8.4,11.9-13c0.4-0.4,0.4-1,0.2-1.6c-3.7-9.5-8.3-18.6-13.9-27.1c-0.3-0.5-0.3-1.1,0-1.6c0.3-0.5,0.9-0.8,1.4-0.8
	c2.6,0.1,5.1,0.2,7.6,0.2c7.8,0,15.6-0.6,23.2-1.9c0.5-0.1,1-0.5,1.2-1c2.1-5.2,4-10.6,5.4-16.1c0.1-0.5,0-1.1-0.4-1.5
	c-7.3-7.4-15.4-14-24.2-19.6c-0.5-0.3-0.8-0.9-0.7-1.5s0.4-1.1,1-1.3c9.9-3.8,19.3-8.7,28.1-14.5c0.5-0.3,0.7-0.8,0.7-1.4
	c-0.2-5.4-0.7-10.9-1.5-16.2c-0.1-0.6-0.5-1-1-1.2c-9.9-3.9-20.2-6.7-30.8-8.4c-0.6-0.1-1.1-0.5-1.3-1.1c-0.2-0.6,0-1.2,0.4-1.6
	c7.7-7.7,14.5-16.2,20.2-25.3c0.3-0.5,0.3-1.1,0.1-1.5c-2.5-5-5.2-9.8-8.3-14.5l-0.1,0.1c-11.1,0.4-22.2,2-33,4.9l-0.4,0.1
	c-0.6,0.2-1.2,0-1.6-0.5c-0.4-0.4-0.5-1.1-0.3-1.6c0.1-0.1,0.1-0.3,0.2-0.4c3.9-10.3,6.6-21,8.1-31.9c0.3-0.1,0.6-0.2,0.9-0.3
	c-4.7-4-9.7-7.6-14.8-10.9l0,0c0,0.6-0.3,1.2-0.9,1.4c-9.6,4.8-18.6,10.6-26.9,17.3L351,184c-0.5,0.4-1.1,0.5-1.6,0.2
	c-0.5-0.2-0.9-0.8-0.9-1.4c0-0.2,0-0.3,0-0.5c-0.6-10.7-2.4-21.2-5.3-31.5c-0.2-0.5,0-1.1,0.4-1.5c0.1-0.1,0.2-0.2,0.3-0.3
	c-6.1-1.7-12.3-3-18.5-3.9l-0.1,0.1c0.4,0.6,0.4,1.4-0.1,1.9c-6.8,8.2-12.7,17.2-17.5,26.7l-0.2,0.4c-0.3,0.5-0.8,0.9-1.4,0.9
	c-0.6,0-1.1-0.3-1.4-0.9l-0.2-0.4c-4.9-9.5-10.8-18.5-17.7-26.7c-0.4-0.4-0.5-1-0.3-1.5c0-0.1,0.1-0.3,0.1-0.4
	c-6.2,0.9-12.3,2.2-18.3,4v0.1c0.6,0.4,0.8,1.1,0.6,1.7c-2.9,10.3-4.6,20.9-5.2,31.6v0.5c0,0.6-0.4,1.1-0.9,1.4
	c-0.5,0.2-1.2,0.2-1.6-0.2l-0.4-0.3c-8.3-6.7-17.3-12.5-26.9-17.2c-0.5-0.2-0.8-0.7-0.9-1.3c0-0.1,0-0.2,0-0.2
	c-5.2,3.3-10.2,7-14.9,11c0.3,0.1,0.6,0.2,0.8,0.3c1.5,10.9,4.3,21.6,8.3,31.8l0.2,0.4c0.2,0.6,0.1,1.2-0.3,1.6
	c-0.4,0.4-1,0.6-1.6,0.5l-0.4-0.1c-10.6-2.8-21.5-4.4-32.5-4.8c-0.1-0.2-0.2-0.4-0.3-0.5c-3.3,5-6.2,10.2-8.8,15.6
	c0.1,0,0.2,0,0.3,0c5.8,9.3,12.7,18,20.5,25.7l0.3,0.3c0.4,0.4,0.6,1,0.4,1.6s-0.7,1-1.3,1.1l-0.5,0.1c-10.5,1.7-20.8,4.5-30.7,8.5
	c-0.5,0.2-0.9,0.7-1,1.2c-0.8,5.4-1.3,10.8-1.5,16.3c0,0.5,0.3,1.1,0.7,1.4c8.8,5.8,18.3,10.6,28.1,14.4c0.6,0.2,0.9,0.7,1,1.3
	c0.1,0.6-0.2,1.2-0.7,1.5c-8.7,5.7-16.8,12.3-24.1,19.7c-0.4,0.4-0.5,1-0.4,1.5c1.5,5.5,3.3,10.9,5.5,16.1c0.2,0.5,0.7,0.9,1.2,1
	c7.5,1.2,15,1.8,22.6,1.8c2.7,0,5.4-0.1,8.2-0.2c0.6,0,1.2,0.3,1.5,0.8c0.3,0.5,0.3,1.1,0,1.6c-5.5,8.5-10.1,17.6-13.7,27.1
	c-0.2,0.5-0.1,1.1,0.2,1.6c3.7,4.6,7.7,8.9,12,13c0.4,0.4,1,0.5,1.5,0.4c9.7-2.7,19.2-6.3,28.1-10.9c0.5-0.3,1.2-0.2,1.6,0.1
	c0.5,0.3,0.7,0.9,0.6,1.5c-1.5,9.9-2.1,19.9-1.6,29.9c0,0.6,0.4,1.1,0.9,1.3c5.3,2.8,10.9,5.2,16.5,7.2c0.5,0.2,1.1,0.1,1.5-0.3
	c7.7-6.3,14.7-13.4,21-21.2c0.4-0.5,1-0.7,1.6-0.6c0.6,0.1,1,0.6,1.2,1.1c2.6,9.6,6.1,18.9,10.6,27.7c0.3,0.5,0.7,0.8,1.3,0.9
	c2.9,0.2,5.9,0.3,8.9,0.3c3.1,0,6.2-0.1,9.3-0.3c0.6,0,1.1-0.4,1.3-0.9c4.4-8.9,8-18.2,10.5-27.8c0.2-0.6,0.6-1,1.2-1.1
	s1.2,0.1,1.6,0.5c6.3,7.7,13.4,14.8,21.1,21.1c0.4,0.4,1,0.5,1.5,0.3c5.6-2.1,11.1-4.5,16.5-7.3c0.5-0.3,0.8-0.8,0.8-1.3
	C371.1,389.1,370.6,379,369,369.2z M418.1,315.9c1.1,0.9,0.5,2.7-0.9,2.8c-2.9,0.2-5.9,0.3-8.9,0.3c-2.3,0-4.6-0.1-6.8-0.2
	c-5.7-0.3-11.3-1-16.9-2c-0.3-0.1-0.6-0.2-0.9-0.5c-4.3-4.6-9-9-13.9-13c-0.5-0.4-0.7-1.1-0.5-1.7c0.2-0.6,0.8-1,1.4-1.1
	c6.4-0.4,12.7-1.2,18.9-2.4c0.3-0.1,0.7,0,1,0.1C400.4,303,409.7,308.9,418.1,315.9L418.1,315.9z M407.1,264.3
	c5.2,0.8,10.3,1.9,15.3,3.4c1.4,0.4,1.6,2.2,0.3,2.9c-9.7,5.1-19.9,9-30.6,11.6c-0.3,0.1-0.7,0-1-0.1c-5.9-2.5-11.9-4.6-18-6.2
	c-0.6-0.2-1.1-0.7-1.1-1.3c-0.1-0.6,0.3-1.3,0.8-1.6c5.7-2.9,11.1-6.2,16.3-9.9c0.3-0.2,0.6-0.3,0.9-0.3
	C395.8,262.9,401.5,263.5,407.1,264.3z M408.2,224.5c-6.7,8.6-14.5,16.3-23.2,22.9c-0.3,0.2-0.6,0.3-0.9,0.3
	c-6.4,0.1-12.9,0.7-19.2,1.7c-0.6,0.1-1.3-0.2-1.6-0.8c-0.3-0.6-0.3-1.3,0.1-1.8c3.9-4.9,7.5-10.1,10.7-15.4
	c0.2-0.3,0.4-0.5,0.7-0.6c10.2-4.3,20.9-7.3,31.9-8.9C408.2,221.7,409.1,223.4,408.2,224.5z M348,208.3c0-0.3,0.2-0.6,0.4-0.9
	c7.5-8,15.9-14.9,25.1-20.8c1.2-0.8,2.7,0.3,2.4,1.7c-2.7,10.6-6.7,20.8-11.9,30.4c-0.2,0.3-0.4,0.5-0.7,0.7
	c-5.7,2.7-11.2,5.8-16.5,9.2c-0.5,0.4-1.2,0.3-1.8,0c-0.5-0.4-0.8-1-0.6-1.7C346.1,220.8,347.2,214.6,348,208.3z M252,195.7
	c4.6,3.7,8.9,7.7,12.9,11.9c0.2,0.2,0.4,0.6,0.4,0.9c0.8,6.3,2,12.4,3.6,18.5c0.2,0.6-0.1,1.3-0.6,1.7c-0.5,0.4-1.2,0.4-1.8,0.1
	c-5.3-3.4-10.8-6.4-16.4-9.1c-0.3-0.1-0.6-0.4-0.7-0.7c-5.3-9.6-9.3-19.8-12-30.3c-0.4-1.4,1.2-2.5,2.4-1.7
	C244,189.6,248.1,192.5,252,195.7z M205.7,224.9c-0.9-1.1,0.1-2.7,1.5-2.5c10.8,1.6,21.3,4.5,31.4,8.7c0.3,0.1,0.6,0.4,0.7,0.6
	c3.3,5.4,6.9,10.6,10.8,15.5c0.4,0.5,0.5,1.2,0.1,1.8c-0.3,0.6-1,0.9-1.6,0.8c-6.2-0.9-12.4-1.5-18.7-1.6c-0.3,0-0.7-0.1-0.9-0.3
	C220.3,241.1,212.5,233.4,205.7,224.9z M191.3,268.2c10.7-3,21.7-4.7,32.7-5c0.3,0,0.7,0.1,0.9,0.3c5.1,3.6,10.5,6.8,16.1,9.7
	c0.6,0.3,0.9,0.9,0.8,1.5c-0.1,0.6-0.5,1.2-1.1,1.3c-6.2,1.7-12.3,3.8-18.2,6.4c-0.3,0.1-0.6,0.2-1,0.1
	c-10.6-2.5-20.9-6.3-30.6-11.4C189.7,270.4,189.9,268.5,191.3,268.2z M212.3,319.2c-5.2,0.3-10.4,0.3-15.6-0.1
	c-1.4-0.1-2-1.9-0.9-2.8c8.4-7,17.6-13,27.5-17.7c0.3-0.1,0.6-0.2,1-0.1c6.2,1.2,12.5,2,18.8,2.3c0.6,0,1.2,0.5,1.4,1.1
	c0.2,0.6,0,1.3-0.5,1.7c-4.9,4-9.5,8.4-13.9,13.1c-0.2,0.2-0.5,0.4-0.9,0.5C223.6,318.2,218,318.9,212.3,319.2z M235.8,354.4
	c-4.7,2.4-9.5,4.5-14.4,6.3c-1.3,0.5-2.6-0.9-2-2.2c4.8-9.8,10.8-19,17.9-27.4c0.2-0.3,0.5-0.4,0.8-0.5c6.2-1.5,12.3-3.3,18.2-5.6
	c0.6-0.2,1.3-0.1,1.7,0.4s0.5,1.2,0.2,1.7c-2.8,5.7-5.3,11.6-7.4,17.6c-0.1,0.3-0.3,0.6-0.6,0.8
	C245.7,348.8,240.8,351.8,235.8,354.4z M271.6,376.9c-3.3,4.1-6.8,7.9-10.5,11.5c-1,1-2.7,0.2-2.7-1.2c0.4-10.9,2.2-21.8,5.3-32.3
	c0.1-0.3,0.3-0.6,0.6-0.8c5-3.8,9.8-8,14.3-12.4c0.5-0.5,1.1-0.6,1.7-0.3c0.6,0.3,1,0.9,0.9,1.5c-0.3,6.4-0.1,12.7,0.4,19.1
	c0,0.3,0,0.7-0.2,1C278.4,367.8,275.1,372.5,271.6,376.9z M280.1,201.9c-0.2-0.3-0.4-0.6-0.4-0.9c-0.9-10.9-0.4-21.8,1.4-32.6
	c0.2-1.4,2.1-1.8,2.9-0.6c2.8,4.2,5.4,8.5,7.7,13c2.7,5.2,5,10.6,7,16.1c0.1,0.3,0.1,0.7,0,1c-1.8,6-3.2,12.2-4.2,18.4
	c-0.1,0.6-0.6,1.1-1.2,1.3c-0.6,0.1-1.3-0.1-1.6-0.7C288,211.6,284.2,206.6,280.1,201.9z M313.4,383c-1.3,5.1-3,10-4.9,14.9
	c-0.5,1.3-2.4,1.3-2.9,0c-4.1-10.2-6.9-20.8-8.3-31.6c0-0.3,0-0.7,0.2-1c3.1-5.6,5.8-11.3,8.1-17.3c0.2-0.6,0.8-1,1.5-1
	c0.6,0,1.2,0.4,1.5,1c2.3,5.9,5,11.7,8.1,17.2c0.2,0.3,0.2,0.6,0.2,1C316,371.9,314.9,377.5,313.4,383z M319,216.3
	c-1-6.2-2.5-12.3-4.3-18.3c-0.1-0.3-0.1-0.7,0-1c3.6-10.3,8.4-20.1,14.4-29.1c0.8-1.2,2.6-0.8,2.9,0.6c1.8,10.7,2.3,21.6,1.5,32.5
	c0,0.3-0.2,0.6-0.4,0.9c-4.1,4.7-7.9,9.8-11.3,15c-0.4,0.5-1,0.8-1.6,0.7C319.6,217.4,319.1,216.9,319,216.3z M332.3,361.8
	c0.5-6.3,0.6-12.6,0.3-19c0-0.6,0.3-1.2,0.9-1.5c0.6-0.3,1.3-0.1,1.7,0.3c4.5,4.5,9.4,8.6,14.4,12.5c0.3,0.2,0.5,0.5,0.6,0.8
	c3.1,10.5,4.9,21.3,5.4,32.2c0.1,1.4-1.7,2.2-2.7,1.2c-7.9-7.6-14.7-16.2-20.5-25.5C332.4,362.5,332.3,362.1,332.3,361.8
	L332.3,361.8z M357.3,324.9c6,2.2,12.1,4.1,18.3,5.5c0.3,0.1,0.6,0.3,0.8,0.5c7.1,8.3,13.2,17.5,18,27.3c0.6,1.3-0.6,2.7-2,2.2
	c-10.3-3.8-20.1-8.8-29.1-15c-0.3-0.2-0.5-0.5-0.6-0.8c-2.1-6-4.6-11.9-7.4-17.6c-0.3-0.6-0.2-1.3,0.2-1.7
	C356.1,324.8,356.7,324.6,357.3,324.9L357.3,324.9z"/>
<path class="st0" d="M570.1,377.6V260c0-7.2,1.4-13.5,4.2-18.9s6.6-9.6,11.4-12.6s10.2-4.5,16.3-4.5c8.9,0,16.1,2.8,21.6,8.5
	s8.2,13.3,8.2,22.9v122.1h52.7V258c0-10.2,2.8-18.4,8.3-24.7c5.5-6.2,13.2-9.4,23.1-9.4c8.7,0,15.9,2.7,21.7,8.2
	c5.8,5.4,8.7,13.6,8.7,24.5v121h54.2V245.9c0-21.2-5.7-37.7-17.1-49.3c-11.6-11.6-26.5-17.4-44.8-17.4c-14.4,0-26.8,3.4-37.3,10.1
	c-10.5,6.8-17.7,15.7-21.7,27h-2c-3.1-11.4-9.4-20.4-18.9-27.1c-9.4-6.7-20.9-10-34.3-10c-13.3,0-24.6,3.3-34.2,9.9
	c-9.5,6.6-16.3,15.7-20.4,27.2h-2.3v-34.5h-51.7v195.8L570.1,377.6L570.1,377.6z M931.7,381.4c19.8,0,36.9-4.2,51.3-12.7
	s25.5-20.3,33.3-35.4c7.8-15.2,11.7-32.8,11.7-52.8c0-20.2-3.9-37.9-11.7-53.1s-18.9-27-33.3-35.4c-14.4-8.5-31.5-12.7-51.3-12.7
	s-36.9,4.2-51.3,12.7s-25.5,20.3-33.3,35.4c-7.8,15.2-11.7,32.9-11.7,53.1c0,20.1,3.9,37.7,11.7,52.8c7.8,15.2,18.9,27,33.3,35.4
	C894.8,377.2,911.9,381.4,931.7,381.4z M931.9,339.3c-9.1,0-16.7-2.6-22.9-7.7s-10.8-12.2-13.9-21.1c-3.1-8.9-4.7-19.1-4.7-30.5
	s1.6-21.5,4.7-30.5c3.1-8.9,7.7-16,13.9-21.2s13.8-7.8,22.9-7.8c9,0,16.5,2.6,22.6,7.8c6,5.2,10.6,12.2,13.7,21.2
	c3.1,8.9,4.7,19.1,4.7,30.5s-1.6,21.5-4.7,30.5c-3.1,9-7.7,16-13.7,21.1C948.4,336.8,940.9,339.3,931.9,339.3z M1117.8,377.6V264.4
	c0.1-8.4,1.7-15.6,4.8-21.6s7.4-10.6,13-13.7s12-4.7,19.3-4.7c10.9,0,19.4,3.4,25.6,10.1c6.2,6.8,9.3,16.1,9.2,28.1v115h54.3V252.9
	c0-15.2-2.8-28.3-8.4-39.3s-13.5-19.5-23.6-25.4s-22-8.9-35.6-8.9c-14.5,0-26.9,3.3-37.1,10s-17.5,15.7-21.8,27.1h-2.3v-34.5h-51.8
	v195.8h54.4L1117.8,377.6L1117.8,377.6z M1375.1,381.4c19.8,0,36.9-4.2,51.3-12.7s25.5-20.3,33.3-35.4c7.8-15.2,11.7-32.8,11.7-52.8
	c0-20.2-3.9-37.9-11.7-53.1c-7.8-15.2-18.9-27-33.3-35.4c-14.4-8.5-31.5-12.7-51.3-12.7s-36.9,4.2-51.3,12.7s-25.5,20.3-33.3,35.4
	c-7.8,15.2-11.7,32.9-11.7,53.1c0,20.1,3.9,37.7,11.7,52.8c7.8,15.2,18.9,27,33.3,35.4C1338.3,377.2,1355.4,381.4,1375.1,381.4z
	 M1375.5,339.3c-9.1,0-16.7-2.6-22.9-7.7c-6.2-5.1-10.8-12.2-13.9-21.1s-4.7-19.1-4.7-30.5s1.6-21.5,4.7-30.5
	c3.1-8.9,7.7-16,13.9-21.2s13.8-7.8,22.9-7.8c9,0,16.5,2.6,22.6,7.8c6,5.2,10.6,12.2,13.7,21.2c3.1,8.9,4.7,19.1,4.7,30.5
	s-1.5,21.5-4.7,30.5c-3.1,8.9-7.7,16-13.7,21.1C1392,336.8,1384.5,339.3,1375.5,339.3z"/>
</svg>
