<?xml version="1.0" encoding="utf-8"?>
<!-- Generator: Adobe Illustrator 19.0.0, SVG Export Plug-In . SVG Version: 6.00 Build 0)  -->
<svg version="1.1" xmlns="http://www.w3.org/2000/svg" xmlns:xlink="http://www.w3.org/1999/xlink" x="0px" y="0px"
	 viewBox="0 0 722 726" style="enable-background:new 0 0 722 726;" xml:space="preserve">
<style type="text/css">
.st0{fill:none;stroke:#87BCE8;stroke-width:3;stroke-miterlimit:10;}
	.st2{fill:#FFFFFF;}
	.st3{fill:none;stroke:#87BCE8;stroke-width:3;stroke-miterlimit:10;}
	.st4{fill:#EBA12A;opacity:0;animation: fade 2s forwards;animation-delay: 1.5s;}
	.st5{fill:#00C3F7;opacity:0;animation: fade 2s forwards;}
	.st6{fill:#9B7DD4;opacity:0;animation: fade 2s forwards;animation-delay: 1s;}
	.st7{fill:#182CD1;opacity:0;animation: fade 2s forwards;animation-delay: .5s;}
	.st8{fill:none;stroke:#25313C;stroke-width:3;stroke-miterlimit:10;stroke-dasharray: 1600;stroke-dashoffset: 1600; animation: craft 4s forwards;animation-delay: .5s;}
    
    @keyframes craft { to {stroke-dashoffset: 0;}}
    @keyframes fade {to{opacity:1;}}
    
    .st0 {
        animation: dash 10s infinite;
        stroke-dashoffset: 1000;
        stroke-dasharray: 100;
        animation-delay: .2s;
    }

    @keyframes dash {
        0% {
        stroke-dashoffset: 2000;

      } 50% {
        stroke-dashoffset: 2000;
        stroke-dasharray: 200;
      }
        100% {
        stroke-dashoffset: 2000;
        stroke-dasharray: 100;
      }
    }
    
</style>
<g id="Layer_18">
</g>
<g id="Layer_17">
</g>
<g id="Layer_16">
	<g id="XMLID_43_">
		<circle id="XMLID_2_" class="st0" cx="361" cy="363" r="352.6"/>
		<circle id="XMLID_3_" class="st0" cx="361" cy="363" r="280"/>
		<circle id="XMLID_4_" class="st0" cx="361" cy="363" r="209"/>
	</g>
</g>
<g id="Layer_15">
	<circle id="XMLID_1_" class="st1" cx="641" cy="363" r="41.1"/>
</g>
<g id="Layer_14">
	<circle id="XMLID_6_" class="st1" cx="81" cy="363" r="41.1"/>
</g>
<g id="Layer_13">
	<circle id="XMLID_7_" class="st1" cx="361" cy="83" r="41.1"/>
</g>
<g id="Layer_12">
	<circle id="XMLID_8_" class="st1" cx="361" cy="643" r="41.1"/>
	<circle id="XMLID_42_" class="st2" cx="641" cy="363" r="41.1"/>
	<circle id="XMLID_41_" class="st2" cx="81" cy="363" r="41.1"/>
	<circle id="XMLID_40_" class="st2" cx="361" cy="83" r="41.1"/>
	<circle id="XMLID_39_" class="st2" cx="361" cy="643" r="41.1"/>
	<g id="XMLID_55_">
		<circle id="XMLID_38_" class="st3" cx="641" cy="363" r="41.1"/>
		<circle id="XMLID_37_" class="st3" cx="81" cy="363" r="41.1"/>
		<circle id="XMLID_36_" class="st3" cx="361" cy="83" r="41.1"/>
		<circle id="XMLID_9_" class="st3" cx="361" cy="643" r="41.1"/>
	</g>
</g>
<g id="Layer_11">
	<path id="XMLID_5_" class="st4" d="M99.1,372.7c-1.8-5.1-6.1-9.6-10.2-12.8c6.1-4.7,18.6-21.3-1-18.4c-8.5,1.2-21,8.9-23.6,17.6
		c-1.3-2.3-2.7-4.6-4.3-6.8c-2.3-3-5-0.7-2.4,2.4c7.4,8.9,12.5,19.6,12.5,30.4c0.6-5.3-0.3-11.9-2.6-18.3c1.2,0.3,2.4,0.5,3.5,0.5
		c4,6.1,10.1,11.2,16.9,13.6C94.2,383.4,102.5,382,99.1,372.7z M89.7,343.7c10.8-1.1-0.8,11.4-4.6,13.7c-3.6-2.2-8-4-12.3-3.5
		C75.9,350.2,83.5,344.4,89.7,343.7z M72.7,356.6c3-0.3,6.2,1.3,8.6,2.9c-2.3,1.1-4.9,1.8-7.6,2C69.7,361.5,68.9,357,72.7,356.6z
		 M87.7,376.2c-5.1-1.4-9.9-5.2-13.4-9.1c2.9-0.5,5.6-1.6,8.2-3c1-0.4,1.9-1,2.8-1.6c3,2.6,6.2,6,7.4,9.9
		C94,376.6,90.7,376.9,87.7,376.2z"/>
</g>
<g id="Layer_10">
	<path id="XMLID_14_" class="st5" d="M377.2,64.5h-29.6c-1,0-1.8,0.8-1.8,1.9v3.4c0,1,0.8,1.9,1.8,1.9h29.6c1,0,1.8-0.8,1.9-1.9
		v-3.3C379.1,65.4,378.3,64.5,377.2,64.5L377.2,64.5z M377.2,83.1h-29.6c-0.5,0-1,0.2-1.3,0.6c-0.4,0.4-0.6,0.8-0.6,1.3v3.4
		c0,1,0.8,1.9,1.8,1.9h29.6c1,0,1.8-0.8,1.9-1.9V85C379.1,83.9,378.3,83.1,377.2,83.1L377.2,83.1z M364.3,92.4h-16.7
		c-0.5,0-1,0.2-1.3,0.6c-0.3,0.4-0.6,0.8-0.6,1.3v3.4c0,1,0.8,1.9,1.8,1.9h16.6c1,0,1.8-0.8,1.8-1.8v-3.4
		C366.2,93.2,365.4,92.4,364.3,92.4L364.3,92.4z M379.1,73.8h-31.5c-0.5,0-1,0.2-1.3,0.6c-0.3,0.4-0.6,0.8-0.6,1.3V79
		c0,1,0.8,1.9,1.8,1.9h31.4c1,0,1.8-0.8,1.8-1.9v-3.4C381,74.7,380.1,73.8,379.1,73.8L379.1,73.8z"/>
</g>
<g id="Layer_9">
</g>
<g id="Layer_8">
</g>
<g id="Layer_7">
</g>
<g id="Layer_6">
</g>
<g id="Layer_5">
</g>
<g id="Layer_4">
	<g id="XMLID_48_">
		<polygon id="XMLID_49_" class="st6" points="368,632 380,654.1 380,632 380.5,632 361.5,621.1 361.3,620.8 361.2,620.9 361,620.8 
			361.1,621 341.5,632 367.5,632 		"/>
		<polygon id="XMLID_50_" class="st6" points="360.7,664.9 360.8,665.2 360.9,665.1 361,665.2 360.9,665 380.5,654 354.5,654 
			354,654 342,631.9 342,654.1 		"/>
	</g>
</g>
<g id="Layer_3">
	<path id="XMLID_19_" class="st7" d="M651.4,377.8c0-0.1,0-0.2,0.1-0.2c0.1,0,0.2-0.1,0.3,0c1.5,0.8,3.1,1.4,4.7,1.8
		c0.1,0,0.2,0,0.2-0.1c0.7-0.7,1.4-1.4,2-2.1c0.1-0.1,0.1-0.2,0-0.3c-0.6-1.6-1.4-3.1-2.3-4.5c0-0.1,0-0.2,0-0.3
		c0-0.1,0.1-0.1,0.2-0.1c0.4,0,0.8,0,1.3,0c1.3,0,2.6-0.1,3.8-0.3c0.1,0,0.2-0.1,0.2-0.2c0.3-0.9,0.7-1.8,0.9-2.7
		c0-0.1,0-0.2-0.1-0.2c-1.2-1.2-2.5-2.3-4-3.2c-0.1,0-0.1-0.1-0.1-0.2c0-0.1,0.1-0.2,0.2-0.2c1.6-0.6,3.2-1.4,4.6-2.4
		c0.1,0,0.1-0.1,0.1-0.2c0-0.9-0.1-1.8-0.2-2.7c0-0.1-0.1-0.2-0.2-0.2c-1.6-0.6-3.3-1.1-5.1-1.4c-0.1,0-0.2-0.1-0.2-0.2
		c0-0.1,0-0.2,0.1-0.3c1.3-1.3,2.4-2.7,3.3-4.2c0-0.1,0-0.2,0-0.2c-0.4-0.8-0.9-1.6-1.4-2.4l0,0c-1.8,0.1-3.7,0.3-5.4,0.8l-0.1,0
		c-0.1,0-0.2,0-0.3-0.1c-0.1-0.1-0.1-0.2,0-0.3c0,0,0,0,0-0.1c0.6-1.7,1.1-3.5,1.3-5.3c0,0,0.1,0,0.1,0c-0.8-0.7-1.6-1.3-2.4-1.8
		l0,0c0,0.1,0,0.2-0.1,0.2c-1.6,0.8-3.1,1.8-4.4,2.9l-0.1,0c-0.1,0.1-0.2,0.1-0.3,0c-0.1,0-0.1-0.1-0.1-0.2c0,0,0,0,0-0.1
		c-0.1-1.8-0.4-3.5-0.9-5.2c0-0.1,0-0.2,0.1-0.2c0,0,0,0,0,0c-1-0.3-2-0.5-3.1-0.6l0,0c0.1,0.1,0.1,0.2,0,0.3
		c-1.1,1.4-2.1,2.8-2.9,4.4l0,0.1c0,0.1-0.1,0.1-0.2,0.1c-0.1,0-0.2,0-0.2-0.1l0-0.1c-0.8-1.6-1.8-3.1-2.9-4.4
		c-0.1-0.1-0.1-0.2,0-0.2c0,0,0,0,0-0.1c-1,0.1-2,0.4-3,0.7v0c0.1,0.1,0.1,0.2,0.1,0.3c-0.5,1.7-0.8,3.5-0.9,5.2v0.1
		c0,0.1-0.1,0.2-0.1,0.2c-0.1,0-0.2,0-0.3,0l-0.1,0c-1.4-1.1-2.9-2.1-4.4-2.8c-0.1,0-0.1-0.1-0.1-0.2c0,0,0,0,0,0
		c-0.9,0.5-1.7,1.2-2.5,1.8c0,0,0.1,0,0.1,0c0.2,1.8,0.7,3.6,1.4,5.3l0,0.1c0,0.1,0,0.2,0,0.3c-0.1,0.1-0.2,0.1-0.3,0.1l-0.1,0
		c-1.8-0.5-3.6-0.7-5.4-0.8c0,0,0-0.1,0-0.1c-0.5,0.8-1,1.7-1.5,2.6c0,0,0,0,0,0c1,1.5,2.1,3,3.4,4.2l0,0c0.1,0.1,0.1,0.2,0.1,0.3
		c0,0.1-0.1,0.2-0.2,0.2l-0.1,0c-1.7,0.3-3.4,0.7-5.1,1.4c-0.1,0-0.1,0.1-0.2,0.2c-0.1,0.9-0.2,1.8-0.2,2.7c0,0.1,0,0.2,0.1,0.2
		c1.5,1,3,1.8,4.6,2.4c0.1,0,0.1,0.1,0.2,0.2c0,0.1,0,0.2-0.1,0.2c-1.4,0.9-2.8,2-4,3.3c-0.1,0.1-0.1,0.2-0.1,0.2
		c0.2,0.9,0.5,1.8,0.9,2.7c0,0.1,0.1,0.1,0.2,0.2c1.2,0.2,2.5,0.3,3.7,0.3c0.4,0,0.9,0,1.4,0c0.1,0,0.2,0,0.2,0.1c0,0.1,0,0.2,0,0.3
		c-0.9,1.4-1.7,2.9-2.3,4.5c0,0.1,0,0.2,0,0.3c0.6,0.8,1.3,1.5,2,2.1c0.1,0.1,0.2,0.1,0.2,0.1c1.6-0.4,3.2-1,4.6-1.8
		c0.1,0,0.2,0,0.3,0c0.1,0,0.1,0.1,0.1,0.2c-0.2,1.6-0.3,3.3-0.3,4.9c0,0.1,0.1,0.2,0.1,0.2c0.9,0.5,1.8,0.9,2.7,1.2
		c0.1,0,0.2,0,0.2,0c1.3-1,2.4-2.2,3.5-3.5c0.1-0.1,0.2-0.1,0.3-0.1c0.1,0,0.2,0.1,0.2,0.2c0.4,1.6,1,3.1,1.8,4.6
		c0,0.1,0.1,0.1,0.2,0.1c0.5,0,1,0,1.5,0c0.5,0,1,0,1.5,0c0.1,0,0.2-0.1,0.2-0.1c0.7-1.5,1.3-3,1.7-4.6c0-0.1,0.1-0.2,0.2-0.2
		c0.1,0,0.2,0,0.3,0.1c1,1.3,2.2,2.4,3.5,3.5c0.1,0.1,0.2,0.1,0.2,0c0.9-0.3,1.8-0.7,2.7-1.2c0.1,0,0.1-0.1,0.1-0.2
		C651.7,381.1,651.6,379.5,651.4,377.8z M659.5,369c0.2,0.1,0.1,0.4-0.1,0.5c-0.5,0-1,0-1.5,0c-0.4,0-0.8,0-1.1,0
		c-0.9,0-1.9-0.2-2.8-0.3c0,0-0.1,0-0.1-0.1c-0.7-0.8-1.5-1.5-2.3-2.1c-0.1-0.1-0.1-0.2-0.1-0.3c0-0.1,0.1-0.2,0.2-0.2
		c1.1-0.1,2.1-0.2,3.1-0.4c0,0,0.1,0,0.2,0C656.6,366.9,658.1,367.9,659.5,369L659.5,369z M657.7,360.5c0.9,0.1,1.7,0.3,2.5,0.6
		c0.2,0.1,0.3,0.4,0,0.5c-1.6,0.8-3.3,1.5-5.1,1.9c0,0-0.1,0-0.2,0c-1-0.4-2-0.8-3-1c-0.1,0-0.2-0.1-0.2-0.2c0-0.1,0-0.2,0.1-0.3
		c0.9-0.5,1.8-1,2.7-1.6c0,0,0.1,0,0.1,0C655.8,360.3,656.7,360.4,657.7,360.5z M657.8,353.9c-1.1,1.4-2.4,2.7-3.8,3.8
		c0,0-0.1,0-0.1,0c-1.1,0-2.1,0.1-3.2,0.3c-0.1,0-0.2,0-0.3-0.1c0-0.1,0-0.2,0-0.3c0.6-0.8,1.2-1.7,1.8-2.5c0,0,0.1-0.1,0.1-0.1
		c1.7-0.7,3.5-1.2,5.3-1.5C657.8,353.5,658,353.8,657.8,353.9z M647.9,351.3c0,0,0-0.1,0.1-0.1c1.2-1.3,2.6-2.5,4.1-3.4
		c0.2-0.1,0.4,0,0.4,0.3c-0.4,1.8-1.1,3.4-2,5c0,0-0.1,0.1-0.1,0.1c-0.9,0.4-1.8,1-2.7,1.5c-0.1,0.1-0.2,0-0.3,0
		c-0.1-0.1-0.1-0.2-0.1-0.3C647.6,353.3,647.8,352.3,647.9,351.3z M632,349.2c0.8,0.6,1.5,1.3,2.1,2c0,0,0.1,0.1,0.1,0.1
		c0.1,1,0.3,2,0.6,3.1c0,0.1,0,0.2-0.1,0.3c-0.1,0.1-0.2,0.1-0.3,0c-0.9-0.6-1.8-1.1-2.7-1.5c0,0-0.1-0.1-0.1-0.1
		c-0.9-1.6-1.5-3.3-2-5c-0.1-0.2,0.2-0.4,0.4-0.3C630.7,348.2,631.4,348.7,632,349.2z M624.4,354c-0.1-0.2,0-0.4,0.2-0.4
		c1.8,0.3,3.5,0.7,5.2,1.4c0,0,0.1,0.1,0.1,0.1c0.5,0.9,1.1,1.8,1.8,2.6c0.1,0.1,0.1,0.2,0,0.3c0,0.1-0.2,0.1-0.3,0.1
		c-1-0.1-2-0.2-3.1-0.3c0,0-0.1,0-0.1,0C626.8,356.7,625.5,355.4,624.4,354z M622,361.2c1.8-0.5,3.6-0.8,5.4-0.8c0,0,0.1,0,0.1,0
		c0.8,0.6,1.7,1.1,2.7,1.6c0.1,0,0.1,0.1,0.1,0.2c0,0.1-0.1,0.2-0.2,0.2c-1,0.3-2,0.6-3,1.1c0,0-0.1,0-0.2,0c-1.8-0.4-3.5-1-5.1-1.9
		C621.8,361.5,621.8,361.2,622,361.2z M625.5,369.6c-0.9,0-1.7,0-2.6,0c-0.2,0-0.3-0.3-0.1-0.5c1.4-1.2,2.9-2.1,4.5-2.9
		c0,0,0.1,0,0.2,0c1,0.2,2.1,0.3,3.1,0.4c0.1,0,0.2,0.1,0.2,0.2c0,0.1,0,0.2-0.1,0.3c-0.8,0.7-1.6,1.4-2.3,2.2c0,0-0.1,0.1-0.1,0.1
		C627.4,369.4,626.4,369.5,625.5,369.6z M629.4,375.4c-0.8,0.4-1.6,0.7-2.4,1c-0.2,0.1-0.4-0.1-0.3-0.4c0.8-1.6,1.8-3.1,3-4.5
		c0,0,0.1-0.1,0.1-0.1c1-0.2,2-0.5,3-0.9c0.1,0,0.2,0,0.3,0.1c0.1,0.1,0.1,0.2,0,0.3c-0.5,0.9-0.9,1.9-1.2,2.9c0,0,0,0.1-0.1,0.1
		C631,374.5,630.2,375,629.4,375.4z M635.3,379.1c-0.5,0.7-1.1,1.3-1.7,1.9c-0.2,0.2-0.4,0-0.4-0.2c0.1-1.8,0.4-3.6,0.9-5.3
		c0,0,0-0.1,0.1-0.1c0.8-0.6,1.6-1.3,2.4-2c0.1-0.1,0.2-0.1,0.3,0c0.1,0,0.2,0.1,0.1,0.2c0,1.1,0,2.1,0.1,3.2c0,0,0,0.1,0,0.2
		C636.4,377.6,635.9,378.4,635.3,379.1z M636.7,350.2c0,0-0.1-0.1-0.1-0.1c-0.1-1.8-0.1-3.6,0.2-5.4c0-0.2,0.3-0.3,0.5-0.1
		c0.5,0.7,0.9,1.4,1.3,2.1c0.4,0.9,0.8,1.8,1.2,2.7c0,0,0,0.1,0,0.2c-0.3,1-0.5,2-0.7,3c0,0.1-0.1,0.2-0.2,0.2c-0.1,0-0.2,0-0.3-0.1
		C638,351.8,637.4,351,636.7,350.2z M642.2,380.1c-0.2,0.8-0.5,1.7-0.8,2.5c-0.1,0.2-0.4,0.2-0.5,0c-0.7-1.7-1.1-3.4-1.4-5.2
		c0,0,0-0.1,0-0.2c0.5-0.9,1-1.9,1.3-2.9c0-0.1,0.1-0.2,0.2-0.2c0.1,0,0.2,0.1,0.2,0.2c0.4,1,0.8,1.9,1.3,2.8c0,0,0,0.1,0,0.2
		C642.6,378.3,642.4,379.2,642.2,380.1z M643.1,352.6c-0.2-1-0.4-2-0.7-3c0,0,0-0.1,0-0.2c0.6-1.7,1.4-3.3,2.4-4.8
		c0.1-0.2,0.4-0.1,0.5,0.1c0.3,1.8,0.4,3.6,0.2,5.4c0,0,0,0.1-0.1,0.1c-0.7,0.8-1.3,1.6-1.9,2.5c-0.1,0.1-0.2,0.1-0.3,0.1
		C643.2,352.8,643.1,352.7,643.1,352.6z M645.3,376.6c0.1-1,0.1-2.1,0-3.1c0-0.1,0-0.2,0.1-0.2c0.1,0,0.2,0,0.3,0
		c0.7,0.7,1.6,1.4,2.4,2.1c0,0,0.1,0.1,0.1,0.1c0.5,1.7,0.8,3.5,0.9,5.3c0,0.2-0.3,0.4-0.4,0.2c-1.3-1.3-2.4-2.7-3.4-4.2
		C645.3,376.7,645.3,376.7,645.3,376.6L645.3,376.6z M649.4,370.5c1,0.4,2,0.7,3,0.9c0,0,0.1,0,0.1,0.1c1.2,1.4,2.2,2.9,3,4.5
		c0.1,0.2-0.1,0.4-0.3,0.4c-1.7-0.6-3.3-1.5-4.8-2.5c0,0-0.1-0.1-0.1-0.1c-0.3-1-0.8-2-1.2-2.9c0-0.1,0-0.2,0-0.3
		C649.2,370.5,649.3,370.5,649.4,370.5L649.4,370.5z"/>
</g>
<g id="Layer_2">
	<g id="XMLID_2053_">
		<g id="XMLID_2427_">
			<path id="XMLID_2428_" class="st0" d="M441.7,301.2h-67.2v-20.7h33.3C422.6,280.4,435.4,289,441.7,301.2z"/>
		</g>
		<g id="XMLID_2425_">
			<path id="XMLID_2426_" class="st0" d="M441.5,336.6c-5.8,10.8-16.7,18.5-29.5,20h-37.5v-20H441.5z"/>
		</g>
		<g id="XMLID_2423_">
			<path id="XMLID_2424_" class="st0" d="M446,318.6c0,3.1-0.4,6.1-1.1,9.1h-70.4v-17.6h70.5C445.6,312.8,446,315.8,446,318.6z"/>
		</g>
		<g id="XMLID_2156_">
			<path id="XMLID_2157_" class="st0" d="M365.6,280.4v76.2h-35.5c-19.1-2-34-18.3-34-37.9c0-21.1,17.2-38.2,38.2-38.2h31.3V280.4z"
				/>
		</g>
		<g id="XMLID_2154_">
			<path id="XMLID_2155_" class="st0" d="M393.1,366.3v55.1c0,6.2-5,11.4-11.4,11.4h-7.3v-66.5H393.1z"/>
		</g>
		<g id="XMLID_2054_">
			<path id="XMLID_2153_" class="st0" d="M365.6,366.3v66.5H301c-0.4,0-0.7,0-1.1,0c-0.1,0-0.3,0-0.3,0c-0.3,0-0.4,0-0.7-0.1
				c-0.1,0-0.3,0-0.4,0c-0.3,0-0.5-0.1-0.8-0.1c-0.1,0-0.3-0.1-0.4-0.1c-0.3,0-0.4-0.1-0.7-0.3c-0.1,0-0.3-0.1-0.4-0.1
				c-0.1-0.1-0.4-0.1-0.5-0.3c-0.1,0-0.3-0.1-0.3-0.1c-0.3-0.1-0.4-0.3-0.7-0.4c0,0-0.1,0-0.1-0.1c-0.3-0.1-0.4-0.4-0.7-0.5
				c0,0-0.1-0.1-0.3-0.1c-0.1-0.1-0.4-0.3-0.5-0.5c0,0-0.1-0.1-0.3-0.1c-0.1-0.1-0.4-0.4-0.5-0.7c0,0-0.1,0-0.1-0.1
				c-0.1-0.3-0.4-0.5-0.5-0.8c0-0.1-0.1-0.1-0.1-0.3c-0.1-0.1-0.3-0.4-0.4-0.5c0-0.1-0.1-0.3-0.1-0.4c0-0.1-0.1-0.3-0.3-0.5
				c0-0.1-0.1-0.3-0.1-0.4l0,0c-0.1-0.3-0.1-0.5-0.3-0.7c0-0.1,0-0.3-0.1-0.4c0-0.1-0.1-0.4-0.1-0.7c0-0.1,0-0.3,0-0.4
				c0-0.3,0-0.4-0.1-0.7c0-0.1,0-0.1,0-0.3c0-0.3,0-0.7,0-1.1l0,0c0,0,0,0,0-0.1c0-0.3,0-0.5,0-0.8c0-0.1,0-0.3,0-0.3
				c0-0.3,0-0.5,0.1-0.7c0-0.1,0-0.1,0-0.3c0-0.3,0.1-0.5,0.3-0.9c0-0.1,0.1-0.3,0.1-0.4c0-0.1,0.1-0.4,0.1-0.5
				c0-0.1,0.1-0.3,0.1-0.4c0.1-0.1,0.1-0.4,0.3-0.5c0-0.1,0.1-0.1,0.1-0.3c0.1-0.3,0.3-0.5,0.5-0.8c0-0.1,0.1-0.1,0.1-0.3
				c0.1-0.1,0.3-0.4,0.4-0.5c0-0.1,0.1-0.1,0.3-0.3c0.1-0.1,0.3-0.3,0.4-0.5c0.1,0,0.1-0.1,0.3-0.3c0,0,0,0,0-0.1l49-47h23.4V366.3z
				"/>
		</g>
	</g>
</g>
<g id="Layer_1">
</g>
</svg>
