<?xml version="1.0" encoding="utf-8"?>
<!-- Generator: Adobe Illustrator 19.0.0, SVG Export Plug-In . SVG Version: 6.00 Build 0)  -->
<svg version="1.1" id="Layer_2" xmlns="http://www.w3.org/2000/svg" xmlns:xlink="http://www.w3.org/1999/xlink" x="0px" y="0px"
	 viewBox="-644 42.5 629.7 996.5" style="enable-background:new -644 42.5 629.7 996.5; " xml:space="preserve">
<style type="text/css">
    @keyframes heartBeat {
        0% {transform:scale(1)}
        14%{transform:scale(-1.3)}
        28%{transform:scale(1)}
        42%{transform:scale(-1.3)}
        70%{transform:scale(1)}
    }
    
@keyframes bounceIn{0%,20%,40%,60%,80%,to{-webkit-animation-timing-function:cubic-bezier(.215,.61,.355,1);animation-timing-function:cubic-bezier(.215,.61,.355,1)}0%{opacity:0;-webkit-transform:scale3d(.3,.3,.3);transform:scale3d(.3,.3,.3)}20%{-webkit-transform:scale3d(1.1,1.1,1.1);transform:scale3d(1.1,1.1,1.1)}40%{-webkit-transform:scale3d(.9,.9,.9);transform:scale3d(.9,.9,.9)}60%{opacity:1;-webkit-transform:scale3d(1.03,1.03,1.03);transform:scale3d(1.03,1.03,1.03)}80%{-webkit-transform:scale3d(.97,.97,.97);transform:scale3d(.97,.97,.97)}to{opacity:1;-webkit-transform:scaleX(1);transform:scaleX(1)}}
    
    @keyframes fadeInDown{0%{opacity:0;}to{opacity:1;}}
    
	.st0{fill:none;stroke:#C2E2FF;stroke-width:4;stroke-miterlimit:10;stroke-dasharray: 300; stroke-dashoffset: 1600; animation-delay: 4s; animation: dash 8s ease;}
	.st1{fill:none;stroke:#25313C;stroke-width:4;stroke-miterlimit:10;stroke-dasharray: 1600;stroke-dashoffset: 1600; animation: dash 4s ease-in-out forwards;}
    @keyframes dash { to {stroke-dashoffset: 0;}}
	.st2{fill:#25313C; animation: fadeInDown 1s ease-in-out forwards; animation-delay: 1s;}
	.st3{fill:#25313C;}
	.st4{fill:#25313C; animation: fadeInDown 1s ease-in-out forwards; animation-delay: 1.5s;}
	.st5{fill:#25313C; animation: fadeInDown 1s ease-in-out forwards; animation-delay: 2s;}
	.st6{fill:#25313C; animation: fadeInDown 1s ease-in-out forwards; animation-delay: 2.5s;}
	.st7{fill:#25313C; animation: fadeInDown 1s ease-in-out forwards; animation-delay: 0.5s;}
    .icon {
        opacity: 0;
    }
</style>
<g id="XMLID_46_">
	<path id="XMLID_197_" class="st0" d="M-540.4,490.1V490c-1.4-16.7,6.5-19.2,6.5-19.2s1.2-0.5,1.8-3.9"/>
	<path id="XMLID_196_" class="st0" d="M-537.9,420.7c0.5,2,0.9,4,1.4,6c5.6,24.3,5.5,35.3,4.6,40.2l135.8-6.3l10-39.8"/>
	<path id="XMLID_195_" class="st0" d="M-112.9,196.7"/>
	<path id="XMLID_194_" class="st0" d="M-540.5,489.9L-540.5,489.9l154.4-11.1l14.3-44h36.6h31.3l11.4,42
		c75.5,11.1,115.2-27,132.3-51.2c7-9.9,9.4-22.4,6.6-34.2c-12.6-54.8-4.6-94.7-0.9-108.5c0.7-2.6,3.8-3.6,5.9-2l21.1,16.2
		c2.1,1.6,5.2,0.6,5.9-1.9l26.9-93.9"/>
	<path id="XMLID_193_" class="st0" d="M-537.9,420.7"/>
	<line id="XMLID_192_" class="st0" x1="-338.1" y1="852" x2="-335.2" y2="614.1"/>
	<path id="XMLID_191_" class="st0" d="M-453.4,613.9v23.5l28.5-10.2c0,0-4.1,159.7-28.5,223.7l-19.3,8.1l16.3,30.5l31.5-21.4
		c0,0,40.4,24.4,99.5,21.4"/>
	<path id="XMLID_190_" class="st0" d="M-367.1,992.3"/>
	<path id="XMLID_189_" class="st0" d="M-367.1,934.6"/>
	<path id="XMLID_188_" class="st0" d="M-405.7,992.3"/>
	<path id="XMLID_187_" class="st0" d="M-405.7,933.5"/>
	<path id="XMLID_186_" class="st0" d="M-562.3,965.7"/>
	<path id="XMLID_185_" class="st0" d="M-554.8,934.8"/>
	<path id="XMLID_184_" class="st0" d="M-537.6,977.5"/>
	<path id="XMLID_183_" class="st0" d="M-529.5,946.2"/>
	<path id="XMLID_182_" class="st0" d="M-509.3,988.8"/>
	<path id="XMLID_181_" class="st0" d="M-502.4,955.4"/>
	<path id="XMLID_180_" class="st0" d="M-479.6,989.7"/>
	<path id="XMLID_179_" class="st0" d="M-475.9,962.1"/>
	<path id="XMLID_178_" class="st0" d="M-446.1,990.8"/>
	<path id="XMLID_177_" class="st0" d="M-444.1,967.9"/>
	<path id="XMLID_176_" class="st0" d="M-472.7,638.9c0,0,52.1-85.2,141.6-87"/>
	<path id="XMLID_175_" class="st0" d="M-335.2,618l-26.3-40.3c0,0-34.4,5.8-49.9,17.7c0,0,3.8,192.3-16,240.1
		c0,0,80.7,21.7,105.8,15.6"/>
	<polyline id="XMLID_174_" class="st0" points="-335.2,642.5 -367.1,591.4 -399.1,601.6 -401.9,818.6 -362.3,836.2 -362.3,849.4 	
		"/>
	<polyline id="XMLID_173_" class="st0" points="-531,610 -503.4,556.9 -502.7,522.3 -484.5,485.9 	"/>
	<polyline id="XMLID_172_" class="st0" points="-466.4,484.6 -488.4,527 -475.6,559.6 -506.2,615.2 	"/>
	<line id="XMLID_171_" class="st0" x1="-399.7" y1="646" x2="-335.2" y2="675.5"/>
	<line id="XMLID_170_" class="st0" x1="-400" y1="669.5" x2="-335.2" y2="699.1"/>
	<line id="XMLID_169_" class="st0" x1="-400.3" y1="693" x2="-335.2" y2="722.7"/>
	<line id="XMLID_168_" class="st0" x1="-400.6" y1="716.4" x2="-335.2" y2="746.3"/>
	<line id="XMLID_167_" class="st0" x1="-400.9" y1="739.9" x2="-335.2" y2="769.9"/>
	<line id="XMLID_166_" class="st0" x1="-401.9" y1="763" x2="-335.2" y2="793.5"/>
	<line id="XMLID_165_" class="st0" x1="-401.5" y1="784.8" x2="-335.2" y2="817.1"/>
	<path id="XMLID_164_" class="st0" d="M-498.2,600.5l21.9,17.5c0,0,60.3-72,92.2-75v-20.7c0,0-59.5,23.5-97.2,73.1l-8.7-9.7"/>
	<line id="XMLID_163_" class="st0" x1="-503.4" y1="556.9" x2="-475.6" y2="559.6"/>
	<line id="XMLID_162_" class="st0" x1="-411.8" y1="480.7" x2="-488.4" y2="527"/>
	<line id="XMLID_161_" class="st0" x1="-481.2" y1="551.9" x2="-367.4" y2="493.1"/>
	<line id="XMLID_160_" class="st0" x1="-371.8" y1="434.8" x2="-366.6" y2="556.9"/>
	<line id="XMLID_159_" class="st0" x1="-358.3" y1="350.9" x2="-367.4" y2="420.7"/>
	<path id="XMLID_158_" class="st0" d="M-386.3,420.7l-11.9-32.2l-11.7,8.1l-29.8-30l-12.4,5.1c0,0-36.6-44.2-18.8-159.6h75.5"/>
	<line id="XMLID_157_" class="st0" x1="-404.3" y1="230.4" x2="-473.3" y2="230.4"/>
	<line id="XMLID_156_" class="st0" x1="-408.8" y1="247.4" x2="-474.9" y2="247.4"/>
	<line id="XMLID_155_" class="st0" x1="-412.9" y1="263.5" x2="-475.6" y2="263.5"/>
	<line id="XMLID_154_" class="st0" x1="-411.2" y1="280.5" x2="-475.6" y2="280.5"/>
	<line id="XMLID_153_" class="st0" x1="-407.7" y1="296.6" x2="-474.7" y2="296.6"/>
	<line id="XMLID_152_" class="st0" x1="-401.3" y1="313.5" x2="-472.7" y2="313.5"/>
	<line id="XMLID_151_" class="st0" x1="-390.6" y1="330.1" x2="-469.1" y2="331.7"/>
	<line id="XMLID_150_" class="st0" x1="-366.6" y1="349.3" x2="-463.8" y2="348.8"/>
	<line id="XMLID_149_" class="st0" x1="-196.9" y1="230.4" x2="-266.2" y2="230.4"/>
	<line id="XMLID_148_" class="st0" x1="-195.6" y1="247.4" x2="-261.6" y2="247.4"/>
	<line id="XMLID_147_" class="st0" x1="-194.7" y1="263.5" x2="-259.9" y2="263.5"/>
	<line id="XMLID_146_" class="st0" x1="-194.8" y1="280.5" x2="-261.6" y2="280.5"/>
	<line id="XMLID_128_" class="st0" x1="-195.6" y1="296.6" x2="-264.1" y2="296.6"/>
	<line id="XMLID_127_" class="st0" x1="-198.2" y1="313.5" x2="-270.7" y2="313.5"/>
	<line id="XMLID_126_" class="st0" x1="-201.5" y1="330.4" x2="-283.3" y2="330.4"/>
	<line id="XMLID_125_" class="st0" x1="-206.3" y1="347.1" x2="-300.2" y2="347.1"/>
	<ellipse id="XMLID_124_" class="st0" cx="-335.2" cy="266.7" rx="54.2" ry="65.4"/>
	<ellipse id="XMLID_123_" class="st0" cx="-335.2" cy="266.7" rx="75.3" ry="90.8"/>
	<polyline id="XMLID_122_" class="st0" points="-547.4,604.8 -505,615.2 -466.6,644.1 	"/>
	<line id="XMLID_121_" class="st0" x1="-531" y1="610" x2="-586.6" y2="852.9"/>
	<path id="XMLID_120_" class="st0" d="M-289.1,420.7l9.5,38.5c51.2,7.1,82.2-16,98.5-34.8c9.3-10.7,12.7-25.3,9.2-39
		c-13.1-52-1.9-102.2,11.1-130.6c1-2.2,3.7-2.9,5.6-1.5l37.1,27.1"/>
	<path id="XMLID_119_" class="st0" d="M-172.3,440.3c0,0,48.7,103.4,49.3,111.6c0,0-13.2,8.2-9.9,18.3l9.9,14.2
		c0,0,13.7,10.2,0,20.3l57.5,224.9L-83.8,853l18.3,28.5c0,0-57,115.6-269.7,115.8c-241.1,0.1-276.9-108.8-276.9-108.8l25.4-35.6
		l-18.3-23.4l57.5-224.8c-13.7-10.2,0-20.3,0-20.3l9.9-14.2c3.3-10.2-9.9-18.3-9.9-18.3c0.6-8.2,19.8-48.8,19.8-48.8
		c-4.7-3.2-9-7.7-12.7-13l-0.1-0.1"/>
	<path id="XMLID_118_" class="st0" d="M-600.9,872.9c23.1,31.3,89.7,92.9,265.7,92.7c161-0.2,232.8-70,258.2-102.2"/>
	<path id="XMLID_117_" class="st0" d="M-203.8,630.1v33.7l-25.4-12.2c0,0,16.3,133.2,57,197.3l-35.7,59.3l-42.6-18.6l-48.4,38.7
		l-36.2-21.4l-35.5,21.4l-49.1-38.7l-43.7,22.4l-34.6-63.1c40.7-64.1,57-197.3,57-197.3l-25.4,12.2v-34.1"/>
	<path id="XMLID_116_" class="st0" d="M-216.9,614.1l-0.2,23.2l-28.5-10.2c0,0,4.1,159.7,28.5,223.7l19.3,8.1l-18.4,27.5l-29.4-18.3
		c0,0-40.4,24.4-99.5,21.4"/>
	<path id="XMLID_115_" class="st0" d="M-303.4,992.3"/>
	<path id="XMLID_114_" class="st0" d="M-303.4,933.5"/>
	<path id="XMLID_113_" class="st0" d="M-264.7,992.3"/>
	<path id="XMLID_112_" class="st0" d="M-264.7,928.3"/>
	<path id="XMLID_108_" class="st0" d="M-108.1,965.7"/>
	<path id="XMLID_107_" class="st0" d="M-115.6,934.8"/>
	<path id="XMLID_106_" class="st0" d="M-132.8,977.5"/>
	<path id="XMLID_104_" class="st0" d="M-141,946.2"/>
	<path id="XMLID_103_" class="st0" d="M-190.9,989.7"/>
	<path id="XMLID_102_" class="st0" d="M-194.6,962.1"/>
	<path id="XMLID_101_" class="st0" d="M-224.4,990.8"/>
	<path id="XMLID_100_" class="st0" d="M-226.4,967.9"/>
	<path id="XMLID_99_" class="st0" d="M-197.7,638.9c0,0-52.1-85.2-141.6-87"/>
	<path id="XMLID_98_" class="st0" d="M-335.2,618l26.3-40.3c0,0,34.7,5.8,50.3,17.7c0,0-4.2,192.3,15.6,240.1
		c0,0-80.7,21.7-105.8,15.6"/>
	<polyline id="XMLID_97_" class="st0" points="-335.2,642.5 -303.4,591.4 -271.4,601.6 -268.5,818.6 -308.1,840.9 -308.1,849.4 	"/>
	<polyline id="XMLID_96_" class="st0" points="-138.5,609.8 -167.1,556.9 -167.8,522.3 -197.7,460.7 	"/>
	<polyline id="XMLID_95_" class="st0" points="-213.5,468.7 -182,527 -194.9,559.6 -160.6,614.2 	"/>
	<line id="XMLID_94_" class="st0" x1="-270.8" y1="646" x2="-335.2" y2="675.5"/>
	<line id="XMLID_93_" class="st0" x1="-270.8" y1="669.6" x2="-335.2" y2="699.1"/>
	<line id="XMLID_92_" class="st0" x1="-269.9" y1="693" x2="-335.2" y2="722.7"/>
	<line id="XMLID_91_" class="st0" x1="-269.9" y1="714.9" x2="-335.2" y2="746.3"/>
	<line id="XMLID_90_" class="st0" x1="-269.9" y1="740" x2="-335.2" y2="769.9"/>
	<line id="XMLID_89_" class="st0" x1="-269.2" y1="763" x2="-335.2" y2="793.5"/>
	<line id="XMLID_88_" class="st0" x1="-268.9" y1="786.8" x2="-335.2" y2="817.1"/>
	<path id="XMLID_87_" class="st0" d="M-170.4,598.6l-23.8,19.4c0,0-60.3-72-92.2-75v-20.7c0,0,59.5,23.5,97.2,73.1l9.9-11"/>
	<line id="XMLID_86_" class="st0" x1="-167.1" y1="556.9" x2="-194.9" y2="559.6"/>
	<line id="XMLID_85_" class="st0" x1="-261.9" y1="478.8" x2="-182" y2="527"/>
	<line id="XMLID_84_" class="st0" x1="-189.2" y1="551.9" x2="-303.7" y2="489.9"/>
	<line id="XMLID_83_" class="st0" x1="-303.9" y1="434.8" x2="-303.9" y2="556.9"/>
	<line id="XMLID_82_" class="st0" x1="-312.2" y1="350.9" x2="-309.1" y2="420.7"/>
	<path id="XMLID_81_" class="st0" d="M-289.1,420.7l16.8-32.2l11.7,8.1l29.8-30l12.4,5.1c0,0,36.6-44.2,18.8-159.6h-75.5"/>
	<polyline id="XMLID_80_" class="st0" points="-123,604.8 -165.4,615.2 -203.8,644.1 	"/>
	<line id="XMLID_79_" class="st0" x1="-138.5" y1="609.8" x2="-82.4" y2="852.9"/>
	<path id="XMLID_78_" class="st0" d="M-81.3,415.8c-13.4-97.4,3.2-178,12.4-212.7"/>
	<path id="XMLID_77_" class="st0" d="M-138.4,514c0,0,1.8-66.3,40.5-82.6l12.9-10.7l26.8-34c2.8-3.6,4.2-8,4-12.5
		c-3.1-52.5,1.8-98.1,7.8-131.4c0.9-5.1-0.3-10.3-3.4-14.4l-20.2-27h-42.7v-41.8c-0.1-8.6-0.6-16.3-1.5-23.1
		c-4.4-34.5-33.9-60.2-68.6-60.2h-282.4c-32.4,0-61.5,20.1-72.9,50.5c-60.7,162.6,0.3,294,0.3,294h359.7"/>
	<path id="XMLID_76_" class="st0" d="M-82.4,852.9C-152.1,904-244.2,935-345.1,935c-94.3,0-180.8-27.1-248.7-72.3"/>
	<circle id="XMLID_75_" class="st0" cx="-335.2" cy="385.8" r="10.2"/>
	<circle id="XMLID_50_" class="st0" cx="-456.8" cy="133.5" r="29.2"/>
	<circle id="XMLID_49_" class="st0" cx="-377.1" cy="133.5" r="29.2"/>
	<circle id="XMLID_48_" class="st0" cx="-297.4" cy="133.5" r="29.2"/>
	<circle id="XMLID_47_" class="st0" cx="-217.7" cy="133.5" r="29.2"/>
</g>
<g id="XMLID_22_">
	<path id="XMLID_2746_" class="st1" d="M-540.4,490.1V490c-1.4-16.7,6.5-19.2,6.5-19.2s1.2-0.5,1.8-3.9"/>
	<path id="XMLID_2745_" class="st1" d="M-537.9,420.7c0.5,2,0.9,4,1.4,6c5.6,24.3,5.5,35.3,4.6,40.2l135.8-6.3l10-39.8"/>
	<path id="XMLID_2744_" class="st1" d="M-112.9,196.7"/>
	<path id="XMLID_2743_" class="st1" d="M-540.5,489.9L-540.5,489.9l154.4-11.1l14.3-44h36.6h31.3l11.4,42
		c75.5,11.1,115.2-27,132.3-51.2c7-9.9,9.4-22.4,6.6-34.2c-12.6-54.8-4.6-94.7-0.9-108.5c0.7-2.6,3.8-3.6,5.9-2l21.1,16.2
		c2.1,1.6,5.2,0.6,5.9-1.9l26.9-93.9"/>
	<path id="XMLID_2742_" class="st1" d="M-537.9,420.7"/>
	<line id="XMLID_2741_" class="st1" x1="-338.1" y1="852" x2="-335.2" y2="614.1"/>
	<path id="XMLID_2740_" class="st1" d="M-453.4,613.9v23.5l28.5-10.2c0,0-4.1,159.7-28.5,223.7l-19.3,8.1l16.3,30.5l31.5-21.4
		c0,0,40.4,24.4,99.5,21.4"/>
	<path id="XMLID_2739_" class="st1" d="M-367.1,992.3"/>
	<path id="XMLID_2738_" class="st1" d="M-367.1,934.6"/>
	<path id="XMLID_2737_" class="st1" d="M-405.7,992.3"/>
	<path id="XMLID_2736_" class="st1" d="M-405.7,933.5"/>
	<path id="XMLID_2735_" class="st1" d="M-562.3,965.7"/>
	<path id="XMLID_2734_" class="st1" d="M-554.8,934.8"/>
	<path id="XMLID_2733_" class="st1" d="M-537.6,977.5"/>
	<path id="XMLID_2732_" class="st1" d="M-529.5,946.2"/>
	<path id="XMLID_2731_" class="st1" d="M-509.3,988.8"/>
	<path id="XMLID_2730_" class="st1" d="M-502.4,955.4"/>
	<path id="XMLID_2729_" class="st1" d="M-479.6,989.7"/>
	<path id="XMLID_2728_" class="st1" d="M-475.9,962.1"/>
	<path id="XMLID_2727_" class="st1" d="M-446.1,990.8"/>
	<path id="XMLID_2726_" class="st1" d="M-444.1,967.9"/>
	<path id="XMLID_2725_" class="st1" d="M-472.7,638.9c0,0,52.1-85.2,141.6-87"/>
	<path id="XMLID_2724_" class="st1" d="M-335.2,618l-26.3-40.3c0,0-34.4,5.8-49.9,17.7c0,0,3.8,192.3-16,240.1
		c0,0,80.7,21.7,105.8,15.6"/>
	<polyline id="XMLID_2723_" class="st1" points="-335.2,642.5 -367.1,591.4 -399.1,601.6 -401.9,818.6 -362.3,836.2 -362.3,849.4 	
		"/>
	<polyline id="XMLID_2722_" class="st1" points="-531,610 -503.4,556.9 -502.7,522.3 -484.5,485.9 	"/>
	<polyline id="XMLID_2721_" class="st1" points="-466.4,484.6 -488.4,527 -475.6,559.6 -506.2,615.2 	"/>
	<line id="XMLID_2720_" class="st1" x1="-399.7" y1="646" x2="-335.2" y2="675.5"/>
	<line id="XMLID_2719_" class="st1" x1="-400" y1="669.5" x2="-335.2" y2="699.1"/>
	<line id="XMLID_2718_" class="st1" x1="-400.3" y1="693" x2="-335.2" y2="722.7"/>
	<line id="XMLID_2717_" class="st1" x1="-400.6" y1="716.4" x2="-335.2" y2="746.3"/>
	<line id="XMLID_2716_" class="st1" x1="-400.9" y1="739.9" x2="-335.2" y2="769.9"/>
	<line id="XMLID_2715_" class="st1" x1="-401.9" y1="763" x2="-335.2" y2="793.5"/>
	<line id="XMLID_2714_" class="st1" x1="-401.5" y1="784.8" x2="-335.2" y2="817.1"/>
	<path id="XMLID_2713_" class="st1" d="M-498.2,600.5l21.9,17.5c0,0,60.3-72,92.2-75v-20.7c0,0-59.5,23.5-97.2,73.1l-8.7-9.7"/>
	<line id="XMLID_2712_" class="st1" x1="-503.4" y1="556.9" x2="-475.6" y2="559.6"/>
	<line id="XMLID_2711_" class="st1" x1="-411.8" y1="480.7" x2="-488.4" y2="527"/>
	<line id="XMLID_2710_" class="st1" x1="-481.2" y1="551.9" x2="-367.4" y2="493.1"/>
	<line id="XMLID_2709_" class="st1" x1="-371.8" y1="434.8" x2="-366.6" y2="556.9"/>
	<line id="XMLID_2708_" class="st1" x1="-358.3" y1="350.9" x2="-367.4" y2="420.7"/>
	<path id="XMLID_2707_" class="st1" d="M-386.3,420.7l-11.9-32.2l-11.7,8.1l-29.8-30l-12.4,5.1c0,0-36.6-44.2-18.8-159.6h75.5"/>
	<line id="XMLID_2706_" class="st1" x1="-404.3" y1="230.4" x2="-473.3" y2="230.4"/>
	<line id="XMLID_2705_" class="st1" x1="-408.8" y1="247.4" x2="-474.9" y2="247.4"/>
	<line id="XMLID_2704_" class="st1" x1="-412.9" y1="263.5" x2="-475.6" y2="263.5"/>
	<line id="XMLID_2703_" class="st1" x1="-411.2" y1="280.5" x2="-475.6" y2="280.5"/>
	<line id="XMLID_2702_" class="st1" x1="-407.7" y1="296.6" x2="-474.7" y2="296.6"/>
	<line id="XMLID_2701_" class="st1" x1="-401.3" y1="313.5" x2="-472.7" y2="313.5"/>
	<line id="XMLID_2700_" class="st1" x1="-390.6" y1="330.1" x2="-469.1" y2="331.7"/>
	<line id="XMLID_2699_" class="st1" x1="-366.6" y1="349.3" x2="-463.8" y2="348.8"/>
	<line id="XMLID_2698_" class="st1" x1="-196.9" y1="230.4" x2="-266.2" y2="230.4"/>
	<line id="XMLID_2697_" class="st1" x1="-195.6" y1="247.4" x2="-261.6" y2="247.4"/>
	<line id="XMLID_2696_" class="st1" x1="-194.7" y1="263.5" x2="-259.9" y2="263.5"/>
	<line id="XMLID_2695_" class="st1" x1="-194.8" y1="280.5" x2="-261.6" y2="280.5"/>
	<line id="XMLID_2694_" class="st1" x1="-195.6" y1="296.6" x2="-264.1" y2="296.6"/>
	<line id="XMLID_2693_" class="st1" x1="-198.2" y1="313.5" x2="-270.7" y2="313.5"/>
	<line id="XMLID_2692_" class="st1" x1="-201.5" y1="330.4" x2="-283.3" y2="330.4"/>
	<line id="XMLID_2691_" class="st1" x1="-206.3" y1="347.1" x2="-300.2" y2="347.1"/>
	<ellipse id="XMLID_2690_" class="st1" cx="-335.2" cy="266.7" rx="54.2" ry="65.4"/>
	<ellipse id="XMLID_2689_" class="st1" cx="-335.2" cy="266.7" rx="75.3" ry="90.8"/>
	<polyline id="XMLID_2688_" class="st1" points="-547.4,604.8 -505,615.2 -466.6,644.1 	"/>
	<line id="XMLID_2687_" class="st1" x1="-531" y1="610" x2="-586.6" y2="852.9"/>
	<path id="XMLID_2686_" class="st1" d="M-289.1,420.7l9.5,38.5c51.2,7.1,82.2-16,98.5-34.8c9.3-10.7,12.7-25.3,9.2-39
		c-13.1-52-1.9-102.2,11.1-130.6c1-2.2,3.7-2.9,5.6-1.5l37.1,27.1"/>
	<path id="XMLID_2685_" class="st1" d="M-172.3,440.3c0,0,48.7,103.4,49.3,111.6c0,0-13.2,8.2-9.9,18.3l9.9,14.2
		c0,0,13.7,10.2,0,20.3l57.5,224.9L-83.8,853l18.3,28.5c0,0-57,115.6-269.7,115.8c-241.1,0.1-276.9-108.8-276.9-108.8l25.4-35.6
		l-18.3-23.4l57.5-224.8c-13.7-10.2,0-20.3,0-20.3l9.9-14.2c3.3-10.2-9.9-18.3-9.9-18.3c0.6-8.2,19.8-48.8,19.8-48.8
		c-4.7-3.2-9-7.7-12.7-13l-0.1-0.1"/>
	<path id="XMLID_2684_" class="st1" d="M-600.9,872.9c23.1,31.3,89.7,92.9,265.7,92.7c161-0.2,232.8-70,258.2-102.2"/>
	<path id="XMLID_2683_" class="st1" d="M-203.8,630.1v33.7l-25.4-12.2c0,0,16.3,133.2,57,197.3l-35.7,59.3l-42.6-18.6l-48.4,38.7
		l-36.2-21.4l-35.5,21.4l-49.1-38.7l-43.7,22.4l-34.6-63.1c40.7-64.1,57-197.3,57-197.3l-25.4,12.2v-34.1"/>
	<path id="XMLID_2682_" class="st1" d="M-216.9,614.1l-0.2,23.2l-28.5-10.2c0,0,4.1,159.7,28.5,223.7l19.3,8.1l-18.4,27.5
		l-29.4-18.3c0,0-40.4,24.4-99.5,21.4"/>
	<path id="XMLID_2681_" class="st1" d="M-303.4,992.3"/>
	<path id="XMLID_2680_" class="st1" d="M-303.4,933.5"/>
	<path id="XMLID_2679_" class="st1" d="M-264.7,992.3"/>
	<path id="XMLID_2678_" class="st1" d="M-264.7,928.3"/>
	<path id="XMLID_2677_" class="st1" d="M-108.1,965.7"/>
	<path id="XMLID_2676_" class="st1" d="M-115.6,934.8"/>
	<path id="XMLID_2675_" class="st1" d="M-132.8,977.5"/>
	<path id="XMLID_2674_" class="st1" d="M-141,946.2"/>
	<path id="XMLID_2673_" class="st1" d="M-190.9,989.7"/>
	<path id="XMLID_2672_" class="st1" d="M-194.6,962.1"/>
	<path id="XMLID_2671_" class="st1" d="M-224.4,990.8"/>
	<path id="XMLID_2670_" class="st1" d="M-226.4,967.9"/>
	<path id="XMLID_2669_" class="st1" d="M-197.7,638.9c0,0-52.1-85.2-141.6-87"/>
	<path id="XMLID_2668_" class="st1" d="M-335.2,618l26.3-40.3c0,0,34.7,5.8,50.3,17.7c0,0-4.2,192.3,15.6,240.1
		c0,0-80.7,21.7-105.8,15.6"/>
	<polyline id="XMLID_2667_" class="st1" points="-335.2,642.5 -303.4,591.4 -271.4,601.6 -268.5,818.6 -308.1,840.9 -308.1,849.4 	
		"/>
	<polyline id="XMLID_2666_" class="st1" points="-138.5,609.8 -167.1,556.9 -167.8,522.3 -197.7,460.7 	"/>
	<polyline id="XMLID_2665_" class="st1" points="-213.5,468.7 -182,527 -194.9,559.6 -160.6,614.2 	"/>
	<line id="XMLID_2664_" class="st1" x1="-270.8" y1="646" x2="-335.2" y2="675.5"/>
	<line id="XMLID_2663_" class="st1" x1="-270.8" y1="669.6" x2="-335.2" y2="699.1"/>
	<line id="XMLID_2662_" class="st1" x1="-269.9" y1="693" x2="-335.2" y2="722.7"/>
	<line id="XMLID_2661_" class="st1" x1="-269.9" y1="714.9" x2="-335.2" y2="746.3"/>
	<line id="XMLID_2660_" class="st1" x1="-269.9" y1="740" x2="-335.2" y2="769.9"/>
	<line id="XMLID_2637_" class="st1" x1="-269.2" y1="763" x2="-335.2" y2="793.5"/>
	<line id="XMLID_2636_" class="st1" x1="-268.9" y1="786.8" x2="-335.2" y2="817.1"/>
	<path id="XMLID_2625_" class="st1" d="M-170.4,598.6l-23.8,19.4c0,0-60.3-72-92.2-75v-20.7c0,0,59.5,23.5,97.2,73.1l9.9-11"/>
	<line id="XMLID_2623_" class="st1" x1="-167.1" y1="556.9" x2="-194.9" y2="559.6"/>
	<line id="XMLID_2622_" class="st1" x1="-261.9" y1="478.8" x2="-182" y2="527"/>
	<line id="XMLID_2620_" class="st1" x1="-189.2" y1="551.9" x2="-303.7" y2="489.9"/>
	<line id="XMLID_2619_" class="st1" x1="-303.9" y1="434.8" x2="-303.9" y2="556.9"/>
	<line id="XMLID_2618_" class="st1" x1="-312.2" y1="350.9" x2="-309.1" y2="420.7"/>
	<path id="XMLID_2617_" class="st1" d="M-289.1,420.7l16.8-32.2l11.7,8.1l29.8-30l12.4,5.1c0,0,36.6-44.2,18.8-159.6h-75.5"/>
	<polyline id="XMLID_2616_" class="st1" points="-123,604.8 -165.4,615.2 -203.8,644.1 	"/>
	<line id="XMLID_2615_" class="st1" x1="-138.5" y1="609.8" x2="-82.4" y2="852.9"/>
	<path id="XMLID_2614_" class="st1" d="M-81.3,415.8c-13.4-97.4,3.2-178,12.4-212.7"/>
	<path id="XMLID_2613_" class="st1" d="M-138.4,514c0,0,1.8-66.3,40.5-82.6l12.9-10.7l26.8-34c2.8-3.6,4.2-8,4-12.5
		c-3.1-52.5,1.8-98.1,7.8-131.4c0.9-5.1-0.3-10.3-3.4-14.4l-20.2-27h-42.7v-41.8c-0.1-8.6-0.6-16.3-1.5-23.1
		c-4.4-34.5-33.9-60.2-68.6-60.2h-282.4c-32.4,0-61.5,20.1-72.9,50.5c-60.7,162.6,0.3,294,0.3,294h359.7"/>
	<path id="XMLID_2573_" class="st1" d="M-82.4,852.9C-152.1,904-244.2,935-345.1,935c-94.3,0-180.8-27.1-248.7-72.3"/>
	<circle id="XMLID_2572_" class="st1" cx="-335.2" cy="385.8" r="10.2"/>
	<circle id="XMLID_2569_" class="st1" cx="-456.8" cy="133.5" r="29.2"/>
	<circle id="XMLID_2566_" class="st1" cx="-377.1" cy="133.5" r="29.2"/>
	<circle id="XMLID_2565_" class="st1" cx="-297.4" cy="133.5" r="29.2"/>
	<circle id="XMLID_2562_" class="st1" cx="-217.7" cy="133.5" r="29.2"/>
</g>
<g class="">
    <path id="XMLID_7_" class="icon st2" d="M-441,143.5c-1.5-4.3-5.2-8.1-8.7-10.9c5.1-4,15.8-18.1-0.8-15.6c-7.3,1-17.9,7.5-20,15
        c-1.1-2-2.3-3.9-3.7-5.8c-2-2.6-4.3-0.6-2.1,2.1c6.3,7.6,10.6,16.7,10.6,25.8c0.5-4.5-0.3-10.1-2.2-15.5c1,0.3,2,0.4,3,0.4
        c3.4,5.1,8.6,9.5,14.4,11.6C-445.2,152.6-438.1,151.4-441,143.5z M-449,118.9c9.2-0.9-0.7,9.7-3.9,11.6c-3-1.8-6.8-3.4-10.5-3
        C-460.7,124.4-454.3,119.5-449,118.9z M-463.5,129.8c2.5-0.2,5.2,1.1,7.3,2.4c-2,0.9-4.2,1.5-6.5,1.7
        C-466,134-466.7,130.2-463.5,129.8z M-450.7,146.4c-4.4-1.2-8.4-4.4-11.4-7.7c2.4-0.4,4.8-1.3,7-2.6c0.8-0.3,1.6-0.9,2.4-1.4
        c2.6,2.2,5.2,5.1,6.3,8.4C-445.4,146.8-448.2,147.1-450.7,146.4z"/>
</g>
<g id="XMLID_2091_" class="icon st7">
	<g id="XMLID_2102_">
		<path id="XMLID_2103_" class="st3" d="M-304,246.4h-24.7v-7.6h12.2C-311.1,238.7-306.3,241.8-304,246.4z"/>
	</g>
	<g id="XMLID_2100_">
		<path id="XMLID_2101_" class="st3" d="M-304.1,259.4c-2.1,4-6.1,6.8-10.8,7.4h-13.8v-7.4H-304.1z"/>
	</g>
	<g id="XMLID_2098_">
		<path id="XMLID_2099_" class="st3" d="M-302.5,252.8c0,1.1-0.1,2.3-0.4,3.3h-25.9v-6.5h25.9C-302.6,250.6-302.5,251.7-302.5,252.8
			z"/>
	</g>
	<g id="XMLID_2096_">
		<path id="XMLID_2097_" class="st3" d="M-332,238.7v28h-13c-7-0.8-12.5-6.7-12.5-13.9c0-7.7,6.3-14,14-14h11.5V238.7z"/>
	</g>
	<g id="XMLID_2094_">
		<path id="XMLID_2095_" class="st3" d="M-321.9,270.3v20.3c0,2.3-1.9,4.2-4.2,4.2h-2.7v-24.4h6.9V270.3z"/>
	</g>
	<g id="XMLID_2092_">
		<path id="XMLID_2093_" class="st3" d="M-332,270.3v24.4h-23.7c-0.1,0-0.3,0-0.4,0h-0.1c-0.1,0-0.2,0-0.3,0h-0.1
			c-0.1,0-0.2,0-0.3-0.1h-0.1c-0.1,0-0.2-0.1-0.2-0.1s-0.1,0-0.1-0.1c-0.1,0-0.1-0.1-0.2-0.1c0,0-0.1,0-0.1-0.1
			c-0.1,0-0.2-0.1-0.3-0.2c0,0,0,0-0.1,0c-0.1-0.1-0.2-0.1-0.3-0.2c0,0-0.1,0-0.1-0.1c-0.1-0.1-0.1-0.1-0.2-0.2c0,0-0.1,0-0.1-0.1
			c-0.1-0.1-0.1-0.1-0.2-0.2l0,0c-0.1-0.1-0.1-0.2-0.2-0.3c0,0,0-0.1-0.1-0.1c0-0.1-0.1-0.1-0.1-0.2c0,0,0-0.1-0.1-0.1
			c0-0.1-0.1-0.1-0.1-0.2c0,0,0-0.1-0.1-0.1l0,0c0-0.1-0.1-0.2-0.1-0.3c0,0,0-0.1,0-0.2s0-0.2-0.1-0.2v-0.1c0-0.1,0-0.2,0-0.3V291
			c0-0.1,0-0.3,0-0.4l0,0l0,0c0-0.1,0-0.2,0-0.3v-0.1c0-0.1,0-0.2,0-0.3v-0.1c0-0.1,0.1-0.2,0.1-0.3v-0.1c0-0.1,0-0.1,0.1-0.2
			c0,0,0-0.1,0.1-0.1c0-0.1,0.1-0.1,0.1-0.2c0,0,0-0.1,0.1-0.1c0.1-0.1,0.1-0.2,0.2-0.3c0,0,0-0.1,0.1-0.1c0-0.1,0.1-0.1,0.2-0.2
			c0,0,0-0.1,0.1-0.1c0-0.1,0.1-0.1,0.2-0.2l0.1-0.1l0,0l18-17.3h8.4V270.3z"/>
	</g>
</g>
<path id="XMLID_28_" class="st4 icon" d="M-369.3,144.7c0-0.1,0-0.1,0.1-0.2c0.1,0,0.1-0.1,0.2,0c1.1,0.6,2.3,1,3.5,1.4
	c0.1,0,0.1,0,0.2,0c0.5-0.5,1-1.1,1.5-1.6c0-0.1,0.1-0.1,0-0.2c-0.5-1.2-1-2.3-1.7-3.4c0-0.1,0-0.1,0-0.2c0-0.1,0.1-0.1,0.2-0.1
	c0.3,0,0.6,0,1,0c1,0,2-0.1,2.9-0.2c0.1,0,0.1-0.1,0.2-0.1c0.3-0.7,0.5-1.3,0.7-2c0-0.1,0-0.1-0.1-0.2c-0.9-0.9-1.9-1.8-3-2.5
	c-0.1,0-0.1-0.1-0.1-0.2c0-0.1,0.1-0.1,0.1-0.2c1.2-0.5,2.4-1.1,3.5-1.8c0.1,0,0.1-0.1,0.1-0.2c0-0.7-0.1-1.4-0.2-2
	c0-0.1-0.1-0.1-0.1-0.2c-1.2-0.5-2.5-0.8-3.9-1.1c-0.1,0-0.1-0.1-0.2-0.1c0-0.1,0-0.1,0-0.2c1-1,1.8-2,2.5-3.2c0-0.1,0-0.1,0-0.2
	c-0.3-0.6-0.7-1.2-1-1.8l0,0c-1.4,0-2.8,0.3-4.1,0.6h-0.1c-0.1,0-0.1,0-0.2-0.1c0-0.1-0.1-0.1,0-0.2c0,0,0,0,0-0.1
	c0.5-1.3,0.8-2.6,1-4h0.1c-0.6-0.5-1.2-1-1.9-1.4l0,0c0,0.1,0,0.1-0.1,0.2c-1.2,0.6-2.3,1.3-3.4,2.2l0,0c-0.1,0-0.1,0.1-0.2,0
	c-0.1,0-0.1-0.1-0.1-0.2c0,0,0,0,0-0.1c-0.1-1.3-0.3-2.7-0.7-4c0-0.1,0-0.1,0.1-0.2l0,0c-0.8-0.2-1.5-0.4-2.3-0.5l0,0
	c0.1,0.1,0.1,0.2,0,0.2c-0.9,1-1.6,2.2-2.2,3.4v0.1c0,0.1-0.1,0.1-0.2,0.1s-0.1,0-0.2-0.1V120c-0.6-1.2-1.4-2.3-2.2-3.4
	c0-0.1-0.1-0.1,0-0.2l0,0c-0.8,0.1-1.5,0.3-2.3,0.5l0,0c0.1,0,0.1,0.1,0.1,0.2c-0.4,1.3-0.6,2.6-0.6,4v0.1c0,0.1,0,0.1-0.1,0.2
	s-0.1,0-0.2,0l0,0c-1-0.8-2.2-1.6-3.4-2.2c-0.1,0-0.1-0.1-0.1-0.2l0,0c-0.7,0.4-1.3,0.9-1.9,1.4h0.1c0.2,1.4,0.5,2.7,1,4v0.1
	c0,0.1,0,0.1,0,0.2c0,0.1-0.1,0.1-0.2,0.1h-0.1c-1.3-0.4-2.7-0.6-4.1-0.6c0,0,0,0,0-0.1c-0.4,0.6-0.8,1.3-1.1,2l0,0
	c0.7,1.2,1.6,2.3,2.6,3.2l0,0c0.1,0.1,0.1,0.1,0,0.2c0,0.1-0.1,0.1-0.2,0.1h-0.1c-1.3,0.2-2.6,0.6-3.9,1.1c-0.1,0-0.1,0.1-0.1,0.2
	c-0.1,0.7-0.2,1.4-0.2,2c0,0.1,0,0.1,0.1,0.2c1.1,0.7,2.3,1.3,3.5,1.8c0.1,0,0.1,0.1,0.1,0.2s0,0.1-0.1,0.2c-1.1,0.7-2.1,1.5-3,2.5
	c0,0.1-0.1,0.1-0.1,0.2c0.2,0.7,0.4,1.4,0.7,2c0,0.1,0.1,0.1,0.2,0.1c0.9,0.1,1.9,0.2,2.8,0.2c0.3,0,0.7,0,1,0c0.1,0,0.1,0,0.2,0.1
	s0,0.1,0,0.2c-0.7,1.1-1.3,2.2-1.7,3.4c0,0.1,0,0.1,0,0.2c0.5,0.6,1,1.1,1.5,1.6c0.1,0,0.1,0.1,0.2,0c1.2-0.3,2.4-0.8,3.5-1.4
	c0.1,0,0.1,0,0.2,0s0.1,0.1,0.1,0.2c-0.2,1.2-0.3,2.5-0.2,3.8c0,0.1,0,0.1,0.1,0.2c0.7,0.3,1.4,0.7,2.1,0.9c0.1,0,0.1,0,0.2,0
	c1-0.8,1.9-1.7,2.6-2.7c0-0.1,0.1-0.1,0.2-0.1s0.1,0.1,0.2,0.1c0.3,1.2,0.8,2.4,1.3,3.5c0,0.1,0.1,0.1,0.2,0.1c0.4,0,0.7,0,1.1,0
	s0.8,0,1.2,0c0.1,0,0.1,0,0.2-0.1c0.6-1.1,1-2.3,1.3-3.5c0-0.1,0.1-0.1,0.1-0.1s0.1,0,0.2,0.1c0.8,1,1.7,1.9,2.7,2.7
	c0.1,0,0.1,0.1,0.2,0c0.7-0.3,1.4-0.6,2.1-0.9c0.1,0,0.1-0.1,0.1-0.2C-369,147.2-369.1,145.9-369.3,144.7z M-363.1,138
	c0.1,0.1,0.1,0.3-0.1,0.4c-0.4,0-0.7,0-1.1,0c-0.3,0-0.6,0-0.9,0c-0.7,0-1.4-0.1-2.1-0.3c0,0-0.1,0-0.1-0.1
	c-0.5-0.6-1.1-1.1-1.8-1.6c-0.1-0.1-0.1-0.1-0.1-0.2c0-0.1,0.1-0.1,0.2-0.1c0.8,0,1.6-0.1,2.4-0.3h0.1
	C-365.3,136.3-364.1,137.1-363.1,138L-363.1,138z M-364.5,131.5c0.7,0.1,1.3,0.2,1.9,0.4c0.2,0,0.2,0.3,0,0.4
	c-1.2,0.6-2.5,1.1-3.8,1.5h-0.1c-0.7-0.3-1.5-0.6-2.3-0.8c-0.1,0-0.1-0.1-0.1-0.2c0-0.1,0-0.2,0.1-0.2c0.7-0.4,1.4-0.8,2.1-1.2h0.1
	C-365.9,131.3-365.2,131.4-364.5,131.5z M-364.3,126.5c-0.8,1.1-1.8,2-2.9,2.9h-0.1c-0.8,0-1.6,0.1-2.4,0.2c-0.1,0-0.2,0-0.2-0.1
	s0-0.2,0-0.2c0.5-0.6,0.9-1.3,1.3-1.9l0.1-0.1c1.3-0.5,2.6-0.9,4-1.1C-364.3,126.1-364.2,126.3-364.3,126.5z M-371.9,124.4
	c0,0,0-0.1,0.1-0.1c0.9-1,2-1.9,3.2-2.6c0.2-0.1,0.3,0,0.3,0.2c-0.3,1.3-0.8,2.6-1.5,3.8l-0.1,0.1c-0.7,0.3-1.4,0.7-2.1,1.2
	c-0.1,0-0.2,0-0.2,0c-0.1,0-0.1-0.1-0.1-0.2C-372.1,126-372,125.2-371.9,124.4z M-384,122.8c0.6,0.5,1.1,1,1.6,1.5
	c0,0,0,0.1,0.1,0.1c0.1,0.8,0.3,1.6,0.5,2.3c0,0.1,0,0.2-0.1,0.2s-0.2,0.1-0.2,0c-0.7-0.4-1.4-0.8-2.1-1.1c0,0-0.1,0-0.1-0.1
	c-0.7-1.2-1.2-2.5-1.5-3.8c0-0.2,0.1-0.3,0.3-0.2C-385,122.1-384.5,122.5-384,122.8z M-389.8,126.5c-0.1-0.1,0-0.3,0.2-0.3
	c1.4,0.2,2.7,0.6,3.9,1.1c0,0,0.1,0,0.1,0.1c0.4,0.7,0.9,1.3,1.4,1.9c0.1,0.1,0.1,0.2,0,0.2c0,0.1-0.1,0.1-0.2,0.1
	c-0.8-0.1-1.6-0.2-2.4-0.2h-0.1C-387.9,128.6-388.9,127.6-389.8,126.5z M-391.6,132c1.3-0.4,2.7-0.6,4.1-0.6h0.1
	c0.6,0.4,1.3,0.9,2,1.2c0.1,0,0.1,0.1,0.1,0.2c0,0.1-0.1,0.1-0.1,0.2c-0.8,0.2-1.5,0.5-2.3,0.8h-0.1c-1.3-0.3-2.6-0.8-3.8-1.4
	C-391.8,132.2-391.8,132-391.6,132z M-389,138.4c-0.7,0-1.3,0-2,0c-0.2,0-0.3-0.2-0.1-0.3c1.1-0.9,2.2-1.6,3.5-2.2h0.1
	c0.8,0.1,1.6,0.2,2.4,0.3c0.1,0,0.2,0.1,0.2,0.1c0,0.1,0,0.2-0.1,0.2c-0.6,0.5-1.2,1.1-1.7,1.6l-0.1,0.1
	C-387.5,138.2-388.2,138.3-389,138.4z M-386,142.8c-0.6,0.3-1.2,0.6-1.8,0.8c-0.2,0.1-0.3-0.1-0.2-0.3c0.6-1.2,1.4-2.4,2.3-3.4
	l0.1-0.1c0.8-0.2,1.5-0.4,2.3-0.7c0.1,0,0.2,0,0.2,0.1c0.1,0.1,0.1,0.1,0,0.2c-0.4,0.7-0.7,1.5-0.9,2.2c0,0,0,0.1-0.1,0.1
	C-384.7,142.1-385.4,142.5-386,142.8z M-381.5,145.6c-0.4,0.5-0.9,1-1.3,1.5c-0.1,0.1-0.3,0-0.3-0.1c0-1.4,0.3-2.7,0.7-4.1
	c0,0,0-0.1,0.1-0.1c0.6-0.5,1.2-1,1.8-1.6c0.1-0.1,0.1-0.1,0.2,0c0.1,0,0.1,0.1,0.1,0.2c0,0.8,0,1.6,0.1,2.4v0.1
	C-380.6,144.5-381.1,145.1-381.5,145.6z M-380.4,123.6v-0.1c-0.1-1.4-0.1-2.7,0.2-4.1c0-0.2,0.3-0.2,0.4-0.1c0.4,0.5,0.7,1.1,1,1.6
	c0.3,0.7,0.6,1.3,0.9,2v0.1c-0.2,0.8-0.4,1.5-0.5,2.3c0,0.1-0.1,0.1-0.2,0.2c-0.1,0-0.2,0-0.2-0.1
	C-379.4,124.9-379.9,124.2-380.4,123.6z M-376.2,146.4c-0.2,0.6-0.4,1.3-0.6,1.9c-0.1,0.2-0.3,0.2-0.4,0c-0.5-1.3-0.9-2.6-1-4v-0.1
	c0.4-0.7,0.7-1.4,1-2.2c0-0.1,0.1-0.1,0.2-0.1s0.2,0,0.2,0.1c0.3,0.7,0.6,1.5,1,2.2v0.1C-375.9,145-376.1,145.7-376.2,146.4z
	 M-375.5,125.4c-0.1-0.8-0.3-1.5-0.5-2.3V123c0.4-1.3,1.1-2.5,1.8-3.7c0.1-0.1,0.3-0.1,0.4,0.1c0.2,1.3,0.3,2.7,0.2,4.1v0.1
	c-0.5,0.6-1,1.2-1.4,1.9c0,0.1-0.1,0.1-0.2,0.1C-375.5,125.6-375.5,125.5-375.5,125.4z M-373.9,143.7c0.1-0.8,0.1-1.6,0-2.4
	c0-0.1,0-0.2,0.1-0.2s0.2,0,0.2,0c0.6,0.6,1.2,1.1,1.8,1.6l0.1,0.1c0.4,1.3,0.6,2.7,0.7,4c0,0.2-0.2,0.3-0.3,0.2c-1-1-1.9-2-2.6-3.2
	C-373.9,143.8-373.9,143.8-373.9,143.7L-373.9,143.7z M-370.7,139.1c0.7,0.3,1.5,0.5,2.3,0.7c0,0,0.1,0,0.1,0.1
	c0.9,1,1.7,2.2,2.3,3.4c0.1,0.2-0.1,0.3-0.2,0.3c-1.3-0.5-2.5-1.1-3.7-1.9l-0.1-0.1c-0.3-0.8-0.6-1.5-0.9-2.2c0-0.1,0-0.2,0-0.2
	C-370.9,139.1-370.8,139.1-370.7,139.1L-370.7,139.1z"/>
<path id="XMLID_33_" class="st5 icon" d="M-286.9,120.6h-22.3c-0.8,0-1.4,0.6-1.4,1.4v2.5c0,0.8,0.6,1.4,1.4,1.4h22.3
	c0.8,0,1.4-0.6,1.4-1.4V122C-285.5,121.2-286.1,120.6-286.9,120.6L-286.9,120.6z M-286.9,134.6h-22.3c-0.4,0-0.7,0.1-1,0.4
	c-0.3,0.3-0.4,0.6-0.4,1v2.5c0,0.8,0.6,1.4,1.4,1.4h22.3c0.8,0,1.4-0.6,1.4-1.4V136C-285.5,135.2-286.1,134.6-286.9,134.6
	L-286.9,134.6z M-296.6,141.6h-12.6c-0.4,0-0.7,0.1-1,0.4c-0.3,0.3-0.4,0.6-0.4,1v2.5c0,0.8,0.6,1.4,1.4,1.4h12.6
	c0.8,0,1.4-0.6,1.4-1.4V143C-295.3,142.2-295.9,141.6-296.6,141.6L-296.6,141.6z M-285.5,127.6h-23.8c-0.4,0-0.7,0.1-1,0.4
	c-0.3,0.3-0.4,0.6-0.4,1v2.5c0,0.8,0.6,1.4,1.4,1.4h23.7c0.8,0,1.4-0.6,1.4-1.4V129C-284.1,128.2-284.7,127.6-285.5,127.6
	L-285.5,127.6z"/>
<g class="icon st6">
	<polygon class="i" points="-211.9,125.1 -201.5,143.6 -201.5,125.1 -217.3,116.2 -217.4,115.9 -217.6,116 -217.7,115.9 
		-217.7,116 -233.9,125.1 -233.8,125.1 -212.3,125.1 	"/>
	<polygon class="st6" points="-218.1,152.5 -217.9,152.8 -217.8,152.7 -217.6,152.8 -217.7,152.7 -201.5,143.6 -223,143.6 
		-223.4,143.6 -233.8,125.1 -233.8,143.6 	"/>
</g>
</svg>
