<?xml version="1.0" encoding="utf-8"?>
<!-- Generator: Adobe Illustrator 19.0.0, SVG Export Plug-In . SVG Version: 6.00 Build 0)  -->
<svg version="1.1" id="Layer_1" xmlns="http://www.w3.org/2000/svg" xmlns:xlink="http://www.w3.org/1999/xlink" x="0px" y="0px"
	 viewBox="0 0 75 65" style="enable-background:new 0 0 75 65;" xml:space="preserve">
<style type="text/css">
	.st0{fill:url(#XMLID_58_);}
</style>
<g id="XMLID_2_">
	<linearGradient id="XMLID_58_" gradientUnits="userSpaceOnUse" x1="6.6667" y1="32.7092" x2="67.1673" y2="32.7092">
		<stop  offset="0" style="stop-color:#55F1CA"/>
		<stop  offset="1" style="stop-color:#4BCBFA"/>
	</linearGradient>
	<path id="XMLID_3_" class="st0" d="M33.5,56.7H10.2c-2.4-7.1-3.5-14.4-3.5-22c0-7.6,2.1-13.8,6.3-18.6c4.2-4.8,10.4-7.3,18.5-7.3
		v11.5c-6.2,0-9.2,3.9-9.2,11.7v2.8h11.2V56.7z M67.2,56.7H43.9c-2.4-7.1-3.5-14.4-3.5-22c0-7.6,2.1-13.8,6.3-18.6
		c4.2-4.8,10.4-7.3,18.5-7.3v11.5c-6.2,0-9.2,3.9-9.2,11.7v2.8h11.2V56.7z"/>
</g>
</svg>
