<?xml version="1.0" encoding="utf-8"?>
<!-- Generator: Adobe Illustrator 19.0.0, SVG Export Plug-In . SVG Version: 6.00 Build 0)  -->
<svg version="1.1" id="Layer_1" xmlns="http://www.w3.org/2000/svg" xmlns:xlink="http://www.w3.org/1999/xlink" x="0px" y="0px"
	 viewBox="0 0 300 300" style="enable-background:new 0 0 300 300;" xml:space="preserve">
<style type="text/css">
	.st0{fill:url(#XMLID_2_);}
</style>
<linearGradient id="XMLID_2_" gradientUnits="userSpaceOnUse" x1="1" y1="150.5" x2="300" y2="150.5">
	<stop  offset="0" style="stop-color:#55F1CA"/>
	<stop  offset="1" style="stop-color:#4BCBFA"/>
</linearGradient>
<path id="XMLID_6_" class="st0" d="M150.5,1C67.9,1,1,67.9,1,150.5S67.9,300,150.5,300S300,233.1,300,150.5S233.1,1,150.5,1z
	 M171.9,191.4c-36.4,18.5-72.5,1-73.9,0c-1.3-1,28.5-4.6,32.8-7.9L111,164.9l9.3-2.3L98,137.1l11-0.7c0,0-10.3-15.9-7.6-33.1
	c0,0,28.5,28.8,54,30.1c0,0,0-45.4,45.7-26.8l9.9,0.7l-7.5,8.2l9.2,2.7l-10.3,7.3C202.4,125.5,208.4,172.9,171.9,191.4z"/>
</svg>
