<svg width="300" height="331" viewBox="0 0 300 331" fill="none" xmlns="http://www.w3.org/2000/svg">
    <path d="M286.147 69.4058C303.998 90.5024 301.971 128.235 294.666 158.506C287.28 188.853 274.54 211.829 256.689 239.26C238.839 266.691 215.893 298.644 185.526 306.03C155.159 313.416 117.522 296.155 84.4167 268.723C51.3114 241.292 22.6611 203.539 15.0363 158.262C7.41655 112.899 20.7156 59.9116 53.826 38.815C86.9363 17.7185 139.919 28.508 185.282 36.1379C230.559 43.8441 268.292 48.3092 286.147 69.4058Z" fill="#F7FBFF"/>
    <path d="M144.542 102.456C143.851 105.834 144.603 130.019 143.602 133.834C142.601 137.649 131.497 184.271 131.497 184.271L149.159 179.39C149.159 179.39 155.352 165.781 157.597 153.528C159.573 142.744 159.288 102.644 144.542 102.456Z" fill="#D18C65"/>
    <path d="M127.397 113.133H115.937L109.374 88.2422H120.839L127.397 113.133Z" fill="#001B2E"/>
    <path d="M275.81 182.346H151.298V306.858H275.81V182.346Z" fill="#E0E0E0"/>
    <path d="M174.355 219.739C181.285 219.739 186.902 214.121 186.902 207.192C186.902 200.262 181.285 194.645 174.355 194.645C167.426 194.645 161.808 200.262 161.808 207.192C161.808 214.121 167.426 219.739 174.355 219.739Z" fill="#A4A4A4"/>
    <path d="M197.448 201.812H261.063" stroke="white" stroke-width="2.04" stroke-linecap="round" stroke-linejoin="round"/>
    <path d="M197.448 212.566H225.651" stroke="white" stroke-width="2.04" stroke-linecap="round" stroke-linejoin="round"/>
    <path d="M197.448 239.225H261.063" stroke="white" stroke-width="2.04" stroke-linecap="round" stroke-linejoin="round"/>
    <path d="M197.448 249.979H225.651" stroke="white" stroke-width="2.04" stroke-linecap="round" stroke-linejoin="round"/>
    <path d="M197.448 276.633H261.063" stroke="white" stroke-width="2.04" stroke-linecap="round" stroke-linejoin="round"/>
    <path d="M197.448 287.387H225.651" stroke="white" stroke-width="2.04" stroke-linecap="round" stroke-linejoin="round"/>
    <path d="M174.355 257.146C181.285 257.146 186.902 251.529 186.902 244.599C186.902 237.67 181.285 232.052 174.355 232.052C167.426 232.052 161.808 237.67 161.808 244.599C161.808 251.529 167.426 257.146 174.355 257.146Z" fill="white"/>
    <path d="M174.355 294.56C181.285 294.56 186.902 288.942 186.902 282.012C186.902 275.083 181.285 269.465 174.355 269.465C167.426 269.465 161.808 275.083 161.808 282.012C161.808 288.942 167.426 294.56 174.355 294.56Z" fill="white"/>
    <path d="M32.4246 299.487L44.1336 292.746L51.54 306.309L37.9007 313.045L32.4246 299.487Z" fill="#E49D75"/>
    <path d="M118.33 292.746L120.941 307.736L136.775 305.044L131.553 288.032L118.33 292.746Z" fill="#E49D75"/>
    <path d="M157.516 173.35C152.852 173.604 76.3347 190.22 75.3391 194.116C67.1453 226.078 113.946 293.173 117.385 295.205C121.093 294.311 133.747 289.901 133.747 289.901L130.841 245.163L157.516 173.35Z" fill="#0077B6"/>
    <path d="M41.3499 315.148L32.003 295.611L6.56823 271.273L0 274.89L25.1808 323.149L41.3499 315.148Z" fill="#001B2E"/>
    <path d="M137.973 301.453L116.648 305.253L86.403 323.271L88.1453 330.571L141.372 319.171L137.973 301.453Z" fill="#001B2E"/>
    <path d="M216.543 153.528C219.52 155.911 222.639 166.649 223 170.292C226.896 212.546 157.348 237.427 147.717 241.602C138.573 249.247 58.8194 308.042 53.958 309.433C49.0966 310.825 41.1467 292.162 41.8426 289.668C42.5386 287.174 159.431 169.667 159.431 169.667L216.543 153.528Z" fill="#0077B6"/>
    <path d="M160.619 77.4677C150.78 72.6063 141.682 99.2703 142.556 102.323C143.429 105.376 152.461 106.25 154.747 106.25C157.033 106.25 160.619 77.4677 160.619 77.4677Z" fill="#00B4D8"/>
    <path d="M179.486 62.1724C215.4 62.1724 218.789 147.793 218.382 153.635C214.755 165.542 171.252 179.847 157.861 172.019C136.612 122.196 146.401 62.1724 179.486 62.1724Z" fill="#00B4D8"/>
    <path d="M215.314 104.386C217.321 107.81 221.638 130.12 221.207 133.031C220.775 135.942 214.095 143.287 211.717 143.45C177.916 145.746 141.255 132.238 134.402 128.444C120.067 127.301 111.584 122.125 111.584 114.556C111.584 110.085 114.063 106.865 115.429 106.865C118.02 106.865 122.622 111.33 123.181 112.635C122.063 110.339 118.558 106.123 121.444 106.123C122.246 106.123 128.759 115.226 132.294 117.436C135.83 119.646 186.857 121.5 197.088 125.218C195.782 122.617 192.125 113.189 192.064 111.828C192.003 110.466 215.314 104.386 215.314 104.386Z" fill="#E49D75"/>
    <path d="M189.813 68.9942C205.363 63.2946 217.656 99.2192 217.153 103.771C216.65 108.322 191.754 116.293 188.95 114.647C186.146 113.001 174.401 74.643 189.813 68.9942Z" fill="#00B4D8"/>
    <path d="M180.502 46.5923C180.334 48.7512 181.65 60.8158 183.707 64.7527C182.798 66.5408 173.451 71.7375 168.976 70.625C168.366 67.2825 166.746 58.3064 165.42 55.5734C167.812 54.3238 180.502 46.5923 180.502 46.5923Z" fill="#D18C65"/>
    <path d="M169.016 57.0657C179.901 54.1776 185.79 40.7769 182.171 27.1344C178.551 13.4919 166.793 4.77375 155.908 7.66181C145.023 10.5499 139.134 23.9505 142.754 37.593C146.373 51.2355 158.132 59.9537 169.016 57.0657Z" fill="#E49D75"/>
    <path d="M172.039 32.0284C170.911 32.0893 166.609 29.8948 165.654 23.3114C162.55 22.8034 148.865 24.2613 141.692 29.9152C139.035 30.9311 136.881 31.7795 132.863 31.7795C130.958 31.7795 129.343 29.7882 129.343 28.4217C129.343 24.6575 130.958 21.0102 135.677 20.7664C131.705 20.68 128.022 18.2265 128.022 16.418C128.022 14.0153 133.483 6.64443 143.008 9.87521C140.772 8.25982 138.248 6.68507 138.248 5.15604C138.248 2.53992 142.012 0 148.595 0C158.78 0 169.88 4.22135 172.278 7.24385C173.395 6.66475 174.818 5.58782 177.54 5.58782C184.327 5.58782 186.603 27.5734 183.667 34.9442C182.939 35.4113 182.126 35.7275 181.274 35.8738" fill="#001B2E"/>
    <path d="M171.836 32.5112C172.172 31.5526 172.793 30.719 173.614 30.1207C174.435 29.5225 175.419 29.1878 176.434 29.1612C177.45 29.1345 178.45 29.417 179.301 29.9713C180.153 30.5256 180.816 31.3256 181.203 32.2652C181.589 33.2048 181.681 34.2397 181.467 35.2328C181.252 36.2259 180.741 37.1303 180 37.8262C179.26 38.5222 178.326 38.9768 177.321 39.1298C176.317 39.2829 175.29 39.1271 174.376 38.6832" fill="#E49D75"/>
    </svg>
