<?xml version="1.0" encoding="UTF-8" standalone="no" ?>
<!DOCTYPE svg PUBLIC "-//W3C//DTD SVG 1.1//EN" "http://www.w3.org/Graphics/SVG/1.1/DTD/svg11.dtd">
<svg xmlns="http://www.w3.org/2000/svg" xmlns:xlink="http://www.w3.org/1999/xlink" version="1.1" width="640" height="480" viewBox="0 0 640 480" xml:space="preserve">
<desc>Created with Fabric.js 3.6.3</desc>
<defs>
</defs>
<g transform="matrix(0.45 0 0 0.45 320.43 240.31)"  >
<g style=""   >
		<g transform="matrix(1 0 0 1 -49.24 -67.48)" id="f7dcc58f-beb5-4050-9d04-9a029c12a87b"  >
<path style="stroke: none; stroke-width: 1; stroke-dasharray: none; stroke-linecap: butt; stroke-dashoffset: 0; stroke-linejoin: miter; stroke-miterlimit: 4; fill: rgb(242,242,242); fill-rule: nonzero; opacity: 1;"  transform=" translate(-550.76, -382.52)" d="M 968.81006 506.95174 c -5.27 45.15 -16.22 81.4 -31.25 110.31 c -20.00006 38.52 -54.21008 54.04 -84.77008 70.28 a 193.27677 193.27677 0 0 1 -27.46 11.94 c -55.61 19.3 -117.85 14.18 -166.74 3.99 a 657.297 657.297 0 0 0 -104.09 -13.16 q -14.97 -0.67493 -29.97 -0.67 c -15.42 0.02 -293.07 5.29 -360.67 -131.57 c -16.69 -33.76 -28.13 -75 -32.24 -125.27 c -11.63 -142.12 52.29 -235.46 134.74 -296.47 c 155.97 -115.41 369.76 -110.57 523.43 7.88 C 892.15 223.11178 987.99 342.52175 968.81006 506.95174 Z" stroke-linecap="round" />
</g>
		<g transform="matrix(1 0 0 1 -330 -36.33)" id="f7dcc58f-beb5-4050-9d04-9a029c12a87b"  >
<path style="stroke: none; stroke-width: 1; stroke-dasharray: none; stroke-linecap: butt; stroke-dashoffset: 0; stroke-linejoin: miter; stroke-miterlimit: 4; fill: rgb(108,99,255); fill-rule: nonzero; opacity: 1;"  transform=" translate(-270, -413.67)" d="M 420 465.80655 c 0 112.96734 -67.15729 152.41131 -150 152.41131 s -150 -39.444 -150 -152.41131 S 270 209.127 270 209.127 S 420 352.83922 420 465.80655 Z" stroke-linecap="round" />
</g>
		<g transform="matrix(1 0 0 1 -332.87 15.19)" id="f7dcc58f-beb5-4050-9d04-9a029c12a87b"  >
<polygon style="stroke: none; stroke-width: 1; stroke-dasharray: none; stroke-linecap: butt; stroke-dashoffset: 0; stroke-linejoin: miter; stroke-miterlimit: 4; fill: rgb(63,61,86); fill-rule: nonzero; opacity: 1;"  points="-2.59,135.75 -1.06,41.21 62.88,-75.76 -0.81,26.37 -0.12,-16.14 43.94,-100.76 0.06,-27.39 0.06,-27.39 1.3,-103.84 48.48,-171.21 1.5,-115.87 2.27,-256.06 -2.61,-70.47 -2.2,-78.12 -50.18,-151.55 -2.97,-63.43 -7.44,21.96 -7.58,19.7 -62.88,-57.58 -7.74,27.7 -8.3,38.38 -8.4,38.54 -8.36,39.42 -19.7,256.06 -4.55,256.06 -2.73,144.16 52.27,59.09 -2.59,135.75 " />
</g>
		<g transform="matrix(1 0 0 1 330 -29.33)" id="f7dcc58f-beb5-4050-9d04-9a029c12a87b"  >
<path style="stroke: none; stroke-width: 1; stroke-dasharray: none; stroke-linecap: butt; stroke-dashoffset: 0; stroke-linejoin: miter; stroke-miterlimit: 4; fill: rgb(108,99,255); fill-rule: nonzero; opacity: 1;"  transform=" translate(-930, -420.67)" d="M 1080 472.80655 c 0 112.96734 -67.15729 152.41131 -150 152.41131 s -150 -39.444 -150 -152.41131 S 930 216.127 930 216.127 S 1080 359.83922 1080 472.80655 Z" stroke-linecap="round" />
</g>
		<g transform="matrix(1 0 0 1 327.13 22.19)" id="f7dcc58f-beb5-4050-9d04-9a029c12a87b"  >
<polygon style="stroke: none; stroke-width: 1; stroke-dasharray: none; stroke-linecap: butt; stroke-dashoffset: 0; stroke-linejoin: miter; stroke-miterlimit: 4; fill: rgb(63,61,86); fill-rule: nonzero; opacity: 1;"  points="-2.59,135.75 -1.05,41.21 62.88,-75.76 -0.81,26.37 -0.12,-16.14 43.94,-100.76 0.06,-27.39 0.06,-27.39 1.3,-103.84 48.49,-171.21 1.5,-115.87 2.27,-256.06 -2.6,-70.47 -2.2,-78.12 -50.18,-151.55 -2.97,-63.43 -7.44,21.96 -7.58,19.7 -62.88,-57.58 -7.74,27.7 -8.3,38.38 -8.4,38.54 -8.36,39.42 -19.7,256.06 -4.55,256.06 -2.73,144.16 52.27,59.09 -2.59,135.75 " />
</g>
		<g transform="matrix(1 0 0 1 4 -130.14)" id="f7dcc58f-beb5-4050-9d04-9a029c12a87b"  >
<path style="stroke: none; stroke-width: 1; stroke-dasharray: none; stroke-linecap: butt; stroke-dashoffset: 0; stroke-linejoin: miter; stroke-miterlimit: 4; fill: rgb(108,99,255); fill-rule: nonzero; opacity: 1;"  transform=" translate(-604, -319.86)" d="M 768 376.86433 c 0 123.51095 -73.4253 166.63636 -164 166.63636 S 440 500.37528 440 376.86433 S 604 96.228 604 96.228 S 768 253.35337 768 376.86433 Z" stroke-linecap="round" />
</g>
		<g transform="matrix(1 0 0 1 0.86 -73.81)" id="f7dcc58f-beb5-4050-9d04-9a029c12a87b"  >
<polygon style="stroke: none; stroke-width: 1; stroke-dasharray: none; stroke-linecap: butt; stroke-dashoffset: 0; stroke-linejoin: miter; stroke-miterlimit: 4; fill: rgb(63,61,86); fill-rule: nonzero; opacity: 1;"  points="-2.83,148.42 -1.15,45.05 68.75,-82.83 -0.89,28.84 -0.13,-17.64 48.04,-110.16 0.06,-29.94 0.06,-29.94 1.42,-113.53 53.01,-187.19 1.64,-126.68 2.48,-279.96 -2.85,-77.04 -2.41,-85.42 -54.86,-165.7 -3.25,-69.35 -8.14,24.01 -8.28,21.53 -68.75,-62.95 -8.47,30.29 -9.08,41.96 -9.19,42.14 -9.14,43.1 -21.54,279.96 -4.97,279.96 -2.98,157.62 57.15,64.61 -2.83,148.42 " />
</g>
		<g transform="matrix(1 0 0 1 -36 299.99)" id="f7dcc58f-beb5-4050-9d04-9a029c12a87b"  >
<path style="stroke: none; stroke-width: 1; stroke-dasharray: none; stroke-linecap: butt; stroke-dashoffset: 0; stroke-linejoin: miter; stroke-miterlimit: 4; fill: rgb(63,61,86); fill-rule: nonzero; opacity: 1;"  transform=" translate(-564, -749.99)" d="M 952 738.49059 c 0 26.50967 -173.71352 109 -388 109 s -388 -82.49033 -388 -109 s 159.71352 -86 374 -86 S 952 711.98092 952 738.49059 Z" stroke-linecap="round" />
</g>
		<g transform="matrix(1 0 0 1 -36 299.99)" id="f7dcc58f-beb5-4050-9d04-9a029c12a87b"  >
<path style="stroke: none; stroke-width: 1; stroke-dasharray: none; stroke-linecap: butt; stroke-dashoffset: 0; stroke-linejoin: miter; stroke-miterlimit: 4; fill: rgb(0,0,0); fill-rule: nonzero; opacity: 0.1;"  transform=" translate(-564, -749.99)" d="M 952 738.49059 c 0 26.50967 -173.71352 109 -388 109 s -388 -82.49033 -388 -109 s 159.71352 -86 374 -86 S 952 711.98092 952 738.49059 Z" stroke-linecap="round" />
</g>
		<g transform="matrix(1 0 0 1 -36 269.49)" id="f7dcc58f-beb5-4050-9d04-9a029c12a87b"  >
<path style="stroke: none; stroke-width: 1; stroke-dasharray: none; stroke-linecap: butt; stroke-dashoffset: 0; stroke-linejoin: miter; stroke-miterlimit: 4; fill: rgb(63,61,86); fill-rule: nonzero; opacity: 1;"  transform=" translate(-564, -719.49)" d="M 952 738.49059 c 0 26.50967 -173.71352 48 -388 48 s -388 -21.49033 -388 -48 s 159.71352 -86 374 -86 S 952 711.98092 952 738.49059 Z" stroke-linecap="round" />
</g>
		<g transform="matrix(1 0 0 1 121.1 189.97)" id="f7dcc58f-beb5-4050-9d04-9a029c12a87b"  >
<path style="stroke: none; stroke-width: 1; stroke-dasharray: none; stroke-linecap: butt; stroke-dashoffset: 0; stroke-linejoin: miter; stroke-miterlimit: 4; fill: rgb(63,61,86); fill-rule: nonzero; opacity: 1;"  transform=" translate(-721.1, -639.97)" d="M 694.42886 605.57113 c 0 38.029 23.85743 68.80166 53.34062 68.80166" stroke-linecap="round" />
</g>
		<g transform="matrix(1 0 0 1 177.53 189.59)" id="f7dcc58f-beb5-4050-9d04-9a029c12a87b"  >
<path style="stroke: none; stroke-width: 1; stroke-dasharray: none; stroke-linecap: butt; stroke-dashoffset: 0; stroke-linejoin: miter; stroke-miterlimit: 4; fill: rgb(108,99,255); fill-rule: nonzero; opacity: 1;"  transform=" translate(-777.53, -639.59)" d="M 747.76948 674.37279 c 0 -38.45634 26.6235 -69.57472 59.525 -69.57472" stroke-linecap="round" />
</g>
		<g transform="matrix(1 0 0 1 130.76 191.7)" id="f7dcc58f-beb5-4050-9d04-9a029c12a87b"  >
<path style="stroke: none; stroke-width: 1; stroke-dasharray: none; stroke-linecap: butt; stroke-dashoffset: 0; stroke-linejoin: miter; stroke-miterlimit: 4; fill: rgb(108,99,255); fill-rule: nonzero; opacity: 1;"  transform=" translate(-730.76, -641.7)" d="M 713.75517 609.01852 c 0 36.12355 15.21343 65.35427 34.01431 65.35427" stroke-linecap="round" />
</g>
		<g transform="matrix(1 0 0 1 182.17 179.92)" id="f7dcc58f-beb5-4050-9d04-9a029c12a87b"  >
<path style="stroke: none; stroke-width: 1; stroke-dasharray: none; stroke-linecap: butt; stroke-dashoffset: 0; stroke-linejoin: miter; stroke-miterlimit: 4; fill: rgb(63,61,86); fill-rule: nonzero; opacity: 1;"  transform=" translate(-782.17, -629.92)" d="M 747.76948 674.37279 c 0 -49.13865 30.77261 -88.901 68.80166 -88.901" stroke-linecap="round" />
</g>
		<g transform="matrix(1 0 0 1 150.62 227.92)" id="f7dcc58f-beb5-4050-9d04-9a029c12a87b"  >
<path style="stroke: none; stroke-width: 1; stroke-dasharray: none; stroke-linecap: butt; stroke-dashoffset: 0; stroke-linejoin: miter; stroke-miterlimit: 4; fill: rgb(168,168,168); fill-rule: nonzero; opacity: 1;"  transform=" translate(-750.62, -677.92)" d="M 736.548 674.85785 s 7.56457 -0.233 9.84434 -1.85638 s 11.63623 -3.56182 12.20179 -0.95825 s 11.36815 12.949 2.82778 13.01787 s -19.844 -1.3303 -22.11941 -2.71632 S 736.548 674.85785 736.548 674.85785 Z" stroke-linecap="round" />
</g>
		<g transform="matrix(1 0 0 1 150.62 229.96)" id="f7dcc58f-beb5-4050-9d04-9a029c12a87b"  >
<path style="stroke: none; stroke-width: 1; stroke-dasharray: none; stroke-linecap: butt; stroke-dashoffset: 0; stroke-linejoin: miter; stroke-miterlimit: 4; fill: rgb(0,0,0); fill-rule: nonzero; opacity: 0.2;"  transform=" translate(-750.62, -679.96)" d="M 761.57431 684.15477 c -8.54037 0.06891 -19.844 -1.33028 -22.1194 -2.71631 c -1.73283 -1.05554 -2.42334 -4.843 -2.65438 -6.59046 c -0.16 0.00688 -0.25254 0.00984 -0.25254 0.00984 s 0.47912 6.10089 2.75451 7.48692 s 13.579 2.78522 22.1194 2.71631 c 2.46527 -0.01988 3.31682 -0.897 3.27006 -2.19605 C 764.34948 683.64988 763.40924 684.14 761.57431 684.15477 Z" stroke-linecap="round" />
</g>
		<g transform="matrix(1 0 0 1 -31 283.49)" id="f7dcc58f-beb5-4050-9d04-9a029c12a87b"  >
<ellipse style="stroke: none; stroke-width: 1; stroke-dasharray: none; stroke-linecap: butt; stroke-dashoffset: 0; stroke-linejoin: miter; stroke-miterlimit: 4; fill: rgb(0,0,0); fill-rule: nonzero; opacity: 0.1;"  cx="0" cy="0" rx="132" ry="21" />
</g>
		<g transform="matrix(1 0 0 1 20.5 251.49)" id="f7dcc58f-beb5-4050-9d04-9a029c12a87b"  >
<rect style="stroke: none; stroke-width: 1; stroke-dasharray: none; stroke-linecap: butt; stroke-dashoffset: 0; stroke-linejoin: miter; stroke-miterlimit: 4; fill: rgb(255,185,185); fill-rule: nonzero; opacity: 1;"  x="-6.5" y="-15" rx="0" ry="0" width="13" height="30" />
</g>
		<g transform="matrix(1 0 0 1 3 -123.51)" id="f7dcc58f-beb5-4050-9d04-9a029c12a87b"  >
<rect style="stroke: none; stroke-width: 1; stroke-dasharray: none; stroke-linecap: butt; stroke-dashoffset: 0; stroke-linejoin: miter; stroke-miterlimit: 4; fill: rgb(255,101,132); fill-rule: nonzero; opacity: 1;"  x="-25" y="-45" rx="0" ry="0" width="50" height="90" />
</g>
		<g transform="matrix(1 0 0 1 40.78 15.67)" id="f7dcc58f-beb5-4050-9d04-9a029c12a87b"  >
<polygon style="stroke: none; stroke-width: 1; stroke-dasharray: none; stroke-linecap: butt; stroke-dashoffset: 0; stroke-linejoin: miter; stroke-miterlimit: 4; fill: rgb(255,185,185); fill-rule: nonzero; opacity: 1;"  points="23.94,-13.84 25.67,0 -19.9,13.84 -25.67,-11.54 23.94,-13.84 " />
</g>
		<g transform="matrix(1 0 0 1 6.17 -115.94)" id="f7dcc58f-beb5-4050-9d04-9a029c12a87b"  >
<path style="stroke: none; stroke-width: 1; stroke-dasharray: none; stroke-linecap: butt; stroke-dashoffset: 0; stroke-linejoin: miter; stroke-miterlimit: 4; fill: rgb(255,185,185); fill-rule: nonzero; opacity: 1;"  transform=" translate(-606.17, -334.06)" d="M 597.22869 318.56875 s -1.15371 10.38336 -3.46112 10.38336 s -10.38337 4.038 -10.38337 4.038 l -2.30741 10.96021 l 16.1519 9.80651 l 26.53526 -2.88426 l 7.49909 -11.53707 l -7.49909 -7.4991 s -6.34539 -13.84448 -4.038 -16.72875 S 597.22869 318.56875 597.22869 318.56875 Z" stroke-linecap="round" />
</g>
		<g transform="matrix(1 0 0 1 6.17 -115.94)" id="f7dcc58f-beb5-4050-9d04-9a029c12a87b"  >
<path style="stroke: none; stroke-width: 1; stroke-dasharray: none; stroke-linecap: butt; stroke-dashoffset: 0; stroke-linejoin: miter; stroke-miterlimit: 4; fill: rgb(0,0,0); fill-rule: nonzero; opacity: 0.1;"  transform=" translate(-606.17, -334.06)" d="M 597.22869 318.56875 s -1.15371 10.38336 -3.46112 10.38336 s -10.38337 4.038 -10.38337 4.038 l -2.30741 10.96021 l 16.1519 9.80651 l 26.53526 -2.88426 l 7.49909 -11.53707 l -7.49909 -7.4991 s -6.34539 -13.84448 -4.038 -16.72875 S 597.22869 318.56875 597.22869 318.56875 Z" stroke-linecap="round" />
</g>
		<g transform="matrix(1 0 0 1 -72.05 249.58)" id="f7dcc58f-beb5-4050-9d04-9a029c12a87b"  >
<path style="stroke: none; stroke-width: 1; stroke-dasharray: none; stroke-linecap: butt; stroke-dashoffset: 0; stroke-linejoin: miter; stroke-miterlimit: 4; fill: rgb(255,185,185); fill-rule: nonzero; opacity: 1;"  transform=" translate(-527.95, -699.58)" d="M 525.122 677.94849 s -5.19168 34.61121 -11.53707 36.91862 s 24.22784 6.34539 24.22784 6.34539 l 2.30742 -12.69078 s 0.57685 -23.07414 2.88427 -26.53526 S 525.122 677.94849 525.122 677.94849 Z" stroke-linecap="round" />
</g>
		<g transform="matrix(1 0 0 1 0.16 127.24)" id="f7dcc58f-beb5-4050-9d04-9a029c12a87b"  >
<path style="stroke: none; stroke-width: 1; stroke-dasharray: none; stroke-linecap: butt; stroke-dashoffset: 0; stroke-linejoin: miter; stroke-miterlimit: 4; fill: rgb(47,46,65); fill-rule: nonzero; opacity: 1;"  transform=" translate(-600.16, -577.24)" d="M 583.96106 476.62661 s 83.64375 -14.99819 84.22061 -17.88246 s 17.3056 21.92044 6.92224 70.37613 S 638.76214 691.793 638.76214 691.793 s -26.53526 8.076 -25.95841 1.73056 s 9.22966 -116.52441 9.22966 -116.52441 L 616.26485 530.274 l -9.80651 5.76853 L 565.50174 616.802 L 544.735 686.60129 s -26.53526 4.61483 -22.49729 -5.19168 s 17.30561 -85.95118 17.30561 -85.95118 l 36.34177 -107.29475 S 574.7314 476.62661 583.96106 476.62661 Z" stroke-linecap="round" />
</g>
		<g transform="matrix(1 0 0 1 5.02 -147.87)" id="f7dcc58f-beb5-4050-9d04-9a029c12a87b"  >
<circle style="stroke: none; stroke-width: 1; stroke-dasharray: none; stroke-linecap: butt; stroke-dashoffset: 0; stroke-linejoin: miter; stroke-miterlimit: 4; fill: rgb(255,185,185); fill-rule: nonzero; opacity: 1;"  cx="0" cy="0" r="24.22785" />
</g>
		<g transform="matrix(1 0 0 1 20.63 -50.09)" id="f7dcc58f-beb5-4050-9d04-9a029c12a87b"  >
<path style="stroke: none; stroke-width: 1; stroke-dasharray: none; stroke-linecap: butt; stroke-dashoffset: 0; stroke-linejoin: miter; stroke-miterlimit: 4; fill: rgb(242,242,242); fill-rule: nonzero; opacity: 1;"  transform=" translate(-620.63, -399.91)" d="M 630.10934 332.41323 s -11.53707 10.96022 -38.64919 8.07595 s 7.4991 61.72333 7.4991 61.72333 L 609.91946 467.397 s 48.4557 -5.76853 50.18626 -16.72875 S 630.10934 332.41323 630.10934 332.41323 Z" stroke-linecap="round" />
</g>
		<g transform="matrix(1 0 0 1 24.34 -49.11)" id="f7dcc58f-beb5-4050-9d04-9a029c12a87b"  >
<path style="stroke: none; stroke-width: 1; stroke-dasharray: none; stroke-linecap: butt; stroke-dashoffset: 0; stroke-linejoin: miter; stroke-miterlimit: 4; fill: rgb(47,46,65); fill-rule: nonzero; opacity: 1;"  transform=" translate(-624.34, -400.89)" d="M 618.57227 394.13656 s -13.84449 -6.92224 -19.03617 -25.95841 s -9.80651 -38.64918 -12.69078 -38.07233 c -2.43527 0.48705 -25.021 9.1988 -32.34111 15.02428 c -1.34961 1.074 -2.1803 2.05 -2.2701 2.85818 c -0.57685 5.19168 20.76673 57.1085 20.76673 57.1085 s 16.72875 37.49547 9.80651 49.6094 s -7.4991 27.689 5.19168 26.53526 s 54.80108 -3.46112 49.03255 -35.76492 c 0 0 10.96021 22.49729 41.53345 6.34539 c 0 0 18.45931 -2.88427 17.88246 -9.22966 S 667.028 381.44578 667.028 381.44578 s -4.61483 -24.22785 4.038 -33.4575 l -19.613 -23.07414 s -4.61483 -6.92224 -9.22966 -3.46112 s -14.99819 9.22965 -16.72875 9.80651 s -2.86829 -2.07331 -2.86829 -2.07331 a 50.15409 50.15409 0 0 0 -4.63081 26.878 C 619.726 371.06242 618.57227 394.13656 618.57227 394.13656 Z" stroke-linecap="round" />
</g>
		<g transform="matrix(1 0 0 1 -88.36 268.62)" id="f7dcc58f-beb5-4050-9d04-9a029c12a87b"  >
<path style="stroke: none; stroke-width: 1; stroke-dasharray: none; stroke-linecap: butt; stroke-dashoffset: 0; stroke-linejoin: miter; stroke-miterlimit: 4; fill: rgb(47,46,65); fill-rule: nonzero; opacity: 1;"  transform=" translate(-511.64, -718.62)" d="M 526.85256 707.94487 s -1.28794 -4.038 -8.71992 0 c 0 0 2.37453 -12.69078 -5.70142 -12.69078 S 501.471 710.25228 501.471 710.25228 s -2.30741 9.80651 -17.88246 13.84449 s -3.46112 17.88245 7.4991 17.88245 s 25.38155 -8.6528 25.38155 -8.6528 s 29.99639 0.57686 30.57324 -5.19168 s -2.88427 -23.07414 -5.19168 -23.07414 s -6.92224 8.076 -6.92224 8.076 Z" stroke-linecap="round" />
</g>
		<g transform="matrix(1 0 0 1 21.83 270.73)" id="f7dcc58f-beb5-4050-9d04-9a029c12a87b"  >
<path style="stroke: none; stroke-width: 1; stroke-dasharray: none; stroke-linecap: butt; stroke-dashoffset: 0; stroke-linejoin: miter; stroke-miterlimit: 4; fill: rgb(47,46,65); fill-rule: nonzero; opacity: 1;"  transform=" translate(-621.83, -720.73)" d="M 624.91765 697.793 s -8.07594 -8.6528 -12.69077 5.76853 s -8.076 20.18988 -5.19168 22.49729 s 5.19168 1.15371 4.038 5.76854 s 3.46112 14.42133 13.84448 14.42133 s 13.26764 -7.49909 12.69078 -12.69077 s -5.19168 -11.53707 -5.19168 -11.53707 l -4.61483 -16.1519 Z" stroke-linecap="round" />
</g>
		<g transform="matrix(1 0 0 1 47.32 -142.69)" id="f7dcc58f-beb5-4050-9d04-9a029c12a87b"  >
<path style="stroke: none; stroke-width: 1; stroke-dasharray: none; stroke-linecap: butt; stroke-dashoffset: 0; stroke-linejoin: miter; stroke-miterlimit: 4; fill: rgb(255,185,185); fill-rule: nonzero; opacity: 1;"  transform=" translate(-647.32, -307.31)" d="M 670.48908 292.03349 l -30.57323 10.38336 s -27.689 16.1519 -15.57505 19.613 s 22.49729 -10.38336 22.49729 -10.38336 l 26.53526 -6.92224 Z" stroke-linecap="round" />
</g>
		<g transform="matrix(1 0 0 1 7.51 -129.22)" id="f7dcc58f-beb5-4050-9d04-9a029c12a87b"  >
<path style="stroke: none; stroke-width: 1; stroke-dasharray: none; stroke-linecap: butt; stroke-dashoffset: 0; stroke-linejoin: miter; stroke-miterlimit: 4; fill: rgb(255,101,132); fill-rule: nonzero; opacity: 1;"  transform=" translate(-607.51, -320.78)" d="M 588.5317 264.66341 c -3.6299 2.48667 -6.51953 5.89268 -9.267 9.32942 c -5.58253 6.98308 -11.05227 15.323 -9.6768 24.15683 c 0.52241 3.35517 2.01351 6.47776 2.853 9.76793 c 1.133 4.44034 1.05834 9.08738 0.9765 13.66925 a 18.4591 18.4591 0 0 1 -0.715 5.76366 a 37.99064 37.99064 0 0 1 -2.84235 5.25447 c -2.77828 5.17472 -2.84644 11.3233 -2.84876 17.19668 a 14.66559 14.66559 0 0 0 0.79084 5.83156 c 0.7586 1.766 2.17085 3.15066 3.342 4.67464 a 20.16514 20.16514 0 0 1 3.1082 18.26869 a 7.91386 7.91386 0 0 0 7.19 -4.53355 a 10.02364 10.02364 0 0 1 -2.56309 8.15237 c 6.60337 -1.9624 13.68191 -5.27107 16.0922 -11.72445 a 24.84682 24.84682 0 0 0 1.18508 -6.77594 c 1.28208 -16.18765 2.0142 -32.98059 -3.79134 -48.14566 c -1.85741 -4.85187 -4.38532 -9.54824 -5.008 -14.706 s 1.28076 -11.11815 6.01928 -13.24818 a 5.46383 5.46383 0 0 0 1.6502 3.476 c 1.05467 0.78308 3.00509 0.2919 3.02418 -1.02156 l 2.28881 3.18683 a 5.59164 5.59164 0 0 0 2.17351 -1.8961 l 1.5691 1.92085 l 3.3374 -2.42766 l 2.89784 3.12519 a 6.16615 6.16615 0 0 0 2.54433 -2.7689 c 0.62282 0.93147 1.39371 1.95519 2.50968 2.056 c 2.43009 0.21961 2.93162 -3.63681 5.05451 -4.8397 a 3.58263 3.58263 0 0 1 4.47152 1.35532 a 7.29918 7.29918 0 0 1 0.90012 4.94257 c -0.87852 7.93214 -7.64657 15.17 -5.63989 22.89424 c 1.12838 4.34341 4.92876 7.82614 5.21543 12.30455 c 0.2291 3.579 -1.87475 6.96477 -1.8426 10.551 c 0.03768 4.20274 2.94145 7.77244 5.77615 10.87548 q 7.56762 8.284 15.93063 15.79162 l -1.72232 -3.01322 a 5.59237 5.59237 0 0 1 4.38587 1.613 c 0.49508 -1.732 -0.32558 -3.53665 -1.10006 -5.163 c -4.63767 -9.73871 -8.38185 -20.10833 -8.94113 -30.88042 c -0.7774 -14.97342 4.60637 -30.18 1.19448 -44.78024 a 38.65541 38.65541 0 0 0 -13.02863 -20.8277 c -3.1557 -2.59772 -5.54843 -4.15371 -9.635 -4.44 a 72.72067 72.72067 0 0 0 -13.72491 0.10768 A 31.41756 31.41756 0 0 0 588.5317 264.66341 Z" stroke-linecap="round" />
</g>
		<g transform="matrix(1 0 0 1 84.92 -136.24)" id="f7dcc58f-beb5-4050-9d04-9a029c12a87b"  >
<path style="stroke: none; stroke-width: 1; stroke-dasharray: none; stroke-linecap: butt; stroke-dashoffset: 0; stroke-linejoin: miter; stroke-miterlimit: 4; fill: rgb(47,46,65); fill-rule: nonzero; opacity: 1;"  transform=" translate(-684.92, -313.76)" d="M 646.83809 325.491 s 6.34539 0.57686 9.22965 0 s 6.92225 -3.46112 6.92225 -3.46112 l 21.92043 -16.1519 l -19.03617 2.88427 s 3.46112 -26.53526 2.30742 -27.11212 s 55.95479 -11.53707 54.80108 6.34539 s -33.4575 53.07053 -51.91681 59.99277 L 658.952 349.71884 Z" stroke-linecap="round" />
</g>
		<g transform="matrix(1 0 0 1 -27 112)" id="f7dcc58f-beb5-4050-9d04-9a029c12a87b"  >
<rect style="stroke: none; stroke-width: 1; stroke-dasharray: none; stroke-linecap: butt; stroke-dashoffset: 0; stroke-linejoin: miter; stroke-miterlimit: 4; fill: rgb(255,255,255); fill-rule: nonzero; opacity: 1;"  x="-136" y="-32" rx="0" ry="0" width="272" height="64" />
</g>
		<g transform="matrix(1 0 0 1 -27.5 111.5)" id="f7dcc58f-beb5-4050-9d04-9a029c12a87b"  >
<rect style="stroke: none; stroke-width: 1; stroke-dasharray: none; stroke-linecap: butt; stroke-dashoffset: 0; stroke-linejoin: miter; stroke-miterlimit: 4; fill: rgb(63,61,86); fill-rule: nonzero; opacity: 1;"  x="-101" y="-17" rx="0" ry="0" width="202" height="34" />
</g>
		<g transform="matrix(1 0 0 1 -95 112)" id="f7dcc58f-beb5-4050-9d04-9a029c12a87b"  >
<path style="stroke: none; stroke-width: 1; stroke-dasharray: none; stroke-linecap: butt; stroke-dashoffset: 0; stroke-linejoin: miter; stroke-miterlimit: 4; fill: rgb(255,255,255); fill-rule: nonzero; opacity: 1;"  transform=" translate(-505, -562)" d="M 518.44238 560.754 c -0.08081 -0.87183 -3.937 -1.25983 -9.2279 -1.04151 c 3.06592 -4.31744 4.84167 -7.76239 4.15466 -8.30523 c -0.64807 -0.512 -3.30017 1.70147 -6.5293 5.29632 C 506.53467 551.881 505.82593 548.5 505 548.5 c -0.90088 0 -1.66235 4.02258 -1.9126 9.55133 c -4.49316 -3.2312 -8.12158 -5.12756 -8.68017 -4.42059 c -0.53321 0.675 1.89526 3.52563 5.75586 6.93579 c -5.09522 0.75592 -8.68482 1.82294 -8.60547 2.67944 c 0.08081 0.87183 3.937 1.25989 9.2279 1.04157 c -3.06592 4.31744 -4.84167 7.76239 -4.15466 8.30517 c 0.64807 0.512 3.30017 -1.70141 6.5293 -5.29626 C 503.46533 572.11908 504.17407 575.5 505 575.5 c 0.90088 0 1.66235 -4.02271 1.9126 -9.55139 c 4.49316 3.2312 8.12158 5.12756 8.68017 4.42059 c 0.53321 -0.675 -1.89526 -3.52563 -5.75586 -6.93579 C 514.93213 562.67743 518.52173 561.61047 518.44238 560.754 Z" stroke-linecap="round" />
</g>
		<g transform="matrix(1 0 0 1 -61 112)" id="f7dcc58f-beb5-4050-9d04-9a029c12a87b"  >
<path style="stroke: none; stroke-width: 1; stroke-dasharray: none; stroke-linecap: butt; stroke-dashoffset: 0; stroke-linejoin: miter; stroke-miterlimit: 4; fill: rgb(255,255,255); fill-rule: nonzero; opacity: 1;"  transform=" translate(-539, -562)" d="M 552.44238 560.754 c -0.08081 -0.87183 -3.937 -1.25983 -9.2279 -1.04151 c 3.06592 -4.31744 4.84167 -7.76239 4.15466 -8.30523 c -0.64807 -0.512 -3.30017 1.70147 -6.5293 5.29632 C 540.53467 551.881 539.82593 548.5 539 548.5 c -0.90088 0 -1.66235 4.02258 -1.9126 9.55133 c -4.49316 -3.2312 -8.12158 -5.12756 -8.68017 -4.42059 c -0.53321 0.675 1.89526 3.52563 5.75586 6.93579 c -5.09522 0.75592 -8.68482 1.82294 -8.60547 2.67944 c 0.08081 0.87183 3.937 1.25989 9.2279 1.04157 c -3.06592 4.31744 -4.84167 7.76239 -4.15466 8.30517 c 0.64807 0.512 3.30017 -1.70141 6.5293 -5.29626 C 537.46533 572.11908 538.17407 575.5 539 575.5 c 0.90088 0 1.66235 -4.02271 1.9126 -9.55139 c 4.49316 3.2312 8.12158 5.12756 8.68017 4.42059 c 0.53321 -0.675 -1.89526 -3.52563 -5.75586 -6.93579 C 548.93213 562.67743 552.52173 561.61047 552.44238 560.754 Z" stroke-linecap="round" />
</g>
		<g transform="matrix(1 0 0 1 -27 112)" id="f7dcc58f-beb5-4050-9d04-9a029c12a87b"  >
<path style="stroke: none; stroke-width: 1; stroke-dasharray: none; stroke-linecap: butt; stroke-dashoffset: 0; stroke-linejoin: miter; stroke-miterlimit: 4; fill: rgb(255,255,255); fill-rule: nonzero; opacity: 1;"  transform=" translate(-573, -562)" d="M 586.44238 560.754 c -0.08081 -0.87183 -3.937 -1.25983 -9.2279 -1.04151 c 3.06592 -4.31744 4.84167 -7.76239 4.15466 -8.30523 c -0.64807 -0.512 -3.30017 1.70147 -6.5293 5.29632 C 574.53467 551.881 573.82593 548.5 573 548.5 c -0.90088 0 -1.66235 4.02258 -1.9126 9.55133 c -4.49316 -3.2312 -8.12158 -5.12756 -8.68017 -4.42059 c -0.53321 0.675 1.89526 3.52563 5.75586 6.93579 c -5.09522 0.75592 -8.68482 1.82294 -8.60547 2.67944 c 0.08081 0.87183 3.937 1.25989 9.2279 1.04157 c -3.06592 4.31744 -4.84167 7.76239 -4.15466 8.30517 c 0.64807 0.512 3.30017 -1.70141 6.5293 -5.29626 C 571.46533 572.11908 572.17407 575.5 573 575.5 c 0.90088 0 1.66235 -4.02271 1.9126 -9.55139 c 4.49316 3.2312 8.12158 5.12756 8.68017 4.42059 c 0.53321 -0.675 -1.89526 -3.52563 -5.75586 -6.93579 C 582.93213 562.67743 586.52173 561.61047 586.44238 560.754 Z" stroke-linecap="round" />
</g>
		<g transform="matrix(1 0 0 1 7 112)" id="f7dcc58f-beb5-4050-9d04-9a029c12a87b"  >
<path style="stroke: none; stroke-width: 1; stroke-dasharray: none; stroke-linecap: butt; stroke-dashoffset: 0; stroke-linejoin: miter; stroke-miterlimit: 4; fill: rgb(255,255,255); fill-rule: nonzero; opacity: 1;"  transform=" translate(-607, -562)" d="M 620.44238 560.754 c -0.08081 -0.87183 -3.937 -1.25983 -9.2279 -1.04151 c 3.06592 -4.31744 4.84167 -7.76239 4.15466 -8.30523 c -0.64807 -0.512 -3.30017 1.70147 -6.5293 5.29632 C 608.53467 551.881 607.82593 548.5 607 548.5 c -0.90088 0 -1.66235 4.02258 -1.9126 9.55133 c -4.49316 -3.2312 -8.12158 -5.12756 -8.68017 -4.42059 c -0.53321 0.675 1.89526 3.52563 5.75586 6.93579 c -5.09522 0.75592 -8.68482 1.82294 -8.60547 2.67944 c 0.08081 0.87183 3.937 1.25989 9.2279 1.04157 c -3.06592 4.31744 -4.84167 7.76239 -4.15466 8.30517 c 0.64807 0.512 3.30017 -1.70141 6.5293 -5.29626 C 605.46533 572.11908 606.17407 575.5 607 575.5 c 0.90088 0 1.66235 -4.02271 1.9126 -9.55139 c 4.49316 3.2312 8.12158 5.12756 8.68017 4.42059 c 0.53321 -0.675 -1.89526 -3.52563 -5.75586 -6.93579 C 616.93213 562.67743 620.52173 561.61047 620.44238 560.754 Z" stroke-linecap="round" />
</g>
		<g transform="matrix(1 0 0 1 41 112)" id="f7dcc58f-beb5-4050-9d04-9a029c12a87b"  >
<path style="stroke: none; stroke-width: 1; stroke-dasharray: none; stroke-linecap: butt; stroke-dashoffset: 0; stroke-linejoin: miter; stroke-miterlimit: 4; fill: rgb(255,255,255); fill-rule: nonzero; opacity: 1;"  transform=" translate(-641, -562)" d="M 654.44238 560.754 c -0.08081 -0.87183 -3.937 -1.25983 -9.2279 -1.04151 c 3.06592 -4.31744 4.84167 -7.76239 4.15466 -8.30523 c -0.64807 -0.512 -3.30017 1.70147 -6.5293 5.29632 C 642.53467 551.881 641.82593 548.5 641 548.5 c -0.90088 0 -1.66235 4.02258 -1.9126 9.55133 c -4.49316 -3.2312 -8.12158 -5.12756 -8.68017 -4.42059 c -0.53321 0.675 1.89526 3.52563 5.75586 6.93579 c -5.09522 0.75592 -8.68482 1.82294 -8.60547 2.67944 c 0.08081 0.87183 3.937 1.25989 9.2279 1.04157 c -3.06592 4.31744 -4.84167 7.76239 -4.15466 8.30517 c 0.64807 0.512 3.30017 -1.70141 6.5293 -5.29626 C 639.46533 572.11908 640.17407 575.5 641 575.5 c 0.90088 0 1.66235 -4.02271 1.9126 -9.55139 c 4.49316 3.2312 8.12158 5.12756 8.68017 4.42059 c 0.53321 -0.675 -1.89526 -3.52563 -5.75586 -6.93579 C 650.93213 562.67743 654.52173 561.61047 654.44238 560.754 Z" stroke-linecap="round" />
</g>
		<g transform="matrix(1 0 0 1 -42.64 70.78)" id="f7dcc58f-beb5-4050-9d04-9a029c12a87b"  >
<path style="stroke: none; stroke-width: 1; stroke-dasharray: none; stroke-linecap: butt; stroke-dashoffset: 0; stroke-linejoin: miter; stroke-miterlimit: 4; fill: rgb(255,185,185); fill-rule: nonzero; opacity: 1;"  transform=" translate(-557.36, -520.78)" d="M 548.773 502.585 s -2.88427 38.07233 10.96022 39.80289 s 1.15371 -43.264 1.15371 -43.264 Z" stroke-linecap="round" />
</g>
		<g transform="matrix(1 0 0 1 -42.13 -22.69)" id="f7dcc58f-beb5-4050-9d04-9a029c12a87b"  >
<path style="stroke: none; stroke-width: 1; stroke-dasharray: none; stroke-linecap: butt; stroke-dashoffset: 0; stroke-linejoin: miter; stroke-miterlimit: 4; fill: rgb(47,46,65); fill-rule: nonzero; opacity: 1;"  transform=" translate(-557.87, -427.31)" d="M 556.27209 346.83457 l -4.038 1.15371 s -16.72875 133.83 -5.76853 159.78842 c 0 0 11.53707 -6.34539 17.3056 -5.19168 l 9.22966 -109.02531 Z" stroke-linecap="round" />
</g>
</g>
</g>
</svg>