<svg width="486" height="338" viewBox="0 0 486 338" fill="none" xmlns="http://www.w3.org/2000/svg">
<g clip-path="url(#clip0)">
<path d="M92.2011 72.4276C107.531 72.4276 119.958 60.0004 119.958 44.6708C119.958 29.3412 107.531 16.9141 92.2011 16.9141C76.8715 16.9141 64.4443 29.3412 64.4443 44.6708C64.4443 60.0004 76.8715 72.4276 92.2011 72.4276Z" fill="#FF6584"/>
<path d="M227.248 148.812C227.248 214.305 188.313 237.173 140.285 237.173C92.2562 237.173 53.3213 214.305 53.3213 148.812C53.3213 83.3181 140.285 0 140.285 0C140.285 0 227.248 83.3181 227.248 148.812Z" fill="#F2F2F2"/>
<path d="M137.117 227.155L138.008 172.343L175.073 104.532L138.147 163.744L138.547 139.098L164.093 90.0381L138.653 132.576L139.373 88.2495L166.728 49.1915L139.487 81.2791L139.937 0L137.109 107.599L137.341 103.16L109.53 60.5895L136.896 111.681L134.304 161.186L134.227 159.872L102.164 115.073L134.13 164.514L133.806 170.705L133.748 170.799L133.774 171.307L127.2 296.906H135.984L137.038 232.031L168.924 182.711L137.117 227.155Z" fill="#3F3D56"/>
<path d="M486 175.636C486 229.245 454.13 247.964 414.816 247.964C375.503 247.964 343.633 229.245 343.633 175.636C343.633 122.026 414.816 53.8262 414.816 53.8262C414.816 53.8262 486 122.026 486 175.636Z" fill="#F2F2F2"/>
<path d="M412.223 239.763L412.952 194.897L443.292 139.391L413.066 187.858L413.394 167.685L434.305 127.526L413.481 162.346L414.07 126.063L436.461 94.0917L414.163 120.357L414.531 53.8262L412.217 141.901L412.407 138.268L389.641 103.421L412.042 145.243L409.921 185.765L409.857 184.689L383.613 148.019L409.778 188.489L409.513 193.557L409.465 193.633L409.487 194.049L404.105 296.857H411.296L412.158 243.755L438.259 203.384L412.223 239.763Z" fill="#3F3D56"/>
<path d="M240.526 307.282C373.365 307.282 481.052 301.838 481.052 295.123C481.052 288.408 373.365 282.965 240.526 282.965C107.687 282.965 0 288.408 0 295.123C0 301.838 107.687 307.282 240.526 307.282Z" fill="#3F3D56"/>
<path d="M387.053 317.294C409.805 317.294 428.249 316.361 428.249 315.211C428.249 314.061 409.805 313.129 387.053 313.129C364.3 313.129 345.856 314.061 345.856 315.211C345.856 316.361 364.3 317.294 387.053 317.294Z" fill="#3F3D56"/>
<path d="M237.979 337.382C260.731 337.382 279.176 336.449 279.176 335.299C279.176 334.149 260.731 333.217 237.979 333.217C215.227 333.217 196.783 334.149 196.783 335.299C196.783 336.449 215.227 337.382 237.979 337.382Z" fill="#3F3D56"/>
<path d="M124.881 323.214C176.862 323.214 219 321.084 219 318.456C219 315.828 176.862 313.698 124.881 313.698C72.9008 313.698 30.7623 315.828 30.7623 318.456C30.7623 321.084 72.9008 323.214 124.881 323.214Z" fill="#3F3D56"/>
<path d="M42.1051 279.854C61.0276 279.854 76.3674 264.514 76.3674 245.591C76.3674 226.669 61.0276 211.329 42.1051 211.329C23.1826 211.329 7.8429 226.669 7.8429 245.591C7.8429 264.514 23.1826 279.854 42.1051 279.854Z" fill="#2F2E41"/>
<path d="M36.5843 272.417L26.1763 272.294L25.9565 290.942L36.3646 291.064L36.5843 272.417Z" fill="#2F2E41"/>
<path d="M57.4005 272.662L46.9924 272.539L46.7727 291.187L57.1808 291.309L57.4005 272.662Z" fill="#2F2E41"/>
<path d="M43.3007 291.363C43.3219 289.567 39.4559 288.065 34.6657 288.008C29.8755 287.952 25.9751 289.362 25.954 291.159C25.9328 292.955 29.7989 294.457 34.589 294.513C39.3792 294.57 43.2796 293.159 43.3007 291.363Z" fill="#2F2E41"/>
<path d="M64.1219 291.175C64.1431 289.378 60.277 287.876 55.4868 287.82C50.6967 287.763 46.7963 289.174 46.7751 290.97C46.754 292.766 50.62 294.268 55.4102 294.325C60.2004 294.381 64.1007 292.971 64.1219 291.175Z" fill="#2F2E41"/>
<path d="M43.0747 248.638C49.5419 248.638 54.7846 243.395 54.7846 236.928C54.7846 230.46 49.5419 225.218 43.0747 225.218C36.6076 225.218 31.3649 230.46 31.3649 236.928C31.3649 243.395 36.6076 248.638 43.0747 248.638Z" fill="white"/>
<path d="M43.0747 240.831C45.2304 240.831 46.978 239.083 46.978 236.928C46.978 234.772 45.2304 233.024 43.0747 233.024C40.919 233.024 39.1714 234.772 39.1714 236.928C39.1714 239.083 40.919 240.831 43.0747 240.831Z" fill="#3F3D56"/>
<path d="M9.2473 213.339C6.62695 200.917 15.6173 188.503 29.3278 185.611C43.0383 182.718 56.277 190.443 58.8974 202.865C61.5178 215.286 52.4013 219.749 38.6908 222.641C24.9803 225.533 11.8676 225.76 9.2473 213.339Z" fill="#00B4D8"/>
<path d="M94.3696 264.705C94.3696 288.591 80.1704 296.932 62.6532 296.932C62.2474 296.932 61.8422 296.927 61.4377 296.918C60.6261 296.901 59.8222 296.862 59.028 296.808C43.2191 295.689 30.9368 286.92 30.9368 264.705C30.9368 241.715 60.315 212.706 62.5218 210.559L62.5257 210.555C62.6107 210.472 62.6532 210.432 62.6532 210.432C62.6532 210.432 94.3696 240.819 94.3696 264.705Z" fill="#00B4D8"/>
<path d="M61.4976 293.277L73.0977 277.068L61.4686 295.057L61.4377 296.918C60.626 296.901 59.8222 296.862 59.0279 296.808L60.2782 272.91L60.2686 272.724L60.2898 272.69L60.4077 270.433L48.7495 252.399L60.4444 268.74L60.4715 269.219L61.4164 251.163L51.4356 232.529L61.5381 247.994L62.5217 210.559L62.5256 210.432V210.555L62.3613 240.075L72.2977 228.372L62.3208 242.618L62.058 258.784L71.3354 243.269L62.0193 261.163L61.8725 270.15L75.3413 248.556L61.8222 273.287L61.4976 293.277Z" fill="#3F3D56"/>
<path d="M309.004 279.483C327.927 279.483 343.266 264.143 343.266 245.22C343.266 226.298 327.927 210.958 309.004 210.958C290.082 210.958 274.742 226.298 274.742 245.22C274.742 264.143 290.082 279.483 309.004 279.483Z" fill="#2F2E41"/>
<path d="M311.929 272.452L301.979 275.51L307.457 293.336L317.407 290.278L311.929 272.452Z" fill="#2F2E41"/>
<path d="M331.827 266.339L321.878 269.396L327.356 287.223L337.305 284.165L331.827 266.339Z" fill="#2F2E41"/>
<path d="M316.768 294.104C321.347 292.697 324.631 290.164 324.104 288.447C323.576 286.729 319.436 286.478 314.857 287.885C310.278 289.293 306.993 291.826 307.521 293.543C308.049 295.26 312.189 295.511 316.768 294.104Z" fill="#2F2E41"/>
<path d="M336.54 287.575C341.119 286.167 344.403 283.634 343.875 281.917C343.348 280.2 339.208 279.949 334.629 281.356C330.049 282.763 326.765 285.296 327.293 287.014C327.821 288.731 331.96 288.982 336.54 287.575Z" fill="#2F2E41"/>
<path d="M307.285 248.385C313.753 248.385 318.995 243.142 318.995 236.675C318.995 230.208 313.753 224.965 307.285 224.965C300.818 224.965 295.575 230.208 295.575 236.675C295.575 243.142 300.818 248.385 307.285 248.385Z" fill="white"/>
<path d="M307.285 240.577C309.441 240.577 311.189 238.83 311.189 236.674C311.189 234.518 309.441 232.771 307.285 232.771C305.13 232.771 303.382 234.518 303.382 236.674C303.382 238.83 305.13 240.577 307.285 240.577Z" fill="#3F3D56"/>
<path d="M267.875 224.526C261.591 213.496 266.366 198.931 278.541 191.995C290.716 185.059 305.681 188.378 311.965 199.408C318.249 210.438 310.928 217.469 298.753 224.405C286.578 231.341 274.159 235.557 267.875 224.526Z" fill="#00B4D8"/>
<path d="M247.899 260.331C247.899 282.258 234.865 289.914 218.785 289.914C218.412 289.914 218.04 289.91 217.669 289.901C216.924 289.885 216.186 289.85 215.457 289.8C200.945 288.773 189.671 280.723 189.671 260.331C189.671 239.228 216.639 212.599 218.664 210.628L218.668 210.624C218.746 210.548 218.785 210.511 218.785 210.511C218.785 210.511 247.899 238.405 247.899 260.331Z" fill="#00B4D8"/>
<path d="M217.724 286.559L228.372 271.68L217.697 288.193L217.669 289.901C216.924 289.885 216.186 289.85 215.457 289.8L216.605 267.863L216.596 267.693L216.615 267.661L216.724 265.589L206.022 249.035L216.757 264.035L216.782 264.475L217.65 247.9L208.488 230.795L217.761 244.991L218.664 210.628L218.668 210.511V210.624L218.517 237.722L227.638 226.979L218.48 240.056L218.238 254.896L226.755 240.654L218.203 257.08L218.068 265.33L230.432 245.507L218.022 268.209L217.724 286.559Z" fill="#3F3D56"/>
<path d="M362.396 269.475C362.396 293.362 348.196 301.702 330.679 301.702C330.274 301.702 329.868 301.698 329.464 301.689C328.652 301.671 327.848 301.632 327.054 301.578C311.245 300.46 298.963 291.69 298.963 269.475C298.963 246.486 328.341 217.477 330.548 215.33L330.552 215.326C330.637 215.243 330.679 215.202 330.679 215.202C330.679 215.202 362.396 245.589 362.396 269.475Z" fill="#00B4D8"/>
<path d="M329.524 298.048L341.124 281.839L329.495 299.828L329.464 301.688C328.652 301.671 327.848 301.632 327.054 301.578L328.304 277.68L328.295 277.495L328.316 277.46L328.434 275.203L316.776 257.17L328.471 273.51L328.498 273.99L329.443 255.933L319.462 237.299L329.564 252.764L330.548 215.33L330.552 215.202V215.326L330.387 244.845L340.324 233.143L330.347 247.388L330.084 263.555L339.362 248.039L330.045 265.933L329.899 274.921L343.367 253.326L329.848 278.057L329.524 298.048Z" fill="#3F3D56"/>
<path d="M311.18 265.73C312.453 263.047 306.555 257.585 298.007 253.53C289.458 249.476 281.496 248.364 280.223 251.048C278.951 253.732 284.849 259.194 293.397 263.248C301.946 267.303 309.908 268.414 311.18 265.73Z" fill="#2F2E41"/>
<path d="M47.4803 262.594C48.5854 259.837 42.3619 254.749 33.5798 251.229C24.7977 247.709 16.7826 247.09 15.6776 249.847C14.5726 252.604 20.796 257.692 29.5781 261.212C38.3602 264.732 46.3753 265.351 47.4803 262.594Z" fill="#2F2E41"/>
</g>
<defs>
<clipPath id="clip0">
<rect width="486" height="337.382" fill="white"/>
</clipPath>
</defs>
</svg>
